<svg viewBox="0 0 64 64" xmlns="http://www.w3.org/2000/svg" xmlns:serif="http://www.serif.com/" fill-rule="evenodd" clip-rule="evenodd" stroke-linecap="round" stroke-linejoin="round" stroke-miterlimit="1.5"><circle cx="32" cy="31.875" r="28.125" fill="#fff"/><clipPath id="a"><circle cx="32" cy="31.875" r="28.125"/></clipPath><g clip-path="url(#a)"><path d="M33 22c1.34 1.107 9.522 19.229 9 14-.288-2.879 6.465 1.119 8.365-1.375.652-.855 4.029.146 5.635.375 1.361.194 3.536-.379 4 1 .27.801-1.786 5.525-4 9-2.256 3.54-4.667 5.836-4 7 .351.612-7.927 7.417-18 8-8.479.491-19.007-5.079-19-6 .002-.226-6.776-4.798-9-12-2.804-9.081-1.099-21.18 0-21 .811.133 4.135.913 8 1 3.196.072 6.918-2.153 10-1 4.428 1.656 8.738.784 9 1z" fill="url(#_Linear2)" fill-rule="nonzero"/><path serif:id="Dam" d="M32 20v40l18-5-10-35h-8z" fill="#707070"/></g><path d="M32 4c15.454 0 28 12.546 28 28S47.454 60 32 60 4 47.454 4 32 16.546 4 32 4zm0 0c15.454 0 28 12.546 28 28S47.454 60 32 60 4 47.454 4 32 16.546 4 32 4z" fill="#d27878" stroke="#737577" stroke-width="3"/><path d="M20.439 37.221l-.105.02-3.785.657.575-.886c-.846-.146-1.569-.354-2.105-.605-.307-.162-.722-.134-.987.066C13.301 37.016 12 38 12 38v-5.294l1.535 1.625c.224.237.574.387.958.411.385.024.763-.082 1.035-.288.644-.471 1.673-.831 3.027-.937L18.018 32 22 33.639s.402.126.888.269c.369.109 1.029.207 2.112.546.529.166 1 .658 1 .899 0 .433-2.636.978-3 1.054-.354.073-.909.366-1.163.657-.278.319-1.28.701-1.28.701l-.118-.544zM26.289 46.997l-.045.04-1.649 1.437.04-.55c-.448.198-.852.331-1.178.389a.619.619 0 0 0-.458.331c-.208.453-.572 1.267-.572 1.267l-1.419-2.235 1.176.216a.894.894 0 0 0 .573-.12.993.993 0 0 0 .422-.439c.184-.396.584-.863 1.209-1.323l-.666-.475 2.36-.528s.228-.071.501-.159c.207-.067.552-.228 1.165-.416.299-.093.659-.029.723.073.116.182-1.009 1.22-1.164 1.363-.151.14-.341.433-.385.634-.049.22-.43.688-.43.688l-.203-.193z"/><defs><linearGradient id="_Linear2" x2="1" gradientUnits="userSpaceOnUse" gradientTransform="matrix(-4 27 -27 -4 36 13)"><stop offset="0" stop-color="#aaccdc"/><stop offset=".49" stop-color="#96bccf"/><stop offset="1" stop-color="#5b8fa8"/></linearGradient></defs></svg>