<svg viewBox="0 0 2155 960" xmlns="http://www.w3.org/2000/svg" xml:space="preserve" style="fill-rule:evenodd;clip-rule:evenodd;stroke-linejoin:round;stroke-miterlimit:2"><path d="M1196.54 391.086c312.52.286 688.12 250.66 679.72 468.104-.71 18.506-25.19 12.815-28.33 29.599l118.07-1.132V887c0-267.242-278.44-489.319-643.15-531.708v-.124c-40.94-4.715-82.95-7.168-125.78-7.168H1196c-42.83 0-84.84 2.453-125.77 7.168v.124C705.516 397.681 427.072 619.758 427.072 887v.657l118.07 1.132c-3.135-16.784-27.62-11.093-28.334-29.599-8.397-217.444 367.209-467.818 679.732-468.104" style="fill:#fff" transform="matrix(-1.29636 0 0 1.65869 2628.64 -573.224)"/><path d="M428.601 384.27h89.412L731.495 875h-121.99l-77.414-186.798-125.36 8.016L335.722 875H216.505zm41.587 142.783L410.579 679.54h119.91z" style="fill:#fff;fill-rule:nonzero" transform="matrix(.63432 0 0 .79334 696.83509 159.79366)"/><path d="M879.67 660.066 879 637s7.854.833 20.054 1c8.254.113 17.659-4.368 25.067-8 9.86-4.833 25.569-12 37.1-19 11.323-6.874 21.557-14 32.086-20 9.603-5.475 21.223-11 31.083-14 9.36-2.848 25.33-7.391 35.09-8 10.7-.667 20.73 0 30.09 1 7.25.776 17.93 5.378 27.47 14 5.62 5.082 19.65 25 19.65 25s-13.49-8.411-22.07-10.751L1113 621s-25.33-3.667-37-2c-11.53 1.647-22.32 6.375-33 11-11.17 4.833-23.67 10.278-35 16-16.5 8.333-47.333 26.917-64 35-11.531 5.593-25.333 11.25-36 13.5-9.132 1.926-28 0-28 0l-1-34.5s.229.024.67.066" style="fill:#fff" transform="matrix(1.22311 0 0 1.05987 -305.68342 75.67708)"/><path d="M-490.132 384.27h146.942l208.629 341.016h1.386V384.27h108.127V875h-141.396l-214.175-349.333h-1.386V875h-108.127z" style="fill:#fff;fill-rule:nonzero;stroke:#fff;stroke-width:13.92px" transform="matrix(.63432 0 0 .79334 790.0843 157.54144)"/><path d="M236.259 384.27h89.413L539.153 875H417.164l-42.28-103.968H184.275L143.381 875H24.164zm41.588 142.783L218.238 679.54h119.91z" style="fill:#fff;fill-opacity:0;fill-rule:nonzero" fill="none" transform="matrix(.63432 0 0 .79334 790.0843 157.54144)"/><path d="M909.28 511.804c-10.627-12.938-23.681-22.873-39.161-29.804s-33.385-10.397-53.717-10.397c-20.331 0-39.161 3.928-56.489 11.783-17.328 7.856-32.346 18.83-45.053 32.924-12.707 14.093-22.642 30.843-29.804 50.251-7.163 19.407-10.744 40.432-10.744 63.074 0 23.104 3.581 44.244 10.744 63.421 7.162 19.176 16.981 35.811 29.457 49.904 12.476 14.094 27.147 25.068 44.013 32.924 16.866 7.855 35.003 11.783 54.411 11.783 22.179 0 41.818-4.621 58.915-13.863 17.097-9.241 31.19-22.18 42.28-38.815l90.108 67.233c-20.796 29.111-47.134 50.598-79.018 64.461-31.883 13.862-64.691 20.793-98.423 20.793-38.353 0-73.702-6.007-106.048-18.021-32.345-12.014-60.301-29.227-83.867-51.638-23.567-22.41-41.934-49.558-55.104-81.441-13.169-31.884-19.754-67.464-19.754-106.741s6.585-74.857 19.754-106.741c13.17-31.883 31.537-59.031 55.104-81.442 23.566-22.411 51.522-39.623 83.867-51.637 32.346-12.014 67.695-18.021 106.048-18.021 13.862 0 28.302 1.27 43.32 3.812 15.018 2.541 29.804 6.584 44.36 12.129 14.555 5.545 28.533 12.939 41.934 22.18q20.1 13.863 36.042 33.963zM1384.07 511.804c-10.63-12.938-23.68-22.873-39.16-29.804s-33.39-10.397-53.72-10.397-39.16 3.928-56.49 11.783c-17.33 7.856-32.34 18.83-45.05 32.924-12.71 14.093-22.64 30.843-29.81 50.251-7.16 19.407-10.74 40.432-10.74 63.074 0 23.104 3.58 44.244 10.74 63.421 7.17 19.176 16.99 35.811 29.46 49.904 12.48 14.094 27.15 25.068 44.02 32.924 16.86 7.855 35 11.783 54.41 11.783 22.17 0 41.81-4.621 58.91-13.863 17.1-9.241 31.19-22.18 42.28-38.815l90.11 67.233q-31.2 43.6665-79.02 64.461c-31.88 13.862-64.69 20.793-98.42 20.793-38.35 0-73.71-6.007-106.05-18.021-32.35-12.014-60.3-29.227-83.87-51.638-23.56-22.41-41.93-49.558-55.1-81.441-13.17-31.884-19.75-67.464-19.75-106.741s6.58-74.857 19.75-106.741c13.17-31.883 31.54-59.031 55.1-81.442 23.57-22.411 51.52-39.623 83.87-51.637 32.34-12.014 67.7-18.021 106.05-18.021 13.86 0 28.3 1.27 43.32 3.812 15.01 2.541 29.8 6.584 44.36 12.129 14.55 5.545 28.53 12.939 41.93 22.18 13.4 9.242 25.42 20.563 36.04 33.963z" style="fill:#fff;fill-rule:nonzero;stroke:#fff;stroke-width:13.92px" transform="matrix(.63432 0 0 .79334 790.0843 157.54144)"/><path d="M2035.5 940c39.78 3.031 118 20 118 20H1128.01s79.36-28.406 120.89-32c41.56-3.596 89.11 19.735 129.47 19.422 38.11-.296 74.57-21.707 112.68-21.302 48.22.513 121.02 13.983 175.63 15.379 50.72 1.296 101.31-6.799 152.04-7.006 61.47-.249 160.98 1.256 216.78 5.507" style="fill:#fff" transform="matrix(.82935 0 0 1 367.496 0)"/><path d="M2035.5 940c39.78 3.031 118 20 118 20H1128.01s79.36-28.406 120.89-32c41.56-3.596 89.11 19.735 129.47 19.422 38.11-.296 74.57-21.707 112.68-21.302 48.22.513 121.02 13.983 175.63 15.379 50.72 1.296 101.31-6.799 152.04-7.006 61.47-.249 160.98 1.256 216.78 5.507" style="fill:#fff" transform="matrix(-.82935 0 0 1 1786 0)"/></svg>