<svg viewBox="0 0 2120 456" xmlns="http://www.w3.org/2000/svg" xml:space="preserve" style="fill-rule:evenodd;clip-rule:evenodd;stroke-linejoin:round;stroke-miterlimit:2"><path d="M0-1.8a1.73 1.73 0 1 1 0 3.46A1.73 1.73 0 0 1 0-1.8m-8.96 3.63C-3.92 7.5-.48 8.38 4 8.38c1.04 4.1 7.97 4.09 9.96 2.85-.08-.76-1.66-1-2.17-2.84C18.6 7 31.23 13.62 27.09 20.75c-4.15 5.31-16.56 1.23-23.14-3.55a4.7 4.7 0 0 0-.55.4c2.5 6.32 5.86 8.31-2.39 12.45v.52c12.76 2.65 32.93-1.83 34.8-13.98.61-6.11-1.96-13.85-10.91-18.78-3.07-2.23-6.93-5.85 4.17-7.74 2.56-.36 3.85-1.6 1.34-2.71-13.15-5.77 9.76-7.21 9.98-9.01.35-1.73-7.33-3.43-2.19-5.12 14.52-3.24 26.68-2.43 29.05-2.59v-5.66l-62.18.05S4.97-11.17 5-6.4c-6.13.44-12.12 2.2-15.18 5.04l1.22 3.2Z" style="fill:#0079c1;fill-rule:nonzero" transform="translate(84.38 185.73) scale(4.16667)"/><path d="M0-54.84c-.9 1.35 5.53 2.98 5.24 4.87-.3 1.78-10.35 3.04-10.78 5.1-.57 2.52 11.65 5.78 11.56 8.51-.03 1.12.05 1.87-7.3 3.76-2.78.79-2.99 2.04-1.2 3.47 5 3.38 23.88 18.6 7.37 27.92-6.4 2.17 15.3 4.01 16.05-.86.29-4.84-.23-55.57-.23-55.57-8.49.03-19.48 1.06-20.71 2.8" style="fill:#0079c1;fill-rule:nonzero" transform="translate(278.43 316.15) scale(4.16667)"/><path d="M0-.07A7 7 0 0 0 1.73.1c2.52 0 4.05-1.23 4.05-3.46 0-2.14-1.5-3.17-3.81-3.17-.91 0-1.61.07-1.97.17v6.29Zm-2.09-7.8c1.01-.17 2.33-.32 4.01-.32 2.06 0 3.58.48 4.54 1.35a4.35 4.35 0 0 1 1.41 3.38c0 1.47-.43 2.62-1.25 3.46-1.1 1.18-2.9 1.78-4.94 1.78A7.2 7.2 0 0 1 0 1.63v6.48h-2.09V-7.87Z" style="fill:#0079c1;fill-rule:nonzero" transform="translate(1423.68 392.37) scale(4.16667)"/><path d="m0 2.74-1.58-4.66c-.36-1.06-.6-2.02-.84-2.95h-.05c-.24.96-.5 1.94-.82 2.92l-1.58 4.69H0Zm-5.3 1.63-1.68 5.09h-2.16l5.5-16.18h2.51L4.4 9.46H2.16L.43 4.36H-5.3Z" style="fill:#0079c1;fill-rule:nonzero" transform="translate(1497.78 386.76) scale(4.16667)"/><path d="M0-.89h2.14c2.23 0 3.64-1.22 3.64-3.07 0-2.09-1.5-3-3.72-3.03-1 0-1.72.1-2.06.2v5.9Zm-2.09-7.37c1.06-.21 2.57-.33 4.01-.33 2.23 0 3.67.4 4.68 1.32A4.03 4.03 0 0 1 7.87-4.2 4.25 4.25 0 0 1 4.83-.07V0C6.07.43 6.82 1.58 7.2 3.26c.53 2.26.91 3.82 1.25 4.45H6.29c-.27-.49-.63-1.85-1.08-3.87C4.73 1.61 3.86.77 1.97.7H0v7h-2.09V-8.26Z" style="fill:#0079c1;fill-rule:nonzero" transform="translate(1539.68 394.06) scale(4.16667)"/><path d="M0-12.63h-4.92v-1.77H7.06v1.78H2.1v14.4H0v-14.4Z" style="fill:#0079c1;fill-rule:nonzero" transform="translate(1603.48 418.77) scale(4.16667)"/><path d="M0 16.18V0h2.28l5.19 8.19c1.2 1.9 2.13 3.6 2.9 5.25l.05-.02c-.2-2.16-.24-4.13-.24-6.65V0h1.96v16.18h-2.1L4.9 7.97a51.52 51.52 0 0 1-3.03-5.4l-.07.02c.12 2.04.17 3.99.17 6.68v6.9H0Z" style="fill:#0079c1;fill-rule:nonzero" transform="translate(1645.38 358.76) scale(4.16667)"/><path d="M0 1h-6.29v5.84H.72V8.6h-9.1V-7.59H.36v1.76H-6.3v5.11H0v1.73Z" style="fill:#0079c1;fill-rule:nonzero" transform="translate(1751.08 390.36) scale(4.16667)"/><path d="M0-.89h2.14c2.23 0 3.65-1.22 3.65-3.07 0-2.09-1.52-3-3.73-3.03-1 0-1.72.1-2.06.2v5.9Zm-2.09-7.37c1.06-.21 2.57-.33 4.01-.33 2.23 0 3.67.4 4.68 1.32A4.03 4.03 0 0 1 7.87-4.2 4.25 4.25 0 0 1 4.82-.07V0c1.25.43 2 1.58 2.38 3.26.53 2.26.91 3.82 1.25 4.45H6.29c-.27-.49-.63-1.85-1.08-3.87C4.73 1.61 3.86.77 1.97.7H0v7h-2.09V-8.26Z" style="fill:#0079c1;fill-rule:nonzero" transform="translate(1779.08 394.06) scale(4.16667)"/><path d="M0 11.09a7.4 7.4 0 0 0 3.74 1.05c2.14 0 3.39-1.12 3.39-2.76 0-1.5-.87-2.37-3.05-3.21-2.64-.94-4.27-2.3-4.27-4.59C-.2-.94 1.9-2.8 5.04-2.8c1.66 0 2.86.39 3.58.8l-.58 1.7a6.44 6.44 0 0 0-3.07-.77c-2.21 0-3.05 1.32-3.05 2.42 0 1.52.98 2.26 3.22 3.12 2.73 1.06 4.13 2.38 4.13 4.76 0 2.5-1.85 4.68-5.67 4.68a8.35 8.35 0 0 1-4.13-1.06L0 11.1Z" style="fill:#0079c1;fill-rule:nonzero" transform="translate(1827.98 369.36) scale(4.16667)"/><path d="M0-16.18v6.77h7.83v-6.77h2.1V0h-2.1v-7.58H0V0h-2.09v-16.18H0Z" style="fill:#0079c1;fill-rule:nonzero" transform="translate(1892.17 426.17) scale(4.16667)"/><path style="fill:#0079c1" d="M499.12 23.96h2.09v16.18h-2.09z" transform="matrix(-4.16667 0 0 4.16667 4042.05 258.93)"/><path d="M0-.07A7 7 0 0 0 1.73.1c2.52 0 4.05-1.23 4.05-3.46 0-2.14-1.5-3.17-3.81-3.17-.91 0-1.61.07-1.97.17v6.29Zm-2.09-7.8c1.01-.17 2.33-.32 4.01-.32 2.06 0 3.58.48 4.54 1.35a4.35 4.35 0 0 1 1.41 3.38c0 1.47-.43 2.62-1.25 3.46-1.1 1.18-2.9 1.78-4.94 1.78A7.2 7.2 0 0 1 0 1.63v6.48h-2.09V-7.87Z" style="fill:#0079c1;fill-rule:nonzero" transform="translate(1991.28 392.37) scale(4.16667)"/><path d="M0 16.18V0h2.28l5.18 8.19c1.2 1.9 2.14 3.6 2.9 5.25l.06-.02c-.2-2.16-.24-4.13-.24-6.65V0h1.96v16.18h-2.1L4.9 7.97a51.34 51.34 0 0 1-3.03-5.4l-.07.02c.12 2.04.17 3.99.17 6.68v6.9H0Z" style="fill:#0079c1;fill-rule:nonzero" transform="translate(402.43 40.7) scale(4.16667)"/><path d="m0 2.74-1.58-4.66c-.36-1.06-.6-2.02-.84-2.95h-.05c-.24.96-.5 1.94-.82 2.92l-1.58 4.69H0Zm-5.3 1.63-1.68 5.09h-2.16l5.5-16.18h2.51L4.4 9.46H2.16L.43 4.36H-5.3Z" style="fill:#0079c1;fill-rule:nonzero" transform="translate(506.23 68.71) scale(4.16667)"/><path d="M0-12.63h-4.92v-1.77H7.06v1.78H2.1v14.4H0v-14.4Z" style="fill:#0079c1;fill-rule:nonzero" transform="translate(544.53 100.72) scale(4.16667)"/><path style="fill:#0079c1" d="M170.98 100.29h2.09v16.18h-2.09z" transform="matrix(-4.16667 0 0 4.16667 1307.56 -377.18)"/><path d="M0 .2c0 3.45 1.87 6.54 5.16 6.54 3.31 0 5.19-3.04 5.19-6.72 0-3.21-1.69-6.57-5.17-6.57C1.73-6.55 0-3.36 0 .19m12.55-.26c0 5.57-3.38 8.52-7.5 8.52-4.28 0-7.28-3.31-7.28-8.21 0-5.14 3.19-8.5 7.51-8.5 4.42 0 7.27 3.39 7.27 8.19" style="fill:#0079c1;fill-rule:nonzero" transform="translate(620.63 74.02) scale(4.16667)"/><path d="M0 16.18V0h2.28l5.18 8.19c1.2 1.9 2.14 3.6 2.9 5.25l.06-.02c-.2-2.16-.24-4.13-.24-6.65V0h1.96v16.18h-2.1L4.9 7.97a51.34 51.34 0 0 1-3.03-5.4l-.07.02c.12 2.04.17 3.99.17 6.68v6.9H0Z" style="fill:#0079c1;fill-rule:nonzero" transform="translate(689.23 40.7) scale(4.16667)"/><path d="m0 2.74-1.58-4.66c-.36-1.06-.6-2.02-.84-2.95h-.05c-.24.96-.5 1.94-.82 2.92l-1.58 4.69H0Zm-5.3 1.63-1.68 5.09h-2.16l5.5-16.18h2.51L4.4 9.46H2.16L.43 4.36H-5.3Z" style="fill:#0079c1;fill-rule:nonzero" transform="translate(793.03 68.71) scale(4.16667)"/><path d="M0-16.18h2.09v14.43H9V0H0v-16.18Z" style="fill:#0079c1;fill-rule:nonzero" transform="translate(826.23 108.12) scale(4.16667)"/><path d="M0-45.83h28.01v8.5h-17.6v10.47h16.45v8.43H10.4V0H0v-45.83Z" style="fill:#004990;fill-rule:nonzero" transform="translate(399.64 317.44) scale(4.16667)"/><path style="fill:#004990" d="M161.99 50.05h10.4v45.83h-10.4z" transform="matrix(-4.16667 0 0 4.16667 1267.26 -82.06)"/><path d="M0 24.48a26.44 26.44 0 0 0 11.5 2.85c4.75 0 7.27-1.97 7.27-4.96 0-2.86-2.18-4.49-7.69-6.46C3.47 13.26-1.5 9.04-1.5 2.38c0-7.82 6.53-13.8 17.34-13.8 5.17 0 8.98 1.08 11.7 2.3L25.23-.74a21.8 21.8 0 0 0-9.6-2.17c-4.48 0-6.66 2.04-6.66 4.42 0 2.92 2.59 4.21 8.5 6.46 8.1 2.99 11.9 7.2 11.9 13.66 0 7.68-5.91 14.28-18.5 14.28-5.23 0-10.4-1.43-12.98-2.86L0 24.48Z" style="fill:#004990;fill-rule:nonzero" transform="translate(631.12 170.98) scale(4.16667)"/><path d="M0-45.83v17.61h17.07v-17.6H27.4V0H17.07v-19.17H0V0h-10.4v-45.83H0Z" style="fill:#004990;fill-rule:nonzero" transform="translate(820.66 317.44) scale(4.16667)"/><path d="M0-45.83v17.61h17.07v-17.6H27.4V0H17.07v-19.17H0V0h-10.4v-45.83H0Z" style="fill:#004990;fill-rule:nonzero" transform="translate(1066.03 317.44) scale(4.16667)"/><path d="m0 6.8-2.85-9.72c-.82-2.72-1.64-6.12-2.32-8.84h-.13c-.68 2.72-1.36 6.18-2.11 8.83l-2.72 9.73H0Zm-11.63 7.75-3.26 11.76h-10.74l14-45.82h13.6L16.18 26.3H5.03L1.5 14.55h-13.13Z" style="fill:#004990;fill-rule:nonzero" transform="translate(1303.73 207.8) scale(4.16667)"/><path d="M0 31c1.02.14 2.24.14 4.01.14 4.7 0 8.84-1.83 8.84-6.6 0-4.62-4.15-6.45-9.31-6.45H0V31Zm0-20.32h3.4c5.44 0 8.36-2.25 8.36-5.65 0-3.47-2.65-5.3-7.34-5.3C2.18-.27.88-.14 0 0v10.68ZM-10.27-6.87c2.72-.54 8.23-.95 13.4-.95 6.32 0 10.2.61 13.53 2.58a9.97 9.97 0 0 1 5.5 8.98c0 4.08-2.38 7.89-7.54 9.8v.13c5.23 1.43 9.1 5.37 9.1 11.28 0 4.15-1.9 7.42-4.75 9.73-3.33 2.65-8.9 4.14-18.02 4.14-5.1 0-8.9-.34-11.22-.67V-6.88Z" style="fill:#004990;fill-rule:nonzero" transform="translate(1434.64 157.66) scale(4.16667)"/><path style="fill:#004990" d="M405.36 50.05h10.4v45.83h-10.4z" transform="matrix(-4.16667 0 0 4.16667 3295.33 -82.06)"/><path d="M0-28.42h-12.3v-8.7H22.9v8.7h-12.5V8.7H0v-37.12Z" style="fill:#004990;fill-rule:nonzero" transform="translate(1684.25 281.18) scale(4.16667)"/><path d="m0 6.8-2.85-9.72c-.82-2.72-1.64-6.12-2.32-8.84h-.13c-.68 2.72-1.36 6.18-2.11 8.83l-2.72 9.73H0Zm-11.63 7.75-3.26 11.76h-10.74l14-45.82h13.6L16.18 26.3H5.03L1.5 14.55h-13.13Z" style="fill:#004990;fill-rule:nonzero" transform="translate(1871.24 207.8) scale(4.16667)"/><path d="M0-28.42h-12.3v-8.7H22.9v8.7h-12.5V8.7H0v-37.12Z" style="fill:#004990;fill-rule:nonzero" transform="translate(1977.5 281.18) scale(4.16667)"/></svg>