<svg viewBox="0 0 210 67" xmlns="http://www.w3.org/2000/svg" xml:space="preserve" style="fill-rule:evenodd;clip-rule:evenodd;stroke-linejoin:round;stroke-miterlimit:2"><path d="M8.987 21.243c.718-.136 1.436-.408 2.212-.447.777-.038 1.437.194 2.135.369.796.214 1.476.68 2.31.563.777-.116 1.495-.272 2.31-.349 1.727-.156 3.241 0 4.911.446.737.194 1.475.563 2.154 1.009.66.427 1.281.835 1.805 1.437.563.679 1.087 1.106.951 2.62-.194 0-.602-.136-.834-.136.135 0 .465.291.64.388-.369.447-1.786.33-2.213.272-1.184-.136-2.601-.175-3.357-.252-.796-.078-.796.446-1.514.912-.719.466-1.049.854-1.689.738-.019-.175.039-.408.039-.563.019-.253.097-.408.155-.68-1.378.194-2.523.136-3.63.951-.155.117-.524.369-.815.622-.272.232-.291.349-.427.659-.174.408-.873 1.476-1.378 1.34-.116-.524-.039-1.087-.699-.388-.504.543-.427.465-.233.873.156.349-.097 1.669-.271 1.592-.524-.195-.544.019-.699.524-.136.427-.311.757.155 1.028.427.272 1.281.524 1.728.796.718.427 2.387 1.339 1.378 1.98-1.029.64-2.232 1.087-3.048 1.766-.756.641-1.63 1.747-2.135 2.62-.368.622-.892 0-1.125-1.125-.078-.388-.059-1.068-.039-1.475.019-.408.019-.641.039-1.029.019-.408.019-.971.058-1.378.019-.466.116-.912.155-1.378.097-1.534-.349-1.65-.582-1.999-.272.232-.679.388-1.048.446-.272-.776.446-1.456.601-2.038.098-.369.078-.854.078-1.281 0-.505-.019-1.087.078-1.592.097-.563.136-.757.252-1.222.117-.486.388-1.049.699-1.437.64-.854.951-1.106 1.572-2.135.155-.582-.641-2.97-.679-3.047M40.236 38.925c-.097-.349-.077-.466-.116-.835.737-.427.893-1.048 1.164-1.514.35-.582.718-1.261 1.204-1.727.951-.873 1.941-2.737 1.805-3.261-.097-.349-.524.854-.718 1.204-.175.33-.913 1.3-1.378 1.086-.466-.232-.078-3.202-.272-3.299-.311-.155-.524 2.329-.544 2.95-.019.524.078 1.204-.252 1.631-.291.407-.602.873-1.048 1.125-.097-.66.019-1.552.058-2.232.02-.388.136-.602.214-.951.077-.407.349-.873.446-1.281.097-.369.233-.796.311-1.145.058-.349-.039-.815-.078-1.165-.155-1.514-.621-3.241-.738-2.29 0 0-.135.194-.097.427.524 2.484.272 2.892-.33 4.251-.427.951-1.164-.583-1.455-1.087-.233-.408-.389-.815-.524-1.281-.097-.35-.214-.563-.311-.913-.272-1.009-.311-.388-.291-.601 0 .077-.078.815-.02 1.145.059.408.195.99.35 1.397.31.816.505 1.301.97 2.058.427.679.641 1.261.427 1.999-.388 1.398-.349 1.495-1.203 1.844-1.359.543-2.252-1.009-2.349-1.184-.174-.311-.931-2.465-1.358-2.057.33.388.252.698.388 1.164.097.33.31.718.388 1.048.039.175.311 1.01-.582.097-.155-.155-.582-1.067-.699-1.32-.388-.873-.388-1.067-1.029-1.863-.233-.291-1.436-1.98-1.844-1.844l-.077.02c.019.31.485.873.66 1.164.31.485.563.912.854 1.378.427.641 1.436 2.252 1.3 3.067-.931-.175-1.844-1.068-2.581-1.611-.505-.388-.738-.621-1.087-.99-.233-.252-.796-1.106-1.107-.99.524 1.941 2.718 3.242 4.465 4.27-.621.039-2-.815-2.504-.504.97 1.028 2.756 1.242 4.095 1.611.524.136 1.378.407 2.135.64.447.136.621 1.029.621 1.495-.291-.078-.33-.641-.757-.66-.058.31.02.485.039.602.02.213 0 .349 0 .504.02.524.02.505-.64.951-.699.466-1.398.757-2.213 1.359-.349.252-.446.563-.854.796-.427.252-.757.446-1.126.66-.66.388-1.65.737-2.115 1.242-.369.407-.602 1.688-.233 2.193.601.815 2.096.524 2.931.485 1.339-.058 2.309-.194 2.911-.097.951.175 1.456.738 1.999 1.456.272.349.466.563.738 1.009.213.369.388.699.64 1.068.544.757 1.029 1.456 2.407 1.029-.155-.136-.524-.544-.543-.738-.059-.349-.195-.621.135-.776.641-.272.544-.874.641-1.573.039-.252.291-.815.446-1.028.175-.233.544-.175.699-.427.33-.505.544-1.437.117-1.767.213-.698 2.115-.97 1.572-1.436-.272-.233-.971-.466-1.398-.563-.504-.097-.64-.136-1.067-.349-.583-.311-.641-.563-.408-1.145.155-.408.233-.699.35-1.145.213-.835.465-1.417.097-2.349-.117-.291-.369-.776-.66-.893-.292-.097-.621.136-.699.621-.175 1.456-.252.253-.33.058M3.863 12.043c.601.621 1.436.951 2.465.951 1.009 0 1.824-.311 2.445-.951.602-.641.912-1.514.912-2.621 0-1.125-.31-2.018-.912-2.639-.621-.641-1.436-.951-2.445-.951-.563 0-1.068.097-1.495.271-.33.136-.621.35-.893.621-.272.272-.485.602-.64.951-.214.486-.311 1.068-.311 1.786-.039 1.087.272 1.941.874 2.582ZM4.93 7.598c.349-.388.815-.602 1.398-.602.582 0 1.048.194 1.397.582.349.389.524.99.524 1.786s-.175 1.417-.543 1.805c-.369.427-.835.621-1.398.621s-1.009-.194-1.378-.601c-.369-.408-.543-1.01-.543-1.786 0-.815.174-1.398.543-1.805Zm7.24 5.299V9.966h.291c.33 0 .563.019.699.077.155.059.291.156.427.292.136.135.388.485.737 1.028l1.01 1.514h1.669l-.854-1.358c-.33-.544-.602-.913-.796-1.126-.194-.214-.446-.408-.757-.582.602-.097 1.068-.311 1.378-.641.311-.33.466-.776.466-1.281 0-.408-.097-.776-.311-1.087-.194-.31-.465-.543-.815-.66-.33-.116-.873-.194-1.611-.194h-2.931v6.949h1.398Zm0-5.784h1.087c.563 0 .912 0 1.028.019.233.039.408.136.525.272.116.136.194.33.194.563 0 .213-.039.388-.136.524s-.233.233-.388.291c-.175.058-.583.077-1.262.077h-1.029V7.113h-.019Zm10.889 5.764v-1.184h-3.882V9.811h3.474V8.627h-3.474V7.093h3.746V5.909h-5.144v6.949h5.28v.019Zm6.017-2.562v.893c-.214.155-.466.311-.757.408-.292.116-.583.174-.874.174-.601 0-1.067-.213-1.436-.621-.369-.407-.544-1.028-.544-1.844 0-.757.175-1.339.544-1.727.369-.388.854-.582 1.456-.582.407 0 .737.097 1.009.291.272.194.446.466.543.815l1.398-.252c-.136-.641-.447-1.126-.932-1.495-.485-.369-1.164-.543-2.018-.543-.66 0-1.223.116-1.67.349-.582.291-1.028.738-1.319 1.3-.311.563-.447 1.204-.447 1.922 0 .66.136 1.281.408 1.844.271.563.679 1.009 1.223 1.3.543.311 1.164.466 1.902.466.563 0 1.125-.116 1.688-.33.563-.213.99-.466 1.281-.757V9.151h-3.028v1.184h1.573v-.02Zm3.338 1.728c.602.621 1.436.951 2.465.951 1.009 0 1.825-.311 2.446-.951.601-.641.912-1.514.912-2.621 0-1.125-.311-2.018-.912-2.639-.621-.641-1.437-.951-2.446-.951-.563 0-1.067.097-1.494.271-.33.136-.622.35-.893.621-.272.272-.486.602-.641.951-.213.486-.31 1.068-.31 1.786-.039 1.087.271 1.941.873 2.582Zm1.068-4.445c.349-.388.815-.602 1.397-.602.582 0 1.048.194 1.398.582.349.389.524.99.524 1.786s-.175 1.417-.544 1.805c-.349.408-.815.602-1.378.602s-1.029-.194-1.378-.602c-.369-.407-.543-1.009-.543-1.785-.02-.796.155-1.379.524-1.786Zm7.162 5.279V8.335l2.795 4.542h1.397V5.929h-1.3v4.639l-2.834-4.639h-1.359v6.948h1.301ZM4.231 61.518V59.48H6.25v-.815H4.231v-1.146H6.56v-.815H3.261v4.814h.97Zm3.746-3.96v-.854h-.912v.854h.912Zm0 3.96v-3.494h-.912v3.494h.912Zm.893-.214c.272.194.66.291 1.126.291.524 0 .912-.116 1.184-.349.272-.233.408-.505.408-.815 0-.291-.098-.524-.292-.679-.194-.156-.543-.292-1.028-.408-.486-.117-.777-.194-.854-.252-.059-.039-.097-.097-.097-.175 0-.078.038-.136.097-.194.097-.058.271-.097.524-.097.194 0 .349.039.446.116.097.078.175.175.214.311l.873-.156c-.097-.31-.252-.543-.485-.698-.233-.156-.582-.233-1.068-.233-.504 0-.873.097-1.106.31-.233.214-.349.466-.349.757 0 .33.135.602.407.777.194.136.68.291 1.417.446.155.039.272.078.311.117.038.038.058.097.058.174 0 .097-.039.175-.117.253-.116.077-.291.136-.543.136-.214 0-.388-.039-.505-.136-.116-.097-.194-.233-.233-.408l-.931.136c.097.33.271.582.543.776Zm3.242-4.6v4.814h.912v-1.747c0-.291.019-.524.077-.66.059-.155.136-.272.272-.33.117-.078.253-.116.408-.116.136 0 .252.019.33.077.097.058.155.136.194.233.039.097.058.33.058.699v1.844h.912V59.48c0-.311-.019-.544-.038-.699-.039-.155-.097-.291-.175-.408-.078-.116-.214-.232-.388-.31-.175-.078-.369-.117-.583-.117-.407 0-.776.175-1.067.524v-1.766h-.912Zm9.336 3.999c-.156-.117-.292-.214-.408-.311.078-.097.136-.213.194-.349.058-.136.136-.35.214-.641l-.835-.194c-.058.233-.116.408-.194.544l-.66-.893c.349-.214.582-.427.699-.602.116-.175.174-.369.174-.563 0-.31-.116-.563-.349-.776-.233-.214-.563-.311-.97-.311-.427 0-.757.097-.99.311-.233.194-.35.446-.35.737 0 .156.039.33.117.505.077.175.213.369.369.563-.369.174-.641.388-.816.64-.194.253-.271.524-.271.835 0 .349.116.64.349.893.311.33.757.504 1.359.504.31 0 .563-.038.776-.116.214-.078.427-.214.621-.388.252.233.524.407.796.543l.563-.698c-.097-.039-.233-.117-.388-.233Zm-2.388-2.66c-.136-.155-.213-.291-.213-.407 0-.097.039-.175.116-.252.078-.078.194-.117.35-.117.155 0 .271.039.368.117.097.077.136.174.136.31s-.097.272-.272.427l-.252.194-.233-.272Zm.815 2.427c-.155.136-.31.233-.427.291-.135.058-.271.077-.407.077-.214 0-.388-.058-.524-.194-.136-.116-.194-.291-.194-.485 0-.155.058-.31.155-.466.097-.155.272-.271.466-.388l.931 1.165Zm5.571 1.048.951-3.591.951 3.591h1.048l1.165-4.814h-.971l-.737 3.358-.835-3.358h-1.164l-.874 3.3-.718-3.3h-1.009l1.145 4.814h1.048Zm5.182-3.96v-.854h-.912v.854h.912Zm0 3.96v-3.494h-.912v3.494h.912Zm1.592 0v-4.814h-.912v4.814h.912Zm3.901-4.814h-.931v1.728c-.291-.33-.621-.486-1.01-.486-.427 0-.776.156-1.048.466-.272.311-.407.757-.407 1.34 0 .582.135 1.028.427 1.358.291.33.621.485 1.028.485.194 0 .389-.038.583-.155.194-.097.368-.252.504-.446v.504h.854v-4.794Zm-2.251 2.213c.155-.175.33-.252.543-.252.233 0 .408.097.563.271.136.175.214.466.214.874 0 .369-.078.621-.214.815-.155.175-.33.272-.543.272-.272 0-.466-.117-.621-.369-.097-.175-.156-.427-.156-.815-.019-.369.059-.621.214-.796Zm3.765 2.601v-4.814h-.912v4.814h.912Zm1.592-3.96v-.854h-.912v.854h.912Zm0 3.96v-3.494h-.912v3.494h.912Zm.272-2.776h.524v2.756h.912v-2.756h.699v-.718h-.699v-.252c0-.175.039-.291.097-.369.058-.058.155-.097.291-.097.136 0 .272.019.427.058l.117-.64c-.253-.078-.505-.117-.777-.117-.252 0-.466.039-.64.136-.175.097-.291.214-.35.349-.058.136-.097.369-.097.66v.253h-.504v.737Zm4.173 2.038c-.097.078-.214.117-.369.117-.214 0-.388-.078-.524-.233-.136-.156-.214-.369-.233-.641h2.31c.019-.698-.136-1.223-.427-1.572-.292-.349-.719-.524-1.223-.524-.466 0-.835.155-1.145.485-.311.33-.447.777-.447 1.359 0 .485.117.893.35 1.203.291.389.737.602 1.339.602.388 0 .699-.097.951-.272.252-.174.446-.427.563-.776l-.912-.155c-.059.213-.136.33-.233.407Zm-1.107-1.32c0-.252.059-.446.194-.601.136-.156.292-.214.505-.214.194 0 .349.078.485.214s.194.349.214.601h-1.398ZM46.467 61.052c0 .64-.253 1.203-.68 1.63-.427.427-.99.68-1.63.68v1.533c2.116 0 3.843-1.727 3.843-3.843h-1.533Zm-2.31 2.31H3.843v1.533h40.314v-1.533Zm0 1.552v-.776.776ZM3.843 63.362c-.64 0-1.203-.253-1.63-.68-.427-.427-.68-.99-.68-1.63H0c0 2.116 1.727 3.843 3.843 3.843v-1.533Zm0 1.552v-.776.776Zm-2.31-3.862V5.929H0v55.123h1.533Zm-1.533 0h.776H0ZM1.533 5.929c0-.641.253-1.204.68-1.631.427-.427.99-.679 1.63-.679V2.086C1.727 2.086 0 3.813 0 5.929h1.533ZM0 5.929h.776H0Zm3.843-2.31h40.314V2.086H3.843v1.533Zm0-1.533v.776-.776Zm40.314 1.533c.64 0 1.203.252 1.63.679.427.427.68.99.68 1.631H48c0-2.116-1.727-3.843-3.843-3.843v1.533Zm0-1.533v.776-.776Zm2.31 3.843v55.123H48V5.929h-1.533Zm1.533 0h-.776H48Zm0 55.123h-.776H48Z" style="fill:#614533;fill-rule:nonzero" transform="translate(2)"/><path style="fill:#614533;fill-rule:nonzero" d="M.66 14.876h46.564v.699H.66zM.33 54.123h46.564v.679H.33z" transform="translate(2)"/><path d="M47.01 14.741.214 54.744l.446.524 46.797-40.003-.447-.524Z" style="fill:#614533;fill-rule:nonzero" transform="translate(2)"/><path d="M59.695 53.464c0-1.166.175-2.145.524-2.937.26-.583.616-1.107 1.066-1.57.451-.464.944-.808 1.481-1.032.713-.302 1.536-.453 2.468-.453 1.688 0 3.038.524 4.051 1.571 1.013 1.046 1.52 2.502 1.52 4.367 0 1.849-.503 3.295-1.508 4.34-1.005 1.044-2.349 1.566-4.031 1.566-1.703 0-3.058-.52-4.063-1.559s-1.508-2.47-1.508-4.293Zm2.383-.078c0 1.297.3 2.28.899 2.95.599.669 1.359 1.003 2.281 1.003.922 0 1.678-.332 2.269-.996.591-.664.887-1.66.887-2.988 0-1.312-.288-2.292-.863-2.937-.576-.646-1.34-.969-2.293-.969-.953 0-1.722.327-2.305.98-.583.654-.875 1.64-.875 2.957ZM74.695 59.121H72.5v-8.297h2.039v1.18c.349-.558.663-.925.941-1.102.279-.177.596-.266.95-.266.5 0 .981.138 1.445.414l-.68 1.914c-.369-.239-.713-.359-1.031-.359-.307 0-.568.085-.781.254-.214.169-.382.475-.504.918-.122.443-.184 1.37-.184 2.781v2.563ZM83.625 56.48l2.188.367c-.282.802-.726 1.413-1.333 1.832-.606.42-1.365.629-2.277.629-1.443 0-2.51-.471-3.203-1.414-.547-.755-.82-1.708-.82-2.859 0-1.375.359-2.452 1.078-3.231.719-.778 1.627-1.168 2.726-1.168 1.235 0 2.209.408 2.922 1.223.714.815 1.055 2.064 1.024 3.746h-5.5c.015.651.192 1.158.531 1.52.338.362.76.543 1.266.543.343 0 .632-.094.867-.282.234-.187.411-.489.531-.906Zm.125-2.219c-.016-.635-.18-1.118-.492-1.449-.313-.331-.693-.496-1.141-.496-.479 0-.875.174-1.187.523-.313.349-.466.823-.461 1.422h3.281ZM87.516 59.668l2.507.304c.042.292.138.492.29.602.208.156.536.234.984.234.573 0 1.002-.086 1.289-.258.193-.114.338-.299.437-.554.068-.183.102-.519.102-1.008v-1.211c-.656.896-1.484 1.344-2.484 1.344-1.115 0-1.998-.472-2.649-1.414-.51-.745-.765-1.672-.765-2.782 0-1.39.334-2.453 1.003-3.187.67-.734 1.502-1.102 2.497-1.102 1.026 0 1.872.451 2.539 1.352v-1.164h2.054v7.445c0 .979-.08 1.711-.242 2.195-.161.485-.388.865-.68 1.141-.291.276-.681.492-1.168.649-.487.156-1.102.234-1.847.234-1.406 0-2.404-.241-2.992-.723-.589-.482-.883-1.092-.883-1.832 0-.073.002-.161.008-.265Zm1.961-4.868c0 .881.17 1.525.511 1.934.341.409.762.613 1.262.613.536 0 .99-.209 1.359-.629.37-.419.555-1.04.555-1.863 0-.859-.177-1.497-.531-1.914-.354-.417-.802-.625-1.344-.625-.526 0-.96.204-1.301.613-.341.409-.511 1.033-.511 1.871ZM96.984 54.855c0-.729.18-1.435.539-2.117.36-.682.869-1.203 1.528-1.563.659-.359 1.394-.539 2.207-.539 1.255 0 2.284.408 3.086 1.223.802.815 1.203 1.845 1.203 3.09 0 1.255-.405 2.295-1.215 3.121-.81.825-1.829 1.238-3.059 1.238-.76 0-1.485-.172-2.175-.515-.69-.344-1.215-.848-1.575-1.512-.359-.664-.539-1.473-.539-2.426Zm2.25.117c0 .823.196 1.453.586 1.891.391.437.873.656 1.446.656s1.053-.219 1.441-.656c.388-.438.582-1.073.582-1.906 0-.813-.194-1.438-.582-1.875-.388-.438-.868-.657-1.441-.657-.573 0-1.055.219-1.446.657-.39.437-.586 1.067-.586 1.89ZM114.813 59.121h-2.196v-4.235c0-.896-.047-1.475-.14-1.738-.094-.263-.247-.467-.457-.613-.211-.146-.465-.219-.762-.219-.38 0-.722.104-1.024.313-.302.208-.509.484-.621.828-.112.343-.168.979-.168 1.906v3.758h-2.195v-8.297h2.039v1.219c.724-.938 1.635-1.407 2.734-1.407.485 0 .928.088 1.329.262.401.175.704.397.91.668.205.271.349.578.429.922.081.344.122.836.122 1.476v5.157ZM121.492 47.668h4.227c.953 0 1.679.072 2.179.218.672.198 1.248.55 1.727 1.055.479.505.844 1.124 1.094 1.855.25.732.375 1.635.375 2.708 0 .942-.117 1.755-.352 2.437-.286.833-.695 1.508-1.226 2.023-.401.391-.943.696-1.625.915-.511.161-1.193.242-2.047.242h-4.352V47.668Zm2.313 1.937v7.586h1.726c.646 0 1.112-.036 1.399-.109.375-.094.686-.253.933-.477.248-.224.45-.592.606-1.105.156-.513.234-1.213.234-2.098 0-.885-.078-1.565-.234-2.039-.156-.474-.375-.844-.656-1.109-.282-.266-.639-.446-1.071-.54-.323-.072-.956-.109-1.898-.109h-1.039ZM137.844 56.48l2.187.367c-.281.802-.725 1.413-1.332 1.832-.607.42-1.366.629-2.277.629-1.443 0-2.511-.471-3.203-1.414-.547-.755-.821-1.708-.821-2.859 0-1.375.36-2.452 1.079-3.231.718-.778 1.627-1.168 2.726-1.168 1.235 0 2.208.408 2.922 1.223.714.815 1.055 2.064 1.023 3.746h-5.5c.016.651.193 1.158.532 1.52.338.362.76.543 1.265.543.344 0 .633-.094.868-.282.234-.187.411-.489.531-.906Zm.125-2.219c-.016-.635-.18-1.118-.492-1.449-.313-.331-.693-.496-1.141-.496-.479 0-.875.174-1.188.523-.312.349-.466.823-.46 1.422h3.281ZM141.875 50.824h2.047v1.219c.266-.417.625-.756 1.078-1.016.453-.26.956-.391 1.508-.391.963 0 1.781.378 2.453 1.133.672.755 1.008 1.807 1.008 3.156 0 1.386-.339 2.463-1.016 3.231-.677.768-1.497 1.152-2.461 1.152-.458 0-.874-.091-1.246-.273-.372-.183-.764-.495-1.176-.938v4.18h-2.195V50.824Zm2.172 4.008c0 .932.185 1.621.555 2.066.369.445.82.668 1.351.668.511 0 .935-.204 1.274-.613.338-.409.507-1.08.507-2.012 0-.87-.174-1.516-.523-1.937-.349-.422-.781-.633-1.297-.633-.536 0-.982.207-1.336.621-.354.414-.531 1.027-.531 1.84ZM153.352 53.355l-1.993-.359c.224-.802.61-1.396 1.157-1.782.547-.385 1.359-.578 2.437-.578.979 0 1.708.116 2.188.348.479.232.816.526 1.011.883.196.357.293 1.012.293 1.965l-.023 2.562c0 .729.035 1.267.105 1.613.071.347.202.718.395 1.114h-2.172c-.057-.146-.128-.362-.211-.649-.036-.13-.062-.216-.078-.258-.375.365-.776.638-1.203.821-.427.182-.883.273-1.367.273-.855 0-1.528-.232-2.02-.695-.492-.464-.738-1.05-.738-1.758 0-.469.112-.887.336-1.254.224-.367.538-.648.941-.844.404-.195.986-.365 1.746-.511 1.026-.193 1.737-.373 2.133-.539v-.219c0-.422-.104-.723-.312-.902-.209-.18-.602-.27-1.18-.27-.391 0-.695.077-.914.23-.219.154-.396.424-.531.809Zm2.937 1.781c-.281.094-.726.206-1.336.336-.609.13-1.008.258-1.195.383-.287.203-.43.461-.43.774 0 .307.115.572.344.796.229.224.521.336.875.336.396 0 .773-.13 1.133-.39.265-.198.44-.44.523-.727.057-.187.086-.544.086-1.07v-.438ZM162.711 59.121h-2.195v-8.297h2.039v1.18c.349-.558.662-.925.941-1.102.279-.177.595-.266.949-.266.5 0 .982.138 1.446.414l-.68 1.914c-.37-.239-.714-.359-1.031-.359-.308 0-.568.085-.782.254-.213.169-.381.475-.503.918-.123.443-.184 1.37-.184 2.781v2.563ZM170.641 50.824v1.75h-1.5v3.344c0 .677.014 1.071.043 1.183.028.112.093.205.195.278.101.072.225.109.371.109.203 0 .497-.07.883-.211l.187 1.703c-.51.219-1.088.328-1.734.328-.396 0-.753-.066-1.07-.199-.318-.133-.551-.305-.7-.516-.148-.211-.251-.496-.308-.855-.047-.255-.07-.771-.07-1.547v-3.617h-1.008v-1.75h1.008v-1.649l2.203-1.281v2.93h1.5ZM172 50.824h2.023v1.133c.724-.881 1.586-1.321 2.586-1.321.532 0 .993.11 1.383.328.391.219.711.55.961.993.365-.443.758-.774 1.18-.993.422-.218.872-.328 1.351-.328.61 0 1.125.124 1.547.371.422.248.737.611.946 1.09.151.354.226.927.226 1.719v5.305h-2.195v-4.742c0-.823-.076-1.355-.227-1.594-.203-.313-.515-.469-.937-.469-.308 0-.597.094-.867.281-.271.188-.467.463-.586.824-.12.362-.18.934-.18 1.715v3.985h-2.195v-4.547c0-.807-.039-1.328-.118-1.563-.078-.234-.199-.409-.363-.523-.164-.115-.387-.172-.668-.172-.338 0-.643.091-.914.273-.271.183-.465.446-.582.79-.117.343-.176.914-.176 1.71v4.032H172v-8.297ZM191.195 56.48l2.188.367c-.281.802-.725 1.413-1.332 1.832-.607.42-1.366.629-2.278.629-1.442 0-2.51-.471-3.203-1.414-.547-.755-.82-1.708-.82-2.859 0-1.375.359-2.452 1.078-3.231.719-.778 1.628-1.168 2.727-1.168 1.234 0 2.208.408 2.922 1.223.713.815 1.054 2.064 1.023 3.746H188c.016.651.193 1.158.531 1.52.339.362.761.543 1.266.543.344 0 .633-.094.867-.282.234-.187.412-.489.531-.906Zm.125-2.219c-.015-.635-.179-1.118-.492-1.449-.312-.331-.693-.496-1.14-.496-.48 0-.875.174-1.188.523-.312.349-.466.823-.461 1.422h3.281ZM202.836 59.121h-2.195v-4.235c0-.896-.047-1.475-.141-1.738-.094-.263-.246-.467-.457-.613-.211-.146-.465-.219-.762-.219-.38 0-.721.104-1.023.313-.302.208-.509.484-.621.828-.112.343-.168.979-.168 1.906v3.758h-2.196v-8.297h2.04v1.219c.723-.938 1.635-1.407 2.734-1.407.484 0 .927.088 1.328.262.401.175.704.397.91.668.206.271.349.578.43.922.081.344.121.836.121 1.476v5.157ZM208.867 50.824v1.75h-1.5v3.344c0 .677.015 1.071.043 1.183.029.112.094.205.195.278.102.072.226.109.372.109.203 0 .497-.07.882-.211l.188 1.703c-.511.219-1.089.328-1.734.328-.396 0-.753-.066-1.071-.199-.318-.133-.551-.305-.699-.516-.148-.211-.251-.496-.309-.855-.046-.255-.07-.771-.07-1.547v-3.617h-1.008v-1.75h1.008v-1.649l2.203-1.281v2.93h1.5ZM59.641 71.379c0-.73.179-1.435.539-2.118.359-.682.868-1.203 1.527-1.562.659-.36 1.395-.539 2.207-.539 1.255 0 2.284.407 3.086 1.222.802.816 1.203 1.845 1.203 3.09 0 1.255-.405 2.296-1.215 3.121-.81.826-1.829 1.239-3.058 1.239-.761 0-1.486-.172-2.176-.516-.69-.344-1.215-.848-1.574-1.512-.36-.664-.539-1.472-.539-2.425Zm2.25.117c0 .823.195 1.453.586 1.89.39.438.872.657 1.445.657.573 0 1.053-.219 1.441-.657.388-.437.582-1.073.582-1.906 0-.812-.194-1.437-.582-1.875-.388-.437-.868-.656-1.441-.656-.573 0-1.055.219-1.445.656-.391.438-.586 1.068-.586 1.891ZM68.961 67.347h1.219v-.625c0-.698.074-1.218.222-1.562.149-.344.422-.624.821-.84.398-.216.902-.324 1.511-.324.625 0 1.237.093 1.836.281l-.297 1.531c-.349-.083-.684-.125-1.007-.125-.318 0-.546.074-.684.223-.138.148-.207.433-.207.855v.586h1.641v1.727h-1.641v6.57H70.18v-6.57h-1.219v-1.727ZM79.727 75.644V64.191h7.851v1.938h-5.539v2.71h4.781v1.938h-4.781v4.867h-2.312ZM89.469 66.222v-2.031h2.195v2.031h-2.195Zm0 9.422v-8.297h2.195v8.297h-2.195ZM93.141 73.277l2.203-.336c.094.427.284.751.57.973.287.221.688.332 1.203.332.568 0 .995-.104 1.281-.313.193-.146.29-.341.29-.586 0-.166-.053-.304-.157-.414-.109-.104-.354-.2-.734-.289-1.771-.39-2.893-.747-3.367-1.07-.657-.448-.985-1.07-.985-1.867 0-.719.284-1.323.852-1.813.568-.489 1.448-.734 2.641-.734 1.135 0 1.979.185 2.531.554.552.37.932.917 1.14 1.641l-2.07.383c-.088-.323-.256-.57-.504-.742-.247-.172-.6-.258-1.058-.258-.579 0-.993.081-1.243.242-.166.115-.25.263-.25.445 0 .157.073.289.219.399.198.146.882.351 2.051.617s1.986.591 2.449.977c.458.39.688.934.688 1.632 0 .761-.318 1.414-.953 1.961-.636.547-1.576.821-2.821.821-1.13 0-2.025-.23-2.683-.688-.659-.458-1.09-1.081-1.293-1.867ZM105 64.191v4.211c.708-.828 1.555-1.242 2.539-1.242.505 0 .961.094 1.367.281.407.188.712.427.918.719.206.291.347.614.422.969.076.354.113.903.113 1.648v4.867h-2.195v-4.383c0-.869-.042-1.422-.125-1.656-.083-.234-.23-.42-.441-.559-.211-.138-.476-.207-.793-.207-.365 0-.69.089-.977.266-.286.177-.496.444-.629.801-.133.357-.199.884-.199 1.582v4.156h-2.195V64.191H105ZM127.18 74.246l-1.328 1.695c-.651-.318-1.276-.755-1.875-1.312-.464.416-.956.723-1.477.921-.521.198-1.141.297-1.859.297-1.427 0-2.5-.401-3.219-1.203-.557-.62-.836-1.333-.836-2.14 0-.735.219-1.395.656-1.981.438-.586 1.091-1.095 1.961-1.527-.39-.464-.685-.905-.883-1.325-.198-.419-.297-.816-.297-1.191 0-.693.278-1.28.832-1.762.555-.481 1.346-.722 2.372-.722.989 0 1.763.252 2.32.758.557.505.836 1.122.836 1.851 0 .464-.138.904-.414 1.32-.276.417-.834.888-1.672 1.414l1.594 2.102c.187-.333.349-.768.484-1.305l1.984.453c-.198.704-.369 1.218-.515 1.543-.146.326-.302.598-.469.817.245.229.561.48.949.754.388.273.673.454.856.543Zm-5.977-6.227.594-.453c.437-.339.656-.674.656-1.008 0-.281-.105-.521-.316-.719-.211-.197-.496-.296-.856-.296-.349 0-.622.087-.82.261-.198.175-.297.377-.297.606 0 .271.167.599.5.984l.539.625Zm-.859 2.383c-.505.255-.883.562-1.133.922-.25.359-.375.726-.375 1.101 0 .474.155.861.465 1.161.31.299.725.449 1.246.449.344 0 .674-.068.992-.203.318-.136.664-.36 1.039-.672l-2.234-2.758ZM134.672 75.644l-2.734-11.453h2.367l1.726 7.867 2.094-7.867h2.75l2.008 8 1.758-8h2.328l-2.781 11.453h-2.454l-2.281-8.562-2.273 8.562h-2.508ZM147.992 66.222v-2.031h2.196v2.031h-2.196Zm0 9.422v-8.297h2.196v8.297h-2.196ZM152.438 64.191h2.195v11.453h-2.195zM164.492 75.644h-2.039v-1.219c-.338.474-.738.827-1.199 1.059-.461.232-.926.348-1.395.348-.953 0-1.769-.384-2.449-1.153-.68-.768-1.019-1.84-1.019-3.215 0-1.406.33-2.475.992-3.207.661-.731 1.497-1.097 2.508-1.097.927 0 1.729.385 2.406 1.156v-4.125h2.195v11.453Zm-5.859-4.328c0 .885.122 1.526.367 1.922.354.573.849.859 1.484.859.506 0 .935-.215 1.289-.644.355-.43.532-1.072.532-1.926 0-.953-.172-1.639-.516-2.059-.344-.419-.784-.629-1.32-.629-.521 0-.957.207-1.309.622-.351.414-.527 1.032-.527 1.855ZM166.656 64.191h2.195v11.453h-2.195zM171.102 66.222v-2.031h2.195v2.031h-2.195Zm0 9.422v-8.297h2.195v8.297h-2.195ZM174.586 67.347h1.219v-.625c0-.698.074-1.218.222-1.562.149-.344.422-.624.821-.84.398-.216.902-.324 1.511-.324.625 0 1.237.093 1.836.281l-.297 1.531c-.349-.083-.684-.125-1.007-.125-.318 0-.546.074-.684.223-.138.148-.207.433-.207.855v.586h1.641v1.727H178v6.57h-2.195v-6.57h-1.219v-1.727ZM185.68 73.004l2.187.367c-.281.802-.725 1.412-1.332 1.832-.607.419-1.366.629-2.277.629-1.443 0-2.511-.472-3.203-1.414-.547-.756-.821-1.709-.821-2.86 0-1.375.36-2.452 1.079-3.23.718-.779 1.627-1.168 2.726-1.168 1.234 0 2.208.407 2.922 1.222.713.816 1.055 2.064 1.023 3.747h-5.5c.016.651.193 1.157.532 1.519.338.362.76.543 1.265.543.344 0 .633-.094.867-.281.235-.188.412-.49.532-.906Zm.125-2.219c-.016-.636-.18-1.119-.492-1.449-.313-.331-.693-.497-1.141-.497-.479 0-.875.175-1.188.524-.312.349-.466.823-.461 1.422h3.282Z" style="fill:#4d3e35;fill-rule:nonzero" transform="translate(0 -28.2066)"/></svg>