<svg viewBox="0 0 2166 2633" xmlns="http://www.w3.org/2000/svg" xml:space="preserve" style="fill-rule:evenodd;clip-rule:evenodd;stroke-linejoin:round;stroke-miterlimit:2"><path d="M0-17.285c1.571-.598-17.573 13.551-102.444 10.449-77.063-2.814-172.789-9.811-241.582-10.68-84.43-1.067-145.505 5.565-155.059 18.196-.008.618 8.319-12.169 120.65-12.653C-286.214-12.372-212.892-.847-136.282.122-54.979 1.148-7.97-6.074 0-17.285" style="fill:#003d79;fill-rule:nonzero" transform="matrix(4.1736 0 0 4.1687 2124.636 2588.7429)"/><path d="M0-42.256h-30.148v62.255h-24.748v-62.255h-30.147v-19.999H0v19.999Z" style="fill:#38ae2b;fill-rule:nonzero" transform="matrix(4.1736 0 0 4.1687 428.7269 1967.3993)"/><path d="M0-30.268c0-3.798-1.247-6.448-3.739-7.952-2.492-1.503-6.549-2.255-12.166-2.255h-5.222v19.821h5.341c6.053 0 10.197-.662 12.433-1.988C-1.119-23.967 0-26.508 0-30.268m33.708 56.261H7.062l-6.469-14.6C-1.781 6.052-3.917 2.146-5.816-.328c-1.899-2.471-3.749-4.054-5.549-4.748-1.801-.691-4.125-1.038-6.973-1.038h-2.789v32.107h-24.808v-82.254h42.196c6.804 0 12.383 1.385 16.736 4.154 4.352 2.77 7.487 6.133 9.406 10.089 1.919 3.956 2.878 7.715 2.878 11.275 0 4.155-.801 7.666-2.403 10.535-1.603 2.869-3.294 4.955-5.074 6.26-1.781 1.306-3.779 2.552-5.994 3.74 2.65 1.543 4.836 3.373 6.558 5.489 1.721 2.117 4.065 6.4 7.032 12.848l8.308 17.864Z" style="fill:#38ae2b;fill-rule:nonzero" transform="matrix(4.1736 0 0 4.1687 677.61 1942.412)"/><path d="M0-.06c0-3.086-.455-5.905-1.365-8.457-.91-2.552-2.284-4.767-4.124-6.647-1.84-1.878-4.086-3.342-6.736-4.391-2.651-1.048-5.717-1.573-9.199-1.573-6.646 0-11.869 1.939-15.667 5.816-3.798 3.878-5.698 8.961-5.698 15.252s1.909 11.386 5.727 15.282c3.818 3.897 9.03 5.845 15.638 5.845 4.549 0 8.427-.899 11.632-2.7 3.205-1.8 5.638-4.292 7.3-7.478C-.83 7.705 0 4.055 0-.06m25.282 0c0 7.676-1.771 14.738-5.311 21.187C16.43 27.576 11.158 32.7 4.154 36.498c-7.002 3.797-15.529 5.697-25.578 5.697-10.168 0-18.774-1.979-25.815-5.935-7.043-3.956-12.276-9.159-15.698-15.608C-66.359 14.204-68.07 7.299-68.07-.06c0-7.397 1.7-14.311 5.104-20.741 3.402-6.43 8.634-11.613 15.697-15.549 7.062-3.937 15.677-5.905 25.845-5.905 7.597 0 14.371 1.128 20.326 3.382 5.955 2.255 10.851 5.312 14.689 9.169 3.837 3.858 6.745 8.349 8.724 13.472 1.978 5.124 2.967 10.515 2.967 16.172" style="fill:#38ae2b;fill-rule:nonzero" transform="matrix(4.1736 0 0 4.1687 1131.7288 1879.3226)"/><path d="M0 7.476c0 7.043-1.315 13.047-3.946 18.012-2.632 4.966-6.113 8.892-10.445 11.78-4.333 2.889-9.002 4.966-14.005 6.231-5.006 1.266-10 1.9-14.986 1.9-6.964 0-13.739-1.188-20.326-3.561-6.588-2.374-12.098-6.41-16.528-12.107-4.432-5.697-6.647-13.115-6.647-22.255v-45.399h24.747v38.99c0 5.421.781 9.901 2.345 13.442 1.562 3.541 3.738 6.133 6.527 7.775 2.789 1.641 6.084 2.463 9.882 2.463 3.64 0 6.864-.811 9.673-2.434 2.809-1.622 4.994-4.193 6.559-7.715 1.562-3.521 2.343-7.991 2.343-13.412v-39.109H0V7.476Z" style="fill:#38ae2b;fill-rule:nonzero" transform="matrix(4.1736 0 0 4.1687 1663.8686 1865.966)"/><path d="M0-42.256h-30.148v62.255h-24.749v-62.255h-30.147v-19.999H0v19.999Z" style="fill:#38ae2b;fill-rule:nonzero" transform="matrix(4.1736 0 0 4.1687 2071.0306 1967.3993)"/><path d="M0 4.636c0 4.366-.816 8.088-2.447 11.166-1.631 3.078-3.789 5.513-6.475 7.303-2.685 1.791-5.579 3.078-8.682 3.863-3.103.784-6.199 1.177-9.29 1.177-4.316 0-8.517-.736-12.6-2.207-4.084-1.472-7.5-3.974-10.246-7.506-2.747-3.531-4.121-8.13-4.121-13.796v-28.145h15.342V.662c0 3.362.484 6.139 1.453 8.333.968 2.196 2.318 3.803 4.047 4.82 1.729 1.018 3.771 1.527 6.125 1.527 2.257 0 4.255-.503 5.997-1.509 1.741-1.005 3.096-2.599 4.065-4.782.969-2.183 1.454-4.954 1.454-8.314v-24.246H0V4.636Z" style="fill:#003d79;fill-rule:nonzero" transform="matrix(4.1736 0 0 4.1687 310.9276 2228.0444)"/><path d="M0 50.991h-13.686l-26.452-28.402v28.402h-15.231V0h13.649l26.379 28.255V0H0v50.991Z" style="fill:#003d79;fill-rule:nonzero" transform="matrix(4.1736 0 0 4.1687 595.2068 2130.0461)"/><path d="M0 50.991h-38.74V0h15.378v38.777H0v12.214Z" style="fill:#003d79;fill-rule:nonzero" transform="matrix(4.1736 0 0 4.1687 813.4725 2130.0461)"/><path style="fill:#003d79" d="M247.424 191.447h15.378v50.991h-15.378z" transform="matrix(-4.1736 0 0 4.1687 1951.061 1331.9572)"/><path d="M0 50.991h-15.378V21.449l-13.87 17.108h-1.214l-13.906-17.108v29.542h-14.937V0h13.943l15.673 19.131L-13.943 0H0v50.991Z" style="fill:#003d79;fill-rule:nonzero" transform="matrix(4.1736 0 0 4.1687 1222.813 2130.0461)"/><path style="fill:#003d79" d="M349.365 191.447h15.379v50.991h-15.379z" transform="matrix(-4.1736 0 0 4.1687 2801.983 1331.9572)"/><path d="M0-26.195h-18.689v38.593h-15.342v-38.593h-18.69v-12.398H0v12.398Z" style="fill:#003d79;fill-rule:nonzero" transform="matrix(4.1736 0 0 4.1687 1604.8292 2290.9295)"/><path d="M0 50.991h-38.445V0h37.82v10.227h-22.441v9.345h21.411v10.265h-21.411v10.889H0v10.265Z" style="fill:#003d79;fill-rule:nonzero" transform="matrix(4.1736 0 0 4.1687 1805.5742 2130.0461)"/><path d="M0 .515C0-3.63-.791-6.861-2.373-9.179c-1.582-2.318-3.483-3.869-5.702-4.654-2.221-.785-4.483-1.177-6.788-1.177h-6.548v30.205h6.548c4.022 0 7.505-.957 10.448-2.871C-1.472 10.411 0 6.475 0 .515m15.636.662c0 5.225-.951 9.419-2.852 12.583-1.9 3.163-4.139 5.727-6.714 7.689-3.655 2.87-8.768 4.304-15.341 4.304H-36.79v-50.991h21.191c3.188 0 5.916.166 8.186.497 2.267.331 4.31.797 6.125 1.398 1.815.601 3.36 1.276 4.637 2.023 1.274.749 2.415 1.552 3.421 2.41 1.741 1.423 3.268 3.103 4.58 5.04 1.311 1.938 2.354 4.183 3.128 6.733.771 2.551 1.158 5.323 1.158 8.314" style="fill:#003d79;fill-rule:nonzero" transform="matrix(4.1736 0 0 4.1687 2005.2591 2235.252)"/><path d="M0-391.572c6.438-.694 9.41 5.377 8.23 8.722-1.587 4.5-5.085 5.888-5.623 7.049-4.121 8.886-8.323 25.565-7.555 30.589 6.774-6.509 13.541-12.946 20.454-19.306 1.996-1.837 2.074-6.633 7.043-7.932 8.381-2.19 12.666 5.333 10 15.237-5.405 20.073-41.469 59.032-53.119 82.817-6.249 12.759-8.298 23.722-6.31 48.54-10.565-2.621-24.744-7.473-31.682-15.035l-7.166 8.166c-17 17.834-40 35.834-55.834 47.834.525 4.217-.445 12.092-2.823 17.649-3.58 7.715-13.989 15.587-19.595 21.025-2.344-8.355-3.623-10.945-5.811-17.383.018.052-6.5 5.938-6.5 5.938-10.062 11.312-15.965 19.979-25.068 35.914-.926 1.62-2.614 3.047-4.796 1.713-3.303-2.02.795-9.327 1.765-11.247 5.404-10.704 9.305-17.149 15.821-25.409 7.915-10.035 14.174-15.034 23.341-23.7 1.382 5.128 1.805 6.533 4 14.291.694 2.454 1.591 5.199 1.629 5.199 2.514-2.305 8.817-8.696 9.371-14.574.754-4.152.65-9.847-1.256-14.462 2.045-1.245 27.279-22.336 32.256-26.621 17.474-15.047 24.536-23.375 39.875-44.292 5.812 13.438 10.772 16.965 22.522 21.402 1.456-32.279 8.009-38.832 16.243-53.226-22.229 1.164-39.874-6.788-45.308-25.734 12.605 14.558 20.818 17.038 34.73 17.996 18.336 1.264 27.527-12.433 29.527-14.995 2.316-2.967 6.133-7.699 8.19-10.571 1.075-1.529 4.942-7.221 5.999-8.761 3.925-5.66 15.603-22.177 12.51-25.68-.477-.655-1.351-1.712-3.007-1.056-2.858 1.133-28.011 25.789-35.25 32.85-1.952-9.225-.515-22.767 1.951-32.819 1.153-4.701 3.893-11.718 4.747-16.072.184-.94.187-1.75-.026-2.193-.113-.114-.382-.427-.516-.516-1.062-.708-2.077-.07-2.437-.041-22.949 7.08-47.007 15.065-71.849 23.513-25.5 9.721-37.557 16.801-53.898 28.205-9.459 6.237-17.587 11.804-26.378 18.198-4.606-.191-7.636-.313-19.75.5-14.988 1.657-22.383 3.533-31.75 8-1.881 2.082-4.912 10.771-6.625 16.25-7.282 23.284-16.306 46.641-16.306 46.641s16.743-2.266 23.612-3.513c-7.527 16.423-10.431 29.06-13.57 51.041-1.017 7.124-2.236 19.04-3.07 35.54-.328 6.501-.45 13.886-.014 30.458.346 10.888 1.468 23.536 3.137 35.356 9.531-5.338 10.103-9.15 12.372-14.534 10.884 27.751 45.919 52.927 69.777 66.337 1.406.79 29.497 17.565 32.895 13.383 3.25-4-.525-21.156-1.15-23.775-2.319-9.72-7.993-26.152-6.792-37.619.99-9.456 5.333-38.987 3.024-44.713-.305-.571-.609-1.141-.914-1.712-.19-.191-.38-.381-.571-.571-.075-.077-.152-.153-.228-.228-1.569-1.017-5.006-1.384-7.308-.686-23.991 7.272-50.16 39.517-69.174 26.874-6.127-4.075-5.97-9.716-3.943-15.49.819-2.569 2.598-5.355 2.599-5.279.139 13.737 11.051 17.487 25.311 11.303 13.69-5.937 42.834-37.914 61.716-29.518 12.121 5.387 4.497 25.347 3.161 36.433-1.28 10.631-5.575 21.494-1.992 35.935 4.908 19.781 14.151 31.133 10.071 58.167-.419 4.225-2.104 12.24-2.523 16.464-10.755-6.771-19.385-11.418-30.25-17.503-15.292-8.563-34.692-19.047-53.442-34.256-9.072-7.358-15.82-13.607-24.339-22.999-3.717-4.099-5.896-6.488-9.245-10.675-3.813 3.717-9.437 6.767-14.584 10.77-3.638-15.791-4.899-25.265-5.935-34.193-2.272-19.579-2.332-27.538-2.492-41.063-.22-18.603 1.167-34.333 3.268-52.114.865-7.321 5.761-30.13 5.761-30.13s-4.701.436-6.962.738c-4.666.522-8.329.91-10.548 1.16.318-.61 10.898-29.779 15.648-45.404 3.656-12.028 10.06-33.585 12.094-35.184 6.051-4.76 20.924-9.162 32.177-10.883 8.683-1.231 15.369-1.75 21.57-2.379 6.534-3.804 11.338-6.85 17.238-10.689 12.948-8.467 21.295-14.093 39.664-22.299 21.256-9.499 42.289-14.691 68.322-22.408 7.08-2.093 23.602-7.875 30.681-9.968 4.604-1.246 5.349-1.67 9.879-2.565" style="fill:#003d79" transform="matrix(4.1736 0 0 4.1687 1600.4887 1674.2508)"/><path d="M0-13.806C9.927-14.533 10.506-2.543 2.105-.938-6.609.727-9.394-10.922 0-13.806" style="fill:#003d79" transform="matrix(4.1736 0 0 4.1687 1448.3366 219.6522)"/><path d="M0-172.535c-2.018 1.636-5.912 5.084-7.93 6.721-12.84 10.443-23.149 19.827-34.163 30.647-13.561 13.321-27.002 28.719-36.147 40.983-17.648 23.666-26.334 40.659-36.069 64.371-4.31 12.775-6.248 19.683-8.588 29.813-.038-.038.519-6.252.481-6.29 4.627-55.262 43.75-110.81 77.7-136.572 20.16-15.297 29.461-21.135 44.716-29.673" style="fill:#003d79" transform="matrix(4.1736 0 0 4.1687 1238.5433 991.231)"/><path d="M0 2.268C-39.599.821-84.123-1.729-127.391-3.986c-.118 2.894-1.139 5.627-2.877 8.068 32.657 2.465 64.256 4.734 96.43 5.14C46.964 10.245 93.887 3.116 102.286-7.977 99.753-6.232 76.758 5.071 0 2.268" style="fill:#003d79;fill-rule:nonzero" transform="matrix(4.1736 0 0 4.1687 1697.0778 1509.2737)"/><path d="M0-10.009c0-.707.058-1.405.163-2.093-21.017-.89-41.009-1.546-59.124-1.775-84.43-1.068-145.505 5.566-155.058 18.196-.008.617 8.318-12.17 120.649-12.656C-59.798-8.481-28.738-7.043.894-5.112.312-6.676 0-8.317 0-10.009" style="fill:#003d79;fill-rule:nonzero" transform="matrix(4.1736 0 0 4.1687 934.8945 1532.0474)"/><path d="M0-.149c-.049.069-.107.137-.159.206C.109-.127.15-.206 0-.149" style="fill:#004a8d;fill-rule:nonzero" transform="matrix(4.1736 0 0 4.1687 2124.636 1475.7822)"/></svg>