<svg xmlns="http://www.w3.org/2000/svg" width="598.679" height="664.198" xml:space="preserve"><path style="fill:#ffe363" transform="translate(-6 -65)" d="m274.919 695.719-6.84-3.96-7.2-3.24-7.2-2.521-7.92-2.159-7.92-1.801-7.92-1.439-8.279-1.08-8.64-1.081-8.641-1.08-8.639-1.08-9-1.439-9-1.441-8.64-1.08-8.28-1.439-7.56-1.08-7.56-1.08-6.84-1.08-6.12-1.08-6.12-1.08-5.4-.72-5.04-1.08-4.681-.72-3.959-1.08-3.6-.721-3.24-.72-2.88-1.08-2.16-.719-8.64-3.241-8.64-3.96-7.92-4.32-7.56-5.04-7.2-5.399-6.84-6.12-6.12-6.481-5.76-6.479-5.4-7.201-5.04-7.2-4.32-7.92-3.96-7.92-3.24-7.92-2.88-8.279-2.16-8.28-1.44-8.64-.36-3.6-.36-3.241-.36-3.599v-11.52l.36-3.961.36-4.319.36-4.32.72-4.68.72-4.32.72-4.68.72-5.04 1.08-5.04 1.08-5.04 1.08-5.4 4.32-17.28 4.68-18 5.04-18 4.68-18.72 4.68-18.36 3.96-19.08 3.24-18.72 2.52-18.72 1.08-18.72V301.52l-1.8-18.36-3.6-17.64-5.76-17.641-7.92-16.92-10.8-16.56L6 198.56 98.88 65l26.64 9.36 27 7.92 27.72 6.48 27.719 5.04 27.721 3.96 27.719 2.52 27.36 1.08 27.36.36 27-1.08 26.64-2.16 25.56-2.88 25.2-4.32 24.48-5.04 23.04-6.12 22.319-6.48 21.241-7.92 91.08 133.92-14.04 15.839-10.441 16.201-8.279 16.56-5.4 17.28-3.6 17.64-1.44 17.999.36 18.361 1.8 18.719 2.519 18.72 3.96 19.08 4.32 19.08 5.041 19.08 5.04 19.08 5.04 18.72 4.679 19.08 3.96 18.36 1.08 3.96.72 3.6.721 3.24.719 2.88.361 2.52.72 2.52.36 2.16.359 2.16.361 1.8v2.159l.36 1.801v2.159l.359 2.161v14.4l-.359 6.479-.721 6.121-.719 6.12-1.441 6.12-1.439 6.12-1.8 5.76-2.16 5.759-2.16 5.76-2.88 5.761-2.88 5.399-3.24 5.401-3.6 5.399-3.96 5.401-3.961 5.04-4.319 5.04-3.96 4.32-4.321 3.6-4.32 3.96-4.319 3.24-4.68 3.599-5.04 2.88-5.04 3.241-5.04 2.519-5.4 2.521-5.76 2.519-5.76 1.801-6.12 2.159-6.12 1.44-6.481 1.441-6.479 1.439-6.84 1.08-19.08 3.6-17.64 2.881-16.56 2.159-15.12 2.16-13.68 1.8-12.96 1.801-11.52 1.8-10.8 2.16-10.078 2.88-9 3.24-8.282 3.96-7.92 4.68-6.839 6.12-6.84 7.199-6.481 8.28-5.76 10.08h-.72l-5.04-9-5.4-7.559-5.759-6.481-6.121-5.76z"/><path style="fill:#00502f" transform="translate(-6 -65)" d="m389.759 649.998 3.6-.359 3.6-.72 3.24-.36 3.24-.361 3.6-.359 3.24-.36 3.6-.361 3.6-.72 3.6-.36 3.96-.72h1.08l3.24-.359 3.96-.721 5.04-.719 5.76-1.081 6.12-1.08 6.84-1.08 7.2-1.08 7.2-1.08 6.839-1.439 6.841-1.08 6.12-1.08 5.76-1.081 4.68-1.08 3.599-.719 2.521-.72 8.28-3.601 7.92-4.319 7.56-4.681 6.839-5.04 6.121-5.759 5.759-6.121 5.04-6.12 4.681-6.84 3.96-6.839 3.239-7.201 2.88-7.2 2.521-7.559 1.439-7.201 1.08-7.559.721-7.561v-7.559l-.36-3.24-.361-3.96-.72-5.04-1.08-6.121-1.439-6.839-1.44-7.92-2.161-8.64-2.16-9.72-2.159-10.44-2.881-11.52-2.88-12.6-3.239-13.32-3.601-14.04-3.599-15.48-3.96-15.84-4.32-17.28-2.88-10.8-1.8-10.8L533.398 335l-1.08-10.801-.359-10.8.359-10.799.721-10.801 1.44-10.799 2.16-10.801 2.519-10.439 3.601-10.441 3.96-10.44 4.32-10.44 5.399-10.08 6.121-9.719 6.839-9.72-68.399-99.72-21.601 7.92-22.679 6.48-23.76 5.4-24.84 4.32-25.92 3.24-26.28 1.8-26.64 1.08h-26.64L276 128.36l-26.281-1.8-25.92-2.88-25.199-3.24-24.121-4.68-23.04-5.04-21.96-5.76-20.159-6.48L40.2 198.92l2.52 2.88 2.52 3.599 2.88 4.681 3.24 5.399 3.24 5.761 3.24 6.48 3.24 7.199 3.24 7.921 2.88 8.28 2.52 8.64 2.52 9 2.16 9.36 1.44 9.719 1.08 10.08.72 10.081-.36 10.08-.36 4.319v3.96l-.36 3.6-.36 3.601-.36 3.239-.36 2.88-.36 3.24-.36 2.88-.36 3.24-.72 2.88-.72 3.6-1.08 3.6-.72 3.96-1.08 4.32-1.08 5.04-1.44 5.4-1.8 7.92-2.16 7.56-1.8 7.56-1.8 7.92-1.8 7.56-1.8 7.56-1.8 7.2-1.8 7.56-1.8 7.2-1.44 7.2-1.8 7.56-1.8 7.2-1.44 6.84-1.8 7.2-1.44 6.84-1.44 6.84-1.44 5.76-1.08 5.76-1.08 5.76-1.08 5.4-.36 5.76-.72 5.76V541.639l.36 6.12 1.08 6.12 1.44 6.12 1.8 6.48 2.52 6.48 3.24 6.84 3.6 6.84 4.32 7.2 1.8 2.88 2.52 2.88 2.52 2.88 2.88 3.24 3.24 3.24 3.6 3.239 3.96 3.24 4.32 3.241 4.32 3.24 4.68 2.88 5.4 2.519 5.04 2.521 5.76 2.519 6.12 1.8 6.12 1.441 6.48 1.439 10.44 1.441 10.08 1.44 9.719 1.8 9 1.439 8.641 1.08 8.279 1.08 7.921 1.441 7.559 1.08 6.841.72 6.48 1.08 6.119 1.08 5.761.719 5.04.72 5.04.721 4.319.359 3.96.361 3.601.36 3.959.72 3.601.719 3.599.72 3.96.721 3.961 1.08 3.96 1.439 3.96 1.441 3.959 1.439 4.32 2.16 4.32 2.161 4.32 2.519 4.68 2.881 4.68 3.239 4.68 3.601 5.4 3.96 2.52-2.88 2.88-2.881 3.24-2.519 3.601-2.52 3.599-2.521 3.6-2.16 3.96-1.799 4.32-1.8 3.96-1.8 4.32-1.441 4.321-1.44 4.319-1.439 4.319-1.08 4.321-1.081 4.32-.719 4.32-1.08 4.68-.72 4.32-.721 4.321-.359 3.959-.721 3.6-.72z"/><path style="fill:#ffe363" transform="translate(-6 -65)" d="m332.159 438.679-5.04-.72-1.439-1.08-1.08-1.8-2.881-5.76-1.44-2.52-1.44-.36-.36 2.88-.36 3.241-.721 2.519v2.88l-.359 3.24-.359 2.88v5.76l-.362 2.88v15.12l.362 3.24v6.12l.359 2.52v9l.359 1.8v1.44l.361 1.44.36 2.16.72 1.44 1.08 1.439 26.642 12.241 2.518 1.08 2.16 1.08 2.159.72 2.163 1.08 3.598 1.44 1.441 1.08 3.599 1.8 2.52 2.52.36 1.44-1.08 1.08h-1.438l-2.881-.72h-1.441l-1.8-.36h-5.4l-1.439.36h-1.441l-1.44.36h-2.88l-4.319-1.08-1.801-.36h-5.039l-2.16.36h-2.521l-2.52.36-1.44.36-1.8.36h-1.8l-1.44.36-3.601.72-1.439.36h-1.8l-1.44.359-1.8.361h-7.2l-2.52-.72-1.8-.36-2.16-.361-1.8-.719h-1.8l-3.6-.72h-1.8l-1.8-.36h-11.52l-1.44.36-2.16.36h-1.799l-1.801.36h-1.8l-1.8.36h-1.44l-1.44.359h-7.199l-1.44-.359-1.801-.36h-6.12l-1.8.36-4.319.72-1.44-.361-.361-1.439 1.08-1.44 2.88-1.44 2.52-1.08 1.44-.72 2.16-.72 2.52-1.081 2.88-1.439 3.96-1.44 4.321-1.8 5.399-2.16 6.48-2.52 7.2-2.88 1.44-.72 1.8-.72 2.52-1.44 2.161-1.44 3.599-2.88 1.44-2.88.36-1.44v-48.96l.36-2.16v-2.52l.36-1.44v-5.76l-.72-1.44h-1.44l-1.08 1.08-1.8 2.16-1.079 1.08-1.441 1.08-1.079 1.08-1.44 1.08-2.521 1.8-3.6 1.8-1.08-1.08.36-1.44.72-1.44-1.8.36-1.44.72-2.88 2.16-2.16 2.88-2.159 2.16-2.881 1.44-1.8.36h-1.799l-.721-1.8-1.08-1.08-1.44 1.08-1.8 1.44-1.8 1.08-1.44.36-1.08-1.08-1.44.72-1.44 1.08-2.88.72h-1.44l-1.08-1.08-1.44-.72-1.439.36-2.88 1.44-7.201 1.8-2.879-.72-1.801-.36-.719-1.8v-1.44l.359-1.44.721-1.44 2.879-2.16-1.08-1.08-.719-1.44-.361-1.44v-1.8l.361-1.44 1.079-1.8 2.52-2.52 1.44-1.08 4.68-3.6-1.799-.72-.361-1.44 10.08-10.08 1.08-1.44 1.08-1.08 1.081-1.44 1.799-2.16 1.44-2.16 1.08-2.16-1.44-.72-1.439 1.8-1.44.721-1.44.359h-1.441l-.36-1.44h-1.44l-1.08 1.081-2.52 2.159-1.44.72h-1.799l-1.44-.72-1.441-1.08-.36-1.8.721-1.44 1.08-1.08 1.44-1.08 1.08-1.08 1.079-1.44 1.441-1.44 1.079-1.8 1.44-1.44 1.08-1.8 1.44-1.8.72-1.44 1.08-1.44 1.081-1.08.719-1.44 1.08-1.44 1.44-1.08 1.08-1.8 1.08-1.08 2.16-2.88 1.08-1.8 1.44-1.8 3.24-4.32 2.161-2.16.359-1.44-1.44 1.08-2.879 1.44-1.441 1.08-1.8 1.08-2.16 1.08-2.159 1.44-3.96 2.52h-1.44l-.361-1.44.72-1.44.36-1.44v-2.88l.721-1.44 1.08-1.44.719-1.44 1.08-1.08.72-1.44 1.08-1.44-.719-1.44.359-1.44 1.44-1.08.36-1.44h-1.44l-1.44.72-1.44.36-1.799.36h-4.681l-1.44-.36-.359-1.44 1.44-1.44 2.159-1.44 1.8-1.44 1.081-1.08 1.799-1.44 1.8-1.8 1.8-1.44 1.44-1.8 1.8-1.44 1.08-1.08 1.08-1.44 1.44-2.16 1.8-2.159 1.08-1.081 2.16-2.88 1.08-1.8 1.081-1.44 2.879-3.6 1.44-2.159.72-1.441 1.08-1.44.72-1.44-3.24 2.16-2.16 1.8-1.8 1.44-1.44.361-1.8.359-1.8-.359-1.44-.721-.72-1.44v-2.16l.36-1.44 4.68-4.679-.72-1.441.36-1.44 1.08-1.44 1.44-2.88.361-1.44.719-1.439 1.08-1.44 1.44-.721.72-1.44-1.439.36-1.441.721-.72-1.44v-1.44h-1.44l-1.08-1.08.721-1.44.359-1.441 3.601-4.68 1.079-1.439.72-1.44 1.08-1.44 2.161-4.321 1.079-1.44.72-1.799 1.44-2.52 1.08-2.161.72-1.799 1.08-1.44.72-1.441 1.08-1.8 1.44-2.16.72-1.8 1.08-1.439.72-2.88-1.439-.36-2.161 2.159-1.08 1.44-1.8 1.08-1.439.721-1.441.36-1.079-3.601.719-6.48-1.08 1.081-1.44.359-.72-1.44 1.081-1.439.719-1.44 1.08-1.44 1.44-1.801 1.44-2.159 1.44-1.44 3.24-4.321L285 235.64l1.079-1.44 1.441-2.881 1.079-1.44 3.24-6.48 1.08-1.799 1.44-2.88 1.08-1.801 1.8-3.6 1.08-2.519 1.44-2.881.36-1.44.72-1.439.36-1.44.72-1.44.72-1.8.72-1.44.36-1.441.72-1.439 1.8.72 4.322 5.4 1.08 2.16 1.078 1.8 1.08 2.16.36 1.44 1.08 2.16.72 1.8.359 1.799.721 1.44.72 1.801 1.44 2.88.72 1.799 1.44 2.52 1.08 2.161 1.44 2.16 1.439 1.44 1.08 1.44 2.163 2.16.718 1.44-1.44 1.08-4.319-1.08-1.441-.72-1.438-.36-.362 1.799.72 2.161.72 1.44 1.44 3.6 1.08 1.799 1.079 2.52 2.881 5.041 1.442 2.879 3.598 6.48 1.079 1.44 1.441 3.6.72 1.44.72 1.801 2.16 2.88 1.08 1.08 1.081 1.44 1.08 1.08.718 1.799-1.439 1.081-1.8-.721-1.44-.36-1.44-1.08-4.32-1.079-.72 1.439.72 1.441.36 1.44 1.079 1.799 1.08 1.44.721 1.44 8.279 8.281 3.241 3.96-.36 1.439-1.44.72-1.8-.36-1.8-.719-1.44-.361-1.44-.719.36 1.439 1.08 1.081 1.44 1.08 1.441.719 1.439 1.08 1.08 1.44.72 1.44-1.44.721.36 1.439.722 1.44 2.158 2.88 3.24 5.4 1.439 1.8 1.081 1.8 2.16 2.88 5.4 5.401.72 1.439.36 1.44-1.439.72-2.881-.72-1.44-.72-.36 1.44v1.44h-1.438l-1.442-.72-1.801-1.44-3.239-3.24-1.08 1.08 1.44 2.16 1.44 1.8 1.08 1.801 1.439 1.799 2.163 3.6 2.158 2.88 1.44 1.44 1.08 1.44 1.441 1.8 1.079 1.44 1.44 1.8 1.44 1.44 1.8 2.16 1.44 1.8 1.801 1.08 1.439.72 1.442 1.08 1.798.72 1.8 1.08.361 1.44-1.441 1.08-1.44.36-1.44-.36h-1.44l-4.32-2.16.36 2.16v1.44l-1.44.72h-1.798l-1.442-.36-2.88-1.44-1.08-1.08h-1.44l-.36 1.44.36 1.44 4.32 5.76 1.08 1.8 1.08 1.44.72 1.8 1.08 1.8 1.08 1.44 1.441 2.16 1.08 1.44 1.439 1.8 1.08 1.08 1.442 1.8 1.798 1.44 1.8 1.08 1.441 1.08-.361 1.44h-2.88l-1.44.36 2.16 3.6 1.441 1.801 1.08 1.08 4.319 6.479 1.44 1.8 1.08 1.8 1.081 1.44.719 1.44.72 1.8-.359 1.44h-1.441l-2.16-.72-1.44-.36-1.8-1.08-1.8-.72-1.439-.72-1.441-.36.36 1.44 1.081 1.8.719 1.8 1.079 1.8 1.08 2.52 1.441 2.52 3.24 4.32 1.08 1.08 1.08 1.44 2.52 2.52.36 1.8v1.8l-1.08 1.44-.721 1.8-.718 1.44-1.08 1.081v1.439l.359 1.44.721 1.44-.721 1.44h-1.44l-1.44-.36-1.44-1.08-1.08-1.08-1.081-1.44-.718-1.44v-1.44l-1.441-.36-1.44.36-3.6 1.44-1.44.36h-4.68l2.16 2.16.72 1.44-1.439 1.08h-1.441l-1.8-.72-3.599-1.8-1.08-1.08-1.441-.72-1.08-1.44-1.44-1.08-1.078-1.8-1.442-1.44-1.439.36h-1.441l-1.44.36-1.44-.36-1.08-1.08h-1.44l-1.441.72-2.159-2.16v1.44l.72 1.44.359 1.44h-1.439l-2.16-.72-1.8-1.08-2.16-1.08-2.159-.72zM219.839 284.239l-.36.361h-.359l-.361.359-.36.36h-.359l-.36.361-.361.36h-.36v.359l-.359.36V432.199l-.361 1.08v1.08l-.36 1.08-.359 1.081v1.439l-.36 1.08-.361 1.08-.36 1.08-.359 1.08-.721 1.44-.359 1.08-.36 1.08-1.44 3.24-1.441 2.88-1.8 2.88-1.799 2.52-1.801 2.52-2.159 2.52-2.16 2.16-2.52 1.8-2.161 1.8-2.52 1.44-2.88 1.44-2.879 1.44-2.88 1.08-3.241.72-2.879 1.08-3.601.36-8.639.72h-7.921l-7.559-.72-6.84-1.8-5.76-2.16-5.4-2.88-5.04-3.6-4.32-3.6-3.6-3.96-3.24-4.32-2.52-4.32-2.161-4.68-1.439-4.32-1.08-3.96-.72-3.96-.36-3.96-.36-139.32v-1.08l-.36-.36v-.359l-.36-.361v-.36h-.36v-.359h-.72v-.36H102.12v-14.401l42.12-.719 1.08.719V284.6l-4.32 1.44-.36.359h-.36v.36h-.361v.361h-.359v1.079l-.36 134.28.719 6.48 1.441 6.12 2.52 5.04 3.24 4.68 3.96 3.6 4.319 2.88 4.681 2.52 5.399 1.08 5.041.36 5.04-.36 5.04-1.8 4.68-2.16 3.96-3.6 3.599-4.68 2.881-5.76 2.159-7.2v-.72l.361-1.08v-1.44l.36-1.44V419.6l.359-2.521v-21.96l.36-3.96V292.52l-.36-.721v-2.52l-.359-.719v-.721l-.36-.719-.361-.361v-.719l-.359-.36-.36-.361h-.361l-.36-.36-.359-.359h-9.721v-14.04h.361l42.119-1.44.36.359v.36h.361v14.04h-8.641l-.359.36h-.721zM517.919 438.319l-1.08 2.52-1.08 2.52-1.441 2.161-1.439 2.519-1.441 2.16-1.439 2.16-1.8 2.161-1.44 2.159-1.8 1.8-1.8 1.44-2.52 2.52-2.88 2.16-2.88 2.16-2.88 1.8-2.88 1.44-2.88 1.44-2.881 1.44-2.879 1.08-2.88 1.08-3.241.72-2.879.72-3.24.36-3.24.36h-6.12l-3.24-.36h-1.8l-1.8-.36-1.8-.36-1.801-.36-1.799-.36-1.8-.36-1.8-.72-1.8-.36-1.44-.72-1.8-.36-1.8-.72-1.44-.72-1.8-1.08-1.8-.72-1.8-.72-1.44-1.08h-.72l-.36-.36-.36-.36-.36-.36h-.36l-.36-.36h-.36l-.36-.36h-.36l-.36-.36h-1.08l-.36-.36h-2.16l-.36.36h-.72l-.36.36-.36.36v.36l-.36.72v2.16l.36.72v.72l.36.72.36 1.08v1.44l-.36.36h-15.84v-.36h-.36V422.479h15.84l-.36 1.081.36 1.079v3.96l.36.72v.72l.36 1.08.36.72v.721l.36.719.36.72v1.08l.36.72.36.721 1.8 4.319 2.16 3.6 2.88 2.88 2.88 2.52 3.24 2.52 3.96 1.8 3.6 1.44 3.96 1.44 3.6.72 3.96.36 3.96.36h6.84l3.6-.36 2.879-.36 2.521-.72 2.519-.72 2.161-1.44 2.88-1.8 2.52-2.16 2.52-2.52 2.52-2.879 2.16-2.881 1.8-3.6 1.439-3.6 1.081-4.32.36-3.96-.36-4.68-.72-4.68-1.8-5.04-2.16-5.04-3.6-5.4-2.52-3.24-2.52-2.88-2.881-2.88-2.88-2.52-2.519-2.88-2.88-2.16-2.88-2.52-2.52-2.16-3.241-2.52-2.879-2.16-2.88-2.16-2.88-1.8-2.88-2.16-2.88-2.16-2.88-2.52-2.88-2.16-4.68-3.24-4.32-3.24-3.96-3.24-3.6-2.88-3.24-2.52-3.24-2.88-2.52-2.52-2.52-2.16-2.16-2.52-1.8-2.52-1.8-2.159-1.44-2.52-1.44-2.52-1.08-2.52-1.08-2.881-.72-2.88-.72-3.239-.36-3.601v-3.6l.72-3.96.72-3.6 1.44-3.96 1.44-3.599 2.16-3.6 2.52-3.601 2.88-3.24 3.6-3.239 3.96-2.88 4.32-2.52 5.04-2.52 5.4-1.801 5.76-1.44 1.8-.36 2.16-.359h11.52l2.16.359h2.88l2.52.72 2.52.361 2.88.359 2.88.721 2.88.719 2.88.721 3.24.719v.361h.72l.36.36h.72l.36.359h1.08l.359.36h1.081l.36-3.96h16.2v43.92l-14.761.361-.359-5.401v-3.24l-.36-1.44-.36-1.8-.72-1.44-.36-1.44-.721-1.44-.719-1.08-.72-1.44-1.08-1.08-1.08-1.079-1.08-1.08-1.08-1.08-1.44-1.081-1.08-1.08-1.801-.719-3.96-2.161-4.319-1.439-4.32-.721h-3.96l-3.96.361-3.96.719-3.6 1.08-3.24 1.8-2.88 2.16-2.52 2.52-1.8 2.88-1.8 3.241-.72 3.239-.36 3.241.36 3.96 1.079 3.599.361 1.441.72 1.079 1.08 1.441 1.08 1.44 1.08 1.439 1.44 1.8 1.8 1.44 1.8 1.801 2.16 1.799 1.8 2.16 2.52 1.8 2.52 1.801 2.52 2.159 2.88 2.16 3.239 2.52 3.241 2.161 3.24 2.519 3.24 2.16 3.239 2.16 2.881 2.16 2.88 2.16 2.52 2.16 2.52 1.8 2.52 1.8 2.16 1.8 2.16 1.44 2.16 1.8 1.8 1.44 1.439 1.44 1.801 1.08 1.44 1.44 1.08 1.08 1.44 1.44 1.44 1.44 1.44 1.8 1.44 1.8 1.799 1.8 1.441 2.16 1.439 2.16 1.441 2.16 1.44 1.8 1.08 2.16 1.08 1.8 1.079 1.8 1.08 1.8.361 1.08.719 1.44v1.08l.361 1.08.359 1.08.361.721.719 1.08v1.079l.361 1.08.36 1.44.359 1.44V410.6l.361 1.799v1.8l-.361 2.16v2.52l-.359 2.52-.721 2.88-.359 1.8-.36 2.52-.72 2.16-.72 2.52-1.08 2.52zM509.278 549.919l.361-.36v-.36l.36-.72.359-.36.361-.721.36-.359v-.36l.359-.72.361-.36v-.36.36l.359.36.361.359.36.361v.36h.359l.361.359h.36l.359.361v.36h.721l.359.36.361.36h.36l18.72 6.84 2.519 1.44 2.521.72 2.16.36h3.239l1.441-.72 1.08-.72.359-.72.721-1.08v-.72l-.721-1.44-.359-.72-1.08-1.08-1.441-1.08-1.799-.72-2.161-.72-23.04-5.4h-.719l-.36-.36h-3.6l-.72.36 1.08-9.721.359.361.361.36h.36l.359.359h.721l.36.361h.72l.36.36h1.44l5.04 1.08 2.16.72 2.52.72 2.16.36 1.8.359 1.8.721 1.799.36 1.801.36 1.44.36 1.44.36 1.439.36 1.081.36 1.08.36.719.36h1.08l.361.359.719.361 3.601 1.44 2.52 1.8 2.16 2.16 1.439 2.52.721 2.16v2.519l-.36 2.521-.72 2.16-1.441 2.16-2.16 1.8-2.159 1.439-2.881.721-2.88.36h-3.599l-3.6-1.081-4.32-1.439-2.88-1.44-2.88-1.081-2.52-1.08-2.88-1.08-2.161-1.079-2.16-.72-2.159-.72-1.801-1.08-1.439-.361-1.441-.719-1.439-.36-1.08-.72h-.72l-.72-.36h-.36l.36-.721.36-.359.36-.36.36-.72.36-.36zM70.08 521.119l.36-.36V515.359l-15.12 1.079v6.121l.36 1.08v2.88l.36 1.08v2.16l.36.72v.72l-.36.36h-3.96l-.72-.36h-1.08l-.36-.36h-.36l-.72-.36h-.36l-.72-22.68v.36H49.56l.36.36H53.16l39.6-2.16h.72l.36-.36h.36l.36-.36h.36l.36-.36h.36l.36-.36h.36l.36-.36h.36l1.08 20.879-.72.361h-.72l-.72.36h-1.08l-.72.36h-1.08l-.36.36H90.6l-.36.36h-.72v-.36l.36-.36v-.36h.36v-11.52H78.36l-.36.72V519.318l.36.721v1.44l.36.72v.72H76.92l-.36.36H74.4l-.72.36h-3.24l-.72.36v-1.08l.36-.36v-1.08zM529.799 489.799V487.279l-.361-.36v-1.8l.361-.36.72-.36.719-.36h.361l.719-.36h.721l.359-.36H534.839l.359-.36.361.36h2.16l-.361.72v1.8l-.359.72V490.519l.359.72v1.44l.361.36h8.28l1.08-.36h2.52l1.08-.36h1.08l.72-.36h.719l.721-.36h.72l-.361-1.44v-2.52l-.359-1.08v-1.08l-.36-.72v-1.8l-.361-.72V480.439l-.359-.72v-.72l-.36-.36h2.52l.359.36H556.799l.72.36h1.08l.719.36h.721l.359.36.72.36.361.36v21.6l-.361-.36h-.359l-.361-.36-.359-.36v-.36l-.36-.36h-.361l-.359-.36h-.36l-.361-.36h-.719l-.361-.36h-.72l-.719-.36-35.64 1.8h-1.44l-.361.36h-.719l-.36.36h-.36l-.36.36h-.36l-.721.36-.359.36-.36.36-.361.36-.359.36-1.44-25.2.36-.36h1.08l.72-.36h.719l.721-.36h1.08l.72-.36h2.16l.359-.36H522.238v.36l-.359.36-.36.36v.36l-.361.36v.36l-.359.36v.72l-.361.72v.72l-.359.72V485.839l.359.72v1.8l.361 1.08v.72l.359 1.08.361 1.08.36.72h8.64v-1.08l-.361-.72v-1.08zM509.278 555.318l.361.361h.36l.359.36.361.359.36.361h.359l.361.36.359.36h.361l.36.36-.36.36-.361.36-.359.36-.361.359-.359.361-.36.36v.359l-.361.361-.359.36-.36.72v.36l-.361.36v1.08l2.16 2.16 2.521 1.8 2.16 1.799 2.52 2.161 2.16 1.799 2.16 1.801 2.52 1.8 2.16 1.8 2.16 1.44 1.8 1.44 1.799 1.44 1.8 1.44 1.801 1.08 1.439 1.08 1.441.719 1.439.721-5.759 7.92-.361-.36-.359-.72-.36-.721-.36-.359-.36-.72-.72-.721-.36-.719-.72-.72-.721-.721-.719-.719-.72-.72-1.08-1.08-.72-.72-1.08-.721-1.08-.719-.72-1.08-15.841-12.96-4.319-3.6-.721.72-.359.36-.36.359-.72.721-.361.359-.359.361-.36.72-.361.36-.359.359-.36.361v.36l-.361.72h-.359v.719l-.36.361-.72-.361-.36-.719-.36-.361-.36-.719-.361-.361-.359-.359-.36-.36-.361-.36-.359-.36v-.361l-.36-.359v-.36l-.36-.361v-.719l.36-.361.36-.719.72-.72.719-.72.721-.721.72-1.08.72-1.079.719-1.08.721-1.08 1.08-1.08 1.08-1.44.72-1.08.72-1.081 1.08-1.439.719-1.08.361.36.72.36h.36l.72.36.36.359z"/><path style="fill:#ffe363" transform="translate(-6 -65)" d="m490.199 577.999-.36-.36-.36-.361-.36-.359h-.36l-.361-.36-.359-.361-.721-.359-.359-.36-.36-.36h-.36l-.36-.36.36-.361.36-.359.719-.36.361-.361.36-.719.72-.361.36-.359.72-.36.36-.36.72-.36.36-.361.72-.359.359-.36.721-.361.359-.359h.361v.72l.36.36.36.72v.36l.36.36v.719l.36.361.36.719v.361l.36.719.359.721.361.72.719.72.361.36.36.72 16.199 25.2 8.281-5.76.36-.36.359-.361.361-.359.36-.36v-.361l.359-.359.361-.36v-.361l.36-.359v-.36l.36-.36.36.36.36.719.36.361.36.36.359.72.361.36.36.72.359.36v.72l.361.359v3.24l-1.8 1.8-1.8 1.441-1.801 1.44-1.439 1.079-1.8 1.441-1.08.719-1.44 1.08-1.08 1.081-1.081.719-1.08.721-.719.359-.72.721-.721.359h-.359l-.361.361h-.359l-6.48-12.96-13.32-22.321v-.359l-.36-.36-.36-.361zM420.719 151.76l.72.36 1.08.36.72.36 1.08.36.72.72 1.08.36.72.72.36.72.72.72.36.72 10.8 30.24 7.56-19.8v-.36h.36v-1.08l.36-.36V159.68l8.28 3.24-12.6 44.64h-1.44l-.36-.36h-1.08l-.721-.36h-.359l-.36-.361h-.72l-.36-.359h-.72l-.36-.36-.72-.361-16.2-47.519v-1.08l-.36-.36v-.36l-.36-.36V155l-.36-.36-.36-.36-.36-.36-.36-.72v-.36l-.36-.36-.72-.36-.36-.36.72-.36h1.44l.72.36h.72zM170.16 629.479l.36-.361.359-.359v-.72l.361-.36v-.361l.36-.359v-1.08l.359-.36 1.801-16.56-9.72 20.52-3.601-22.321-2.159 16.561-.361.359v2.521l.361.36v1.08l.36.359v.361l.36.359-10.081-1.439v-.361h.361v-.359l.36-.36.36-.361v-.719l.36-.361v-1.439l.36-.361v-1.439l.36-.721v-1.08l.359-.72v-1.08l.361-1.439.36-1.441.36-1.799v-2.16l.359-2.161.721-2.16.359-2.519.361-2.88.36-3.24.719-3.241.361-3.239v-1.44l.36-.72v-6.84l-.36-.36v-.72l-.361-.721v-.359l8.641 1.8 2.879 20.88 8.281-19.08 10.44 1.08h-.36v.36l-.361.359-.359.361v.36l-.36.359v.361l-.361.36-.36.359v.72l-.359.361v1.08l-2.161 19.08-.359 2.519-.36 2.521-.361 2.16v2.16l-.359 1.8v3.239l-.36 1.801v6.84l-10.08-1.8.359-.36.361-.361v-.359l.36-.36zM322.439 187.4l-1.44-.72-1.438-.36-1.442-.72-1.08-.72-1.439-1.08-1.441-.72-1.44-1.08-1.078-1.44-1.442-1.081-1.44-1.439.36-.72v-1.44l.36-.36.36-.72v-.361l.36-.359.362-.72.358-.36.36-.36.72-.36.36-.36.36-.36.72-.36h.36l.721-.36h.719v1.08l.361 1.08.359 1.08.721 1.08.359.72.72.72.72.72.72.72.362.36 1.08.72.718.359.72.361 1.08.36h.72l1.08.36H326.759l1.44.36 1.08-.36h1.08l1.08-.36 1.081-.36.719-.361 1.079-.719.721-.72.72-.36.72-.72.72-.72.362-.72.358-.36.36-.721v-.719l.36-1.08v-3.96l-.36-.72-.36-1.08-.358-.72-.722-.72-.72-.36-.721-.72-.718-.36-1.08-.72-1.08-.36-1.081-.36-1.44-.36-4.319-.721-1.08-.359h-1.08l-.721-.36h-.72l-.72-.36h-.718l-.722-.36h-1.08l-.72-.36h-.36l-.361-.36h-.718l-.362-.36-1.079-.72-.719-.36-.721-.72-.72-.72-.72-.72-.36-.72-.358-.72-.362-.72-.36-.72v-1.08l-.358-1.08v-.72l.358-1.08v-1.08l.36-.72.362-1.44 1.078-2.16 1.08-1.8 1.801-1.44 1.439-1.08 2.16-.72 2.16-.72H327.839l2.16.36 2.16.72 2.159 1.08 1.801.72 1.8 1.44 1.8 1.08 1.08 1.44.36.36.361.36v1.08l-.361.72v.36l-.36.36-.72.72-.36.36-.72.36-.36.36-.72.36-.358.36-.722.36h-.36l-.36.36-.721-1.44-1.08-1.44-1.079-1.08-1.44-1.08-1.44-.72-1.44-.36-1.8-.36h-2.88l-1.44.36-1.44.36-1.08.72-.718.72-.722 1.08-.36 1.44v1.08l.36.36.36.36.362.36.358.36.36.36.362.36.718.36h.36l.36.36h.72l.36.36.72.36h1.08l.721.36h1.079l4.32 1.08 3.96 1.08 3.6 1.44 2.52 2.16 2.159 2.16 1.441 2.52.72 2.52.36 2.88V173l-.72 2.88-1.08 2.52-1.439 2.52-1.801 2.519-2.16 1.801-2.52 1.44-2.88 1.08-2.88.719h-2.52l-1.441-.359h-1.439l-1.439-.36zM234.239 192.439l-1.44-.359-1.44-.36-1.44-.72-1.44-.36-1.439-.72-1.44-1.08-1.44-.72-1.441-1.08-1.44-1.08-1.44-1.08V182l.36-.36.361-.72v-.36l.359-.72.36-.361.361-.359.36-.36.719-.36.361-.36.359-.36.721-.36.36-.36h.719l.361 1.08.359 1.08.721 1.08.36.72.719.72.72.72.72.72.72.72.721.36.719.36 1.08.36h.72l1.08.36h2.52l1.44.36h1.08l1.08-.36 1.08-.36 1.081-.36 1.08-.36.719-.721.721-.719.719-.72.72-.72.72-.72.361-.72.359-.361.36-1.079.361-.36v-4.68l-.361-1.08-.36-.72-.359-.72-.721-.72-.36-.72-1.08-.36-.72-.72-.72-.36-1.08-.36-1.08-.36h-1.08l-1.44-.36-4.679-.36H232.799l-1.08-.36h-2.159l-.721-.36h-1.08l-.719-.36h-1.081l-.359-.36h-.361l-1.079-.72-.721-.36-1.08-.36-.719-.72-.721-.72-.359-.721-.721-.719-.36-.72-.359-.72v-1.08l-.361-.72v-3.96l.361-1.08.719-2.16 1.08-2.16 1.44-1.8 1.801-1.08 1.799-1.08 1.8-.72 2.16-.36 2.161-.36h4.679l2.16.36 2.161.72 1.799.72 2.161 1.08 1.439 1.08 1.44 1.08.721.72v.36l.36.72v.36l-.36.36v.72l-.361.36-.36.72-.72.36-.36.72-.719.36-.361.36-.36.36-.72.36-.36.36h-.36l-.72-1.44-1.08-1.08-1.44-1.08-1.44-.72-1.44-.72-1.799-.36H233.159l-1.44.36-1.44.36-1.44.72-1.08.72-.719.72-.36 1.08-.361 1.44.361 1.08v.36l.36.36.359.36.721.36.359.36h.36l.36.36h.72l.36.36H231l.719.36h1.08l.721.36h1.439l4.681.36 3.96.72 3.599 1.079 2.52 1.801 2.52 2.16 1.801 2.16 1.079 2.879.72 2.521.36 2.88-.36 2.88-.72 2.88-1.44 2.52-1.44 2.52-2.159 2.16-2.161 1.8-2.52 1.44-3.24.72-1.44.36h-3.96l-1.44-.36zM279.599 147.08H277.799l-.36.36H276l-.361.36h-.72l-.359.36-.361 35.64v.72l1.08 2.16-9.719 1.799 1.079-2.159v-.72l.361-37.08-.361-.36h-.36l-.719-.36h-1.801l-.719-.36H261.599l-.72.36h-3.6l-.719.36H255.119v.36h-.72l-.359.36h-.361v.36h-.36l-.36.36h-.359v.36h-.361v-8.28l34.56-1.8v8.28l-4.32-1.08h-2.16zM477.959 621.559l-.72-.72-.72-.36-.36-.72-.721-.72-.359-.721-.36-.719-.72-1.08-.36-1.081-.36-1.08v-1.08l-.36-.719-.36-.72-.36-1.08v-.72l-.36-1.08-.36-1.08v-.721l-.36-1.079-.36-.721v-1.08l-.361-.719v-1.08l-.359-.72v-1.08l-.36-.72-.361-1.08-.359-1.8-.36-1.44-.36-1.441-.36-1.439v-1.08l-.36-1.441-.36-1.08-.36-.72v-1.08l-.361-.719v-.72l-.359-.36v-1.08h-.36v-.72l-.361-.361v-.719h-.359v-.361l-.36-.359-.36-.36-.36-.361-.36-.359-.36-.36 9-2.52v.359l-.36.361v1.44l.36.36v1.44l.36.359v.721h.36l.36 2.159.36 1.801.36 1.439.359 1.8.361 1.441.36 1.44.359 1.44.361 1.799.36 1.441.36 1.8.72 1.799.36 2.161 1.08 2.16.719 2.16.721 2.519 1.08 2.88.36.721.36.359.36.361.72.359.72.36h2.88l.36-.36.72-.359.36-.72.359-.721.361-1.08v-2.519l-.361-.361-.359-1.08-.36-1.439-.361-1.441-.719-2.16-.72-2.519-.72-2.521-1.08-2.519-.721-2.52-.719-2.52-.72-2.161-.72-2.16-.72-1.799-.36-1.44-.36-1.08-.361-.36-.359-.361v-.719l-.36-.36v-.36l-.361-.361v-.359h-.359v-.36l-.36-.361-.36-.359-.36-.36-.36-.361-.36-.359 8.279-2.521 1.801 5.401 1.44 4.32 1.44 4.319 1.44 3.601 1.08 3.6.719 2.88 1.08 2.879.721 2.161.36 2.16.36 1.8.36 1.44.36 1.439v1.081l.36 1.08v.719l-.36.721v1.439l-.72 1.441-.36 1.08-1.081 1.08-.719 1.079-.72.721-1.08.72-.72.36-1.08.72-1.08.36h-1.08l-1.08.359H482.639l-1.08-.359h-.72l-.72-.36-.721-.361-.719-.359zM498.479 214.399l.36.361h.36l.36.36.36.359.359.361.361.36v.36l.36.359.359.361.361.72v1.08l-.361.72-.359 1.08-1.08.72-1.08 1.08-1.441 1.08-1.439.719-1.8.361-1.801.72h-3.96l-2.159-.36-2.16-.721-2.16-1.08-2.16-1.799-1.08-1.08-1.08-1.081-1.08-1.08-.72-1.079-1.08-1.44-.72-1.08-.72-1.08-.36-1.44-.72-1.44-.36-1.441-.36-1.44-.36-1.44-.36-1.439V194.6l.72-4.68 1.44-4.32 1.439-3.24 1.801-2.881 2.52-2.159 2.16-1.8 2.519-1.081 2.521-.719h2.519l2.521.36 2.519.72 2.161 1.08 2.16 1.8 1.44 1.799 1.44 2.161-.361.72-.359.72-.36.72-.36.72-.36.72-.72.36-.36.72-.361.36-.359.36-.36.72-.361.36h-.359l-.36.359-.72.361-.36.36h-.36v-2.16l-.721-1.8-.719-1.44-1.08-1.44-1.44-.72-1.08-.36h-1.801l-1.439.36-1.441 1.08-1.439 1.44-1.44 1.8-1.08 2.519-1.081 2.881-.719 3.24-.361 3.96.361 4.68.36 3.239 1.08 2.88 1.08 2.161 1.08 1.799 1.44 1.441 1.44 1.08 1.44 1.079 1.44.361 1.44.36h2.52l1.08-.721 1.08-.359.72-.72.36-.72.36-1.08v-1.44l.36.359.72.36h.719l.361.361.36.36zM222 589.879l.359.359h1.08l.36.361h.361l11.159 32.04 1.08-28.8v-1.441h-.359v-1.08l-.36-.359h2.159l.36.359H241.08l.359.361h.72l.361.36h.719l.361.359.359.361.36.36-.719 4.319-.361 5.041-.36 3.959v3.96l-.359 3.601v3.239l-.361 3.241v2.879l-.36 2.521-.36 2.519v4.321l-.359 1.8v1.799l-.361 1.08v1.441l-.36.72v.719h-3.239l-.721-.359h-1.08l-.36-.36h-.72l-.36-.361h-.359l-.361-.359-.36-.36-2.159-5.041-.721-1.799-.359-1.441-.721-1.8-.36-1.08-.72-1.439-.36-1.441-.719-1.08-.361-1.08-.36-1.08-.359-1.08-.361-.72-.36-1.08-.359-.719-.36-.72-.361-.36v-.72l-1.44 21.96h-5.4l-.359-.361H214.799l-.36-.36h-.359l-.36-.359.36-.361v-.359l.359-.721v-.719l.36-.72.361-.721v-1.08l.36-.72v-2.519l.359-1.08v-1.441l.36-1.08v-1.439l.361-1.441v-3.599l.359-3.241.36-3.24.361-2.88v-5.04l.36-2.159V596.719l.359-1.441v-1.08l-.359-1.079v-2.52h-.36v-.72h-.361v-.36h-.36v-.361l4.32.721h.361zM188.879 198.92v-.72l.361-.36V156.8l-.361-.36v-.36l-.359-.36v-.36l-.36-.36-.361-.36-.36-.36-.359-.36h-.36L213 147.8V150.68l.359.36v2.52l.361.72v1.08h-1.08l-.361-.36h-5.759l-.721.36h-.719l-.721.36h-.719l-.721.36h-1.08l-1.079.36-.72.72-1.44.36-1.08.36-1.44.72v8.28h2.52l.359-.36H200.76l.719-.36h.721l.719-.36.721-.36h.719l.721-.36.719-.36.721-.36h.719v.36l.361.36v.72l.359.36v1.08l.36.36v1.44l.361.72V171.56l.36.72h-1.801l-1.079.36H204.359l-1.08.36h-1.44l-1.079.36-.72.36-.721.36h-.719l-.721.359-.719.361-.361.36-.719.36v9l.359.72v5.04l.36.72H198.6l1.08-.36 1.08-.36 1.079-.36 1.08-.36 1.44-.36 1.44-.36 1.08-.361 1.44-.359 1.08-.36 1.44-.36 1.44-.36 1.08-.36 1.44-.36 1.44-.36v1.08l-.36 1.08v2.52l-.359.72v1.079l-.36.721v.36l-.361.36-.36.36-.359.36h-.36v.36h-.361l-25.92 5.76.36-.36.361-.36v-.36h.36v-.36zM369.959 190.28h-1.8l-1.8-.72-1.798-.36-1.802-.36-1.8-.361-1.8-.359-1.8-.36-1.44-.36-1.44-.36-1.799-.36-1.08-.36 1.439-4.68h.359v-1.08l.721-32.76h-.36V145.64h-.361v-.36l-1.08-3.6h.721l1.44.36h3.24l2.16.36h2.16l2.16.36 2.16.36 2.161.36h2.16l2.159.72h2.16l1.8.36 1.44.36 1.079.36 1.08.36.721 7.92-6.48-2.52-1.078-.36h-1.802l-1.079-.36h-2.16l-1.081-.36h-5.4l-.359.36h-.362v8.64h.721l.359.36h1.081l.72.36h6.84l.72-.36v7.56H370.318l-.718-.36H368.159l-.72-.36h-1.08l-.72-.36H363.839l-.72-.36h-.36l-.72.36h-.359v.72l-.362 1.08v11.16l.362 1.08v.72l.359.36h.359l.361.36h1.08l.36.36h1.44l.72.36.72.36H368.52l.719.36h.72l.721.36h1.799l.36.359H376.439l.36-.359H379.68l.718-.36h.721l-3.599 8.64h-1.441l-1.44-.36h-1.44l-1.801-.36zM187.08 632.719l.359-.361h.36v-.36l.361-.359.36-.361v-.719l.359-.361v-.359l.361-.721v-1.439l.36-2.16.359-2.52.36-3.24.361-3.24.36-3.6.359-3.601.361-3.239.36-3.6v-3.241l.359-2.88v-2.879l.36-1.8-.36-1.441v-1.08l-.719-3.239 21.599 3.239v1.08l.361.361v2.88l.36.719V596.358l.359.721v.72l-4.68-2.521H207.959l-.72-.359H204.72l-.72-.36h-3.601l-.359.36-1.44 11.519.359.361h2.52l.36.359h1.08l.721.361h1.44l.719.36h1.44v4.319l-.36.361v1.44l-.359.359v.72h-.721l-.36-.359h-1.08l-.359-.361H202.2l-.361-.359h-2.159l-.721-.36h-.719l-1.801 14.4 10.8 1.44h2.52v-.361h.361l.359-.359-1.439 5.399v.361l-.36.36v1.8L186 633.438l.359-.36h.361l.36-.359zM464.639 614.358l.719.361.361.359h.36l.359.36.361.361.72.359.36.361.36.36.72.359.359.361v1.08l-.359 1.439-.36 1.08-.36 1.08-.36 1.08-.72 1.08-.721.72-.719.721-.72.72-.72.719-.72.361-.72.719h-.72l-.721.361-.719.359h-.361l-.719.361h-1.08l-1.081-.361-1.439-.359-1.44-.361-1.44-.719-1.44-1.08-1.8-1.441-1.441-1.8-1.799-1.799-1.08-2.52-1.44-2.881-1.08-3.239-1.08-3.96-.72-4.32-.36-5.04-.36-4.321.36-3.239.72-3.24.72-2.16 1.44-2.16 1.44-1.081 1.44-1.08 1.799-.719h3.601l1.8.36 1.8.359 1.44.721 1.44.72 1.44.72 1.08.719v1.441l-3.601 6.84V591.679l-.359-.72-.36-.721-.36-.359-.36-.36-.72-.72h-.36l-.72-.361h-.36l-.72-.359h-1.44l-.36.359h-.72l-1.08.361-1.081 1.439-.719 1.801-.36 2.159-.36 2.521.36 2.88v2.88l.72 2.879.72 3.241 1.08 2.88 1.08 2.52 1.439 2.52 1.441 2.16 1.8 1.439 1.799 1.08 2.161.721h.36l.359-.36h.361v-.361h.36l.359-.359.361-.36v-.361l.36-.359v-6.481h.36l.36.361h.72l.36.36.36.359zM81.96 247.879V246.8l.36-.361V245l.36-47.521v-.719l-.36-.361v-.359l-.36-.36v-.36h-.36l-.36-.36v-.36h-.36l-.36-.36h-.72l1.44-1.08 1.44-.721 1.44-.719 1.08-.72 1.08-.36 1.44-.72 1.08-.36.72-.72 1.08-.361 1.08-.359 1.08-.72.72-.36.72-.36 1.08-.36.72-.36 1.08-.36.36-.36.72-.36.36-.36.72-.36h.72l.36-.36.72-.361.72-.359h.36l.72-.36.72-.36.72-.36.36-.36.72-.36.36-.36.72-.36.36 8.28H105l-.72.36h-.36l-.72.36-.72.72-1.08.36-1.08.36-.72.72-1.44.719-1.08.721-1.44.72-1.44.72-1.8.72-1.8 1.079-.36.721v.359l-.36.721v.72l-.36.36v3.24l-.36.36v3.96l1.08-.361.72-.359h.72l.72-.36.72-.361.36-.359h.72l.72-.36.36-.36h.36l.36-.361h1.08v-.359h.36l3.96-2.161v.721l.36.36v.72l.36.36v1.08l.36.36V209l-.72.359h-.72l-.72.361h-1.08l-.72.36-.72.359h-.72l-.72.361-1.08.36-.72.36-.72.36-.72.36-1.08.36-.72.359-.72.721-1.08.36v26.64l.36.36v.359l.36.361.36.36.36.359-10.08 6.48h.36v-.359l.36-.36zM520.079 215.84h-.36l-.72-.361-.721-.719h-.359l-.72-.72-.72-.36h-.72l-.72-.721-.721-.359h-.719l-1.08-.36v12.96l.36 1.08v1.079l.359 1.08v.361l.361.72v.359l.36.361.359.36v.359l.361.36.36.361h.359l9.721 4.679h1.08V236h.72l.359-.36h.361l.36-.36h.359l.361-.361-1.08 11.161-1.08-.36-1.08-.72-1.081-.721-1.439-.719-1.08-.72-1.441-.72-1.439-.721-1.44-.719-1.8-1.08-1.441-.721-1.799-1.079-1.8-.72-1.8-1.08-2.16-1.081-1.8-1.079-2.16-1.08.36-.361.36-.359v-.36l.36-.361.359-.36v-.359l.361-.36v-.361h.36V185.96l-.36-.36v-.72l-.361-.36v-.36l-.359-.36v-.361l-.36-.359v-.36l-.36-.36v-.72l-.36-.36h.36l.72.36h.359l1.08.72.721.36.72.36 1.44.359 1.079.721 1.441.72 1.439.36 1.441 1.08 1.799.72 1.801 1.08 1.8.72 2.159 1.08 1.08.72.721.36 1.08.36.72.72.72.72.72.36.72.72.72.72.36.36.359.72.361.719.36.721.359.72v.72l.361.72v.36l-.72 3.96-.721-.36-.719-.72-1.08-.36-.72-.721-.72-.719-1.08-.36-.721-.72-1.08-.36-1.08-.72-1.079-.72-1.08-.361-1.08-.719-1.08-.361-1.08-.719-1.441-.72-1.439-.36.72 10.44.719.72.361.36.719.359.721.721h.72l.72.36.719.359.721.361.72.36h.36l.72.36.72.359h.719l.361.361h.719l.361.36-.72 7.56h-.721l-.359-.721h-.721l-.359-.719zM397.679 633.438l-.72.72-1.08.721-.72 1.08-1.08.72-.72.719-1.08.361-1.08.72-1.08.36-1.439.359h-2.16l-2.161-.359-2.16-1.08-1.44-1.08-1.8-1.8-1.439-2.16-1.081-2.16-1.08-2.52-1.08-2.881-.36-2.519-.72-2.88-.36-3.24-.36-2.88V605.358l.36-2.879.36-2.52.72-2.521.72-2.16 1.08-1.799.72-1.44 1.44-1.44 1.08-.72 1.439-.721 1.081-.72 1.44-.359h2.52l1.44.359h1.08l1.08.361.72.72 1.44.719.72.721 1.08.359.72 1.08.36.721.36.72.36.72v1.799l-.36.721-.36 1.079-.36 1.08-.72 1.08-.72 1.08-1.08 1.441-1.08 1.08-.36-.721v-.719l-.361-.72-.359-.72v-.721l-.359-.719-.362-.361-.359-.719v-.361l-.359-.359v-.361l-.361-.359-.36-.36-.359-.361h-.361l-1.8-.359-1.44.72-1.08 1.08-.72 1.8-.721 2.16-.359 2.519V610.039l.359 2.88.361 3.239.36 2.881.72 2.88.72 2.519.72 2.161.72 1.44.72 1.079.36.361.36.719v.361l.72.36h.361l.359.359.36.361H388.68l.718-.361h.361l.36-.359.36-.36.36-.72.36-.721v-10.079h-.36v-.721H387.239l-.36.361h-.72v.36l-.72.359-.36.361-.36-2.521V611.119h.36l.36-.36 12.6-.72 1.08 19.44v.719l-.36.721-.36.72-.36.719zM129.479 621.919h.361v-.36l.36-.361v-.359l.36-.36v-.72h.36v-.72l6.48-34.56-.36-.36-.36-.36h-.36l-.72-.361h-.36l-.36-.359h-.36l-.36-.36H132.36l-.36-.361h-.72l-2.52.361v-2.52l.36-.721v-1.439l.359-.36v-.72l.361-.36v-.72l.36-.72 23.4 5.04V584.479l-.36.719v.361l-.361.719v.361l-.359.719v.361l-.36.36-.36-.36h-.361l-.359-.361h-.36l-.36-.359H150l-.72-.36h-1.08l-.721-.361h-1.08l-.359-.359h-1.081l-.359.72-.36 1.44-.36 1.8-.36 2.16-.72 2.88-.72 2.88-.72 2.88-.72 3.24-.721 3.239-.359 3.24-.72 2.88-.72 2.521-.36 2.519-.36 1.441v1.439l-.36.361v3.96l-9-2.52h.36l.36-.36.36-.361zM254.759 639.559l.36-.361v-.719l.36-.361v-1.439l1.081-37.08h-.721l-.72-.361H247.919l-.359-.359V597.079l-.361-.36v-4.321l.361-.719 25.559 1.8V601.398h-.72l-.36-.359h-.72l-.36-.36h-.72l-.36-.361h-.72l-.72-.359H267l-.721-.36h-1.44l-.72.36h-.36l-1.44 36.72v2.16h.36v1.08h.361v.359l.359.72.36.36h-10.08l.361-.36v-.359l.359-.361.36-.359zM320.999 629.479v5.04l.36 1.08v2.16l.36.72v1.44h.36v.72l.36.359v.36l.36.361.36.359h.361-10.441l.36-.359.36-.361.36-.36v-.359h.361v-.72l-1.441-43.561-1.08-2.879h22.681l1.079 8.64-.361-.36-.359-.361h-.721v-.359H320.279v8.64l.362.719V612.198h5.757l.721-.359h1.8l.36-.36h1.08l-.36 7.2h-2.16l-.36-.361h-4.68l-.36.361h-1.44v9.719zM434.398 631.998v-.359h-.359v-1.441l-7.92-45 .72-.359h.36l1.08-.36h2.159l.721-.36H434.759v.36h-.361v.36h-.359v4.68l.359.719 6.841 38.521.36.359v1.08h.36v.721h.36v.72h.36v.359h.36v.36l-9 1.441v-1.441h.359zM458.519 212.24v-.36l.36-.36.36-.36v-1.08l.36-.36v-.361l-.36-40.319V166.16l-.36-.36v-.36l-.36-.36v-.36l-.36-.36V164l-.36-.72v-.36l9.36 3.96-.721 1.8-.359.72v18.36l.359 3.6v9l.361 4.68v11.52h-.72l-8.641-3.241h.361v-.36l.36-.359v-.36z"/><path d="m91.08 429.479-1.44 2.16-2.52 2.16-2.88 1.8-3.24 1.44-3.6 1.08-3.6 1.08-3.96.357-3.96.36-4.32-.36-3.6-.72-3.6-1.08-3.6-1.8-2.88-2.16-2.16-2.52-1.8-3.24-1.08-3.96-.36-.72v-2.886l.36-.72v-4.322l.36-.358v-.36l.36-.357.36.357h.72l.36.36H47.16l39.6.72h1.08l.36-.357h.72l.36-.36h.36l.36-.36h.72l.36-.357v1.08l.36.72v1.08l.36.72v1.08l.36.72v5.76l-.36.723v1.08l-.36 1.08-.36 1.08zm-41.76-7.2.72 2.16.72 1.438.72 1.8 1.44 1.08 1.08 1.08 1.8.72 1.44.723 1.8.357 1.44.723 1.8.357h8.28l1.08-.357 1.8-.36 1.44-.36 1.8-.357 1.08-.36 1.44-.72 1.08-.36 1.08-.358.72-.722.72-.72.72-.36.36-.72.36-.72.36-.722V424.08l-.36-.72-1.8-.36h-2.16l-2.16-.36h-2.16l-2.52-.357h-4.68l-2.16-.36H55.44l-2.16.36h-1.8l-2.16-.004zM75.6 492.119l-1.08-.36-1.08-.72-1.44-.36-.72-.72-1.08-.359-1.08-1.08-.72-.721-.72-.72-1.08-1.08-.36-1.08-.72-1.08-.72-1.439-.36-1.08-.72-1.439-.36-1.439-.36-1.802h-9.36l-1.44.36h-1.08l-1.08.359-1.08.358h-1.08l-.72.36-1.08.359-.72.358-.72.36-.36-.36-.36-.72v-.721l-.36-.722v-.72l-.36-.72v-.722l-.36-1.08V471.948l-.36-.72v-2.157l.36.359H46.08l9.36-.359 30.24-3.24H87.48l.36-.358h1.08v-.359h.36l.36-.36H90l.36-.358.36-.359.36-.359 2.16 12.96v.359l.36.359v3.595l-.36.359v.718l-.36 1.08-.36.72-.36 1.08-.72.72-.36 1.08-1.08.73-.72.721-1.08 1.08-1.08.72-1.44.72-1.08.36-1.8.72h-1.44l-1.8.36H75.6zm-3.96-16.56v1.802l.36 1.438.36 1.08.36 1.08 1.08 1.08.72.359.72.721 1.08.359 1.08.358.72.36h1.08l1.08-.36h1.08l.72-.72 1.08-.36.72-.72.36-.359.36-.359.36-.72.36-.722.36-.72v-1.443l.36-.72v-1.08l-.36-.358v-1.08h-.36l-.36-.359-13.32 1.443z" style="fill:#ffe363"/><path d="m72 531.719-.36-.358h-.36l-.72-.361-.36-.36-.36-.72-.72-.359-.36-.721-.72-.358-.36-.722-.36-.358-.72-.722-.36-.72-.36-.359-.36-.359-.36-.359v-.358l.36-.36.36-.358.36-.359.36-.359.36-.359.36-.359.36-.359.72-.358.36-.36.36-.358.36-.722v-.357l.36-.36.36-.359v-.721l.36-.359-2.88-3.238v-.36h-.36v-.359l-.36-.358-.36-.36v-.359l-.36-.358-.36-.36-.36-.72-.36-.36-.36-.72-.36-.72-.36-.36-.36-.72-.36-.72-.36-.73H60.48l-.36.359h-1.8l-.36.36h-.36l-.36.358h-.72l-.36.359h-.72l-.72-1.08-.36-1.08-.72-.72-.36-1.08-.36-.721-.36-.721-.36-.359-.36-.721v-.721l-.36-.358v-1.08h-.36v-1.079l-.36-.36.36.36h.72l.36.358h.72l.36.359h1.08l.36.359h1.44l.36-.359 31.68-7.2 4.32-1.08.36-.358h.72l.36-.359h.36l.36-.359h.36l.36-.358.36-.36.36-.358.36-.359.36-.36v-.357l.36.357.36.36.72.72.36.36.36.358.36.359.36.72.36.722.36.358.36.722.36.358v.721l.36.359.36.72.36.36.36.359-1.44 1.08-1.44 1.438-1.44 1.439-1.8 1.8-2.16 2.16-1.8 2.16-2.16 2.521-2.52 2.159-2.16 2.521-2.16 2.521-2.16 2.16-1.8 2.521-1.8 2.16-1.8 2.159-1.44 1.801-1.08 1.439-.36.358-.36.359v.717l-.36.36v1.077l-.36.354v.361zm18-32.401-20.16 5.398v.72l.72.723.36.357.36.722.36.721.36.359.36.721.36.359.36.721.36.72.36.359.72.721.36.359.36.721.72.359.36.721.36-.36.72-.72.72-.721.72-.721 1.08-1.079 1.08-1.08 1.08-1.08 1.08-1.439 1.08-1.08 1.08-1.438 1.08-1.08 1.08-1.08.72-1.079.72-.721.72-.722.36-.361zM105.84 553.679h-.36l-.36-.358h-.72l-.36-.359h-.36l-.36-.36h-.72l-.36-.358h-.72l-.72-.359-.72-.358-.72-.36-.72-.359-.72-.721h.36l.36-.359.36-.358.36-.359v-1.795l1.08-18.72h-.72l-.36-.359h-.72l-.36-.359h-.72v-.359h-.72v-.359h-.36l-.36-.358h-.36l-.36-.36-.36.721-.36.722-.36.358-.36.721-.36.358-.36.721-.36.359-.36.36-.36.358v.359l-.36.721h-.36v.359l-.36.358v.359l-.36.36-.72.714-.36 1.08-.72.721-.36.721-.36.359-.36.72-.36.722-.36.358v.359l-.36.721v.359l-.36.358v2.16h-.72l-.36-.359-.36-.359h-.36l-.72-.359-.72-.72-.72-.359-.72-.359-.36-.721-1.08-.359-.36-.72-.72-.36-.36-.72-.72-.359v-.721h.72l.36-.359h.36l.36-.358h.36v-.36h.36l.36-.359.36-.358.36-.36.36-.358v-.359h.36v-.36l5.4-7.198 2.16-2.521 1.8-2.88 1.44-2.16 1.8-2.52 1.44-2.16 1.44-1.801 1.08-1.801 1.44-1.801.72-1.438.72-1.08 1.08-1.44.36-.72.36-.721.36-.722.36-.357v-.719l.36-.358v-.718h.36v-2.874l7.56 6.118 2.16 2.16 2.16 1.8 1.08 2.16 1.08 2.16.72 2.16.36 2.159-.36 1.801-.36 2.16-.72 1.8-1.08 1.439-1.44 1.8-1.44 1.438-1.8 1.08-2.16 1.08-1.8.72-2.52.722v2.521l-.36 2.16v4.319l-.36 1.801v6.478l-.36 1.08v4.314l.36.358v.698zm1.44-43.92-.36.36v.357l-.36.36-.72.72-.36.722-.72.721-.36 1.08-.72.72-.72 1.08-.72 1.08-.36.72-.36.72-.36 1.08-.36.36v1.077h.36v.358l.36.359h.72l1.08.72 1.08.36h1.08l1.08-.36h1.08l.72-.357 1.08-.722.72-.721.72-.72.72-.72.36-1.08.36-.723v-3.237l-.36-1.08h-.36l-.36-.36v-.717l-.36-.36h-.36l-.36-.358v-.359h-.36l-.36-.36-.36-.357h-.72l-.36-.36h-.36l-.36-.003zM287.279 577.438l-1.08-.358h-.72l-1.08-.359-.72-.721-1.08-.72-.72-.359-.72-.721-.72-1.08-.36-.72-.72-1.08-.72-1.08-.36-1.08-.36-1.439-.72-1.08-.36-1.438v-1.439l-.36-1.438-.36-1.439-.36-1.44v-2.518l-.36-1.44V547.935l.36-1.08v-1.08l.36-1.08v-1.08l.36-1.8.72-1.8.36-1.801.36-1.439.72-1.439.72-1.438.72-1.08.72-1.08.72-1.08 1.08-.72.72-.722 1.08-.721 1.08-.357 1.08-.36 1.08-.359 1.08-.358 3.6.358 2.88 1.439 2.52 2.16 2.16 3.6 1.439 3.96 1.08 4.32.721 5.04v5.04l-.36 5.04-.72 4.68-1.439 4.319-1.801 3.961-2.16 3.238-2.52 2.159-3.24 1.08h-3.6v-.017zm1.08-41.759-1.08.722-1.08 1.078-.72 1.802-.72 2.16-.72 2.158-.36 2.88-.36 2.882-.36 2.88v3.238l.36 2.882v2.88l.72 2.521.72 2.16 1.08 1.8 1.44 1.439 1.44 1.08 1.8-.722 1.44-1.438 1.44-1.8.72-2.521.72-2.88.36-2.88.36-3.24v-3.24l-.36-3.238-.36-2.88-.72-2.882-.72-2.52-1.08-1.801-1.08-1.439-1.44-1.08h-1.44v-.001zM353.52 527.039v1.439l.359.358v1.8l.359.36v1.44l.361.722v.721l.357.359v1.08l.359.721.358.72.36 1.8.72 1.802.36 2.158.72 2.16.722 2.521.719 2.521.722 2.521.358 2.521 1.08 2.521.721 2.521.359 2.521 1.079 2.159.36 2.521.72 1.801.722 1.801.358 1.438v.36l.36.358h.359v.718h.358v.359h.358v.359l.36.358h.359l-9.359.722-1.079-6.12-11.521.359-1.802 7.199h-9l.36-.359.359-.359.36-.359.358-.358v-.359h.358v-.718h.359v-.718h.359v-1.076l.359-.36 7.562-36.358v-.721l.358-.721v-5.034l-.358-.358v-.718l.358-.359h.361l.719-.359h.359l.721-.359h1.796l.722-.358h.358l.36.358H353.501v-.02h.019zm-2.161 19.8-3.603 14.76h.719l.719.36h4.319l.719-.36h1.438l-4.311-14.76zM408.599 571.679l-10.8.722h.36v-.719h.357v-.717h.36v-7.552l-.36-1.8v-1.802l-.357-1.8-.36-2.521v-2.521l-.357-2.521-.36-3.24-.36-3.239-.357-3.24-.723-3.96v-2.518l-.357-1.08v-1.439l-.36-1.08v-.72l-.359-1.08v-.72l-.358-1.08-.36-.721v-.722l-.358-.358v-.721l-.359-.359-.359-.359v-.72l5.039-.36 4.682-.358 3.239-.359 2.881.359 2.521.358 2.16.722 1.8 1.438 1.439 1.08 1.438 1.8.721 1.439.722 1.801.358 1.8.359 1.802v1.8l-.359 1.8-.358 1.44-.36 1.438-.72 1.439-.36.358v.359l-.358.36-.359.358-.36.359v.718h-.358l-.359.359v.358l-.359.36-.358.359-.36.358 2.881 5.76 3.96 10.802.359.358v.359l.359.359v.359l.358.359.36.721v.359l.358.358v.359l.359.36.359.358v.359l.359.359.359.359h.359l-.359.359h-1.077l-.72.358h-2.16l-.721.36h-1.442l-.72.359h-2.523l-.72-1.802-.359-2.158-.358-1.802-.721-1.438-.359-1.801-.721-1.439-.722-1.44-.358-1.078-.722-1.08-.357-1.08-.722-1.079-.721-.723-.72-.72-.721-.358-.359-.722-1.08-.358v.358h-.359V561.581l.359 1.08v2.16l.36 1.08.357 1.079.36 1.439v.718l.359.358v.719h.358v.718h.36v.357h.357l-.003.39zm-6.12-42.481 2.16 13.681H407.88l1.44-.721 1.08-.72.72-1.08.357-1.439.723-1.08v-3.958l-.36-1.439-.72-1.079-.36-.722-.72-.72-1.08-.721h-1.08l-5.401-.002zM507.959 466.919v-19.443l.72-1.8 1.08-1.8 1.44-1.439 1.8-1.438 1.8-1.08 2.16-.72 2.16-.723 2.159-.357h2.158l2.16.72 2.16.72 2.16 1.44 1.8 1.8 1.439 2.16 1.078 2.88H535.67l.36-.359h1.079l.721-.358h.72l.72-.36h.722l1.08-.358h.721l1.08-.359 1.08-.359h1.079l.721-.358h.359l.721-.36h.72l.72-.359h1.08l.72-.358.723-.36h.72l.359-.358h.721l.358-.359.722-.359.358-.359.359-.359.359.359V452.174h-.721l-.721.359h-1.8l-1.08.358h-.721l-1.079.36h-1.44l-1.079.358-1.439.359-1.439.359-1.438.359-1.439.359-1.439.359h-1.8l-1.801.721v3.96h2.877l1.08.359h3.24l1.438.358h8.639l1.08-.358h.72l.359-.359-.359 10.8-.359-.358h-.358v-.359h-.36v-.36h-.717v-.358h-1.077v-.359h-.719l-36.72-2.88h-.36l-.359-.359h-3.229l-.359.359h-.36l-.358.359h-.722l-.374.349zm11.88-21.24h-.36l-.357.36h-.72l-.359.359h-.718v.358h-.359l-.359.36h-.359v.357l-.359.36-.358.36-.36.357v.36l-.359.72v1.08l-.358.72v3.963l.358 1.08v1.08l.359.721v1.079l12.24.36h.358v-.36l.36-1.079v-6.117l-.36-1.801-.72-1.08-.359-1.438-1.079-.72-1.08-1.08-1.439-.36h-3.253v.001zM413.639 136.08l-11.16-3.24-.357-1.44-.72-1.439-.36-1.44-.36-1.08-.357-1.08v-1.08l-.36-1.44-.359-1.08-.358-1.08v-1.44l-.36-1.44-.72-1.08-.36-1.8-.357-1.44-.723-1.8-.72-2.16-.359-.36h-1.079l-.722-.36h-1.08l-.357-.36h-2.157v.36h-.358l.358 19.8-10.08-2.16 1.438-2.16v-.36h.359v-1.44l.36-36.72v-1.08l-.36-.36v-1.44l-.359-.36v-.72l-.358-.36-.358-.36v-.36l-.359-.36V81l-.36-.36h2.163l.72.36H384.861l1.08.36h2.519l1.079.36 1.438.36 1.44.36h1.438l1.44.36 1.8.36h1.8l2.16.72 2.521.72 1.801 1.08 1.8 1.08 1.439 1.44 1.079 1.8 1.079 1.8.36 1.8.359 2.16v1.8l-.722 2.16-.357 1.8-1.08 2.16-1.44 1.8-1.8 2.16-2.16 1.44.36 1.8.358 1.8.359 1.44.36 1.44V117l.357 1.44.36 1.44.36 1.08.72 1.08.358 1.44.359 1.08.72 1.44.36 1.08.36 1.08.72 1.08.72 1.44 2.874 5.4zm-23.76-47.52V101.52h1.08l.36.36H399.6l.723-.36h.72l.36-.36.72-.36.357-.72.36-.72.36-.72.357-.72v-1.08l.36-.72-.36-1.08v-.72l-.357-1.08-.36-.72-.72-.72-.72-.72-.723-.72h-.357l-.36-.36h-.36l-.72-.36h-1.08l-.72-.36H396l-.72-.36h-1.802l-1.078-.36H389.879zM143.28 149.04h.36l.36-.36v-.72l.36-.36v-.36l.36-.36V144.72l.36-41.4v-.72l-.36-.36v-.72l-.36-.36v-.72h-.72l-.36-.36h-.36l-.36-.36h-.72l-.36-.36 2.52-.72 2.16-.72 2.16-.72 1.8-.72 1.8-.72 1.8-.36 1.8-.72 1.44-.36 1.44-.36h1.44l1.08-.36h6.12l1.08.36 1.08.72 1.08.72 1.08 1.08.72.72.72 1.44.72 1.08.36 1.44v4.68l-.36 1.44-.72 1.8-.72 1.44-1.08 1.8-1.44 1.44-3.6 2.52v.72l.36.72.36 1.08.36 1.08.36 1.44.72 1.44.72 1.44.72 1.8.72 1.44 1.08 1.8.72 1.8.72 1.8 1.08 1.8 1.08 1.44.72 1.44-8.28 2.88-.36-1.08-.36-1.44v-1.08l-.72-1.08-.36-1.44-.36-1.08-.36-1.44-.72-1.08-.36-1.44-.72-1.08-.72-1.44-.72-1.44-.72-1.44-1.08-1.08-.72-1.44-1.08-1.44h-1.44l-.72.36h-.36l-.72.36h-.36l-.72.36h-.36l-.36.36-.36.36-.36.36h-.36v.36l.36 23.76-.36.36h-.72l-.36.36-.72.36-.36.36h-.72l-.72.36-.72.36h-.72l-.72.36h-.72l-.36.36h-1.8zm20.52-48.24h-3.24l-.72.36h-1.44l-.72.36h-.72l-.72.36-.72.36h-.72l-.72.36-.72.36-.72.72-.72.36v8.28l.36.36h2.52l.72-.36h1.08l.72-.36h1.08l.72-.36.72-.36.72-.36.72-.36h.72l.36-.36.36-.36 1.08-.72.72-.72.36-.36.72-1.08v-.36l.36-1.08V102.96l-.36-.72-.36-.36-.36-.36-.36-.36-.36-.36h-.36zM120.96 160.919h-5.76l-.72-.36-1.08-.36-.72-.36-.72-.36-.72-.36-1.08-.72-.72-.36-.72-.72-.72-.719-.72-.72-.36-.72-.36-.72-.36-.36-.36-.72-.36-.72-.36-.72-.36-1.08-.36-.72-.36-.72-.36-1.08v-1.08l-.36-.72v-1.08l-.36-1.08v-2.16l-.36-7.2.36-6.48 1.08-5.4 1.8-4.68 2.16-3.96 2.88-2.88 2.88-2.52 2.88-1.44 3.24-.36h3.24l2.88 1.08 2.88 1.8 2.52 2.52 2.16 3.6 1.8 3.96 1.08 5.04v7.2l-.36 2.88v2.52l-.36 2.88L135 144l-1.08 2.88-.72 2.88-1.44 2.521-1.44 2.52-1.8 2.16-2.16 1.8-2.52 1.08-2.88 1.078zm1.08-45.719-2.88-.36-2.52.72-2.16 1.44-1.44 2.16-1.44 2.52-1.08 3.24-.72 3.24-.36 3.96v7.2l.72 3.6.72 3.24 1.08 2.88 1.44 2.52 1.8 1.44 1.8 1.08h2.52l1.8-.72 2.16-1.44 1.44-2.16 1.44-2.52 1.08-2.88 1.08-3.6.36-3.6.36-3.6v-3.6l-.36-3.24-.72-3.24-1.08-2.88-1.44-2.52-1.8-1.8-1.8-1.08z" style="fill:#ffe363"/></svg>