<?xml version="1.0" encoding="UTF-8" standalone="no"?>
<svg xmlns:rdf="http://www.w3.org/1999/02/22-rdf-syntax-ns#" xmlns="http://www.w3.org/2000/svg" xml:space="preserve" height="300.78" viewBox="0 0 252 300.77502" width="252" version="1.1" xmlns:cc="http://creativecommons.org/ns#" xmlns:dc="http://purl.org/dc/elements/1.1/"><g transform="matrix(1.25 0 0 -1.25 -245.86 849.42)"><g transform="matrix(9.4047 0 0 9.4047 -2492.7 -4692.9)"><path d="m286.08 567.95c0 1.757 1.425 3.182 3.183 3.182h14.875c1.757 0 3.182-1.425 3.182-3.182l-0.001-11.601c0-5.872-4.761-10.632-10.633-10.632s-10.632 4.76-10.632 10.632l0.026 11.601" fill="#564535"/><path d="m306.65 567.95c0 1.382-1.121 2.503-2.503 2.503h-14.875c-1.383 0-2.504-1.121-2.504-2.503l-0.029-11.601c0-5.497 4.457-9.953 9.954-9.953s9.954 4.456 9.954 9.953l0.003 11.601" fill="#e6cea5"/><path d="m304.75 553.78c0.271 0.823 0.293 1.679 0.293 2.592v7.989h-16.701v-7.989c0-0.91 0.146-1.787 0.415-2.607l15.993 0.015" fill="#ffd151"/><path d="m288.64 553.78h16.108l0.471 2.873s-4.715 1.802-4.888 1.865c-0.299 0.11-0.688 0.145-1.002-0.045-0.13-0.078-3.207-1.89-3.207-1.89l-2.174-0.529s-1.429 0.418-1.606 0.469c-0.189 0.055-0.399 0.057-0.539-0.01-0.136-0.066-3.381-1.566-3.381-1.566l0.218-1.167" fill="#faa225"/><path d="m302.24 553.78 0.022 0.179 0.176 0.373-0.203 0.651-2.1-0.158-0.174-1.045-11.325-0.001c1.095-3.335 4.349-5.757 8.051-5.757 3.698 0 6.96 2.427 8.057 5.758h-2.504" fill="#fff"/><path d="m295.78 564.47c-0.045-0.233-0.068-0.474-0.068-0.721 0-2.099 1.702-3.801 3.802-3.801 2.099 0 3.801 1.702 3.801 3.801 0 0.263-0.027 0.519-0.077 0.767l-7.458-0.046" fill="#fff100"/><path d="m18.252 10.428s-0.47383 0.59102-0.61133 0.75977c-0.1375 0.1675-1.9476 2.0079-3.0488 2.4629-0.57375 0.23625-0.96938 1.1402-1.1406 1.2402-0.07375 0.04375-0.11094-0.05078-0.08594-0.17578 0 0-0.14375 0.05617-0.09375-0.08008 0.05-0.1375 0.13047-0.39375-0.05078-0.34375-0.13125-0.11875 0.19375-0.31016 0.0625-0.41016-0.1-0.075-0.11328-0.04297-0.11328-0.04297s0.22031-0.43047 0.03906-0.44922-0.21289 0.03711-0.21289 0.03711 0.23125-0.31133 0.09375-0.39258c-0.13625-0.08125-0.2 0.05547-0.25 0.01172s0.21828-0.42266 0.05078-0.50391c-0.16875-0.08125-0.26328 0.19758-0.36328 0.11133-0.09875-0.0875 0.2375-0.37469 0.125-0.49219-0.1125-0.11875-0.46055 0.26797-0.5293 0.38672-0.025 0.04375-0.06836 0.06172-0.09961-0.01953s0.28789-0.51766 0.05664-0.53516c-0.16125-0.0125-1.2999 1.2591-1.7012 2.1504-0.25625 0.56625-0.26992 0.90438-0.13867 1.1406 0.09875 0.17875 0.16953 0.5793-0.10547 0.8418-0.13 0.12375-0.50781 0.08477-0.63281 0.0098-0.125-0.075-0.30828-0.18734-0.42578-0.21484-0.26-0.025-0.93398 0.07422-1.0215 0.13672-0.0775 0.66625-0.076406 1.5021 0.62109 2.1309 0.69875 0.63 1.2602 1.0047 1.5215 1.2422 0.2625 0.23625 0.85898 0.77188 1.209 0.92187-0.025 0.26125 0.08211 0.98602 0.31836 1.166-0.0125 0.04375 0.0059 0.14844 0.0059 0.14844s0.08125 0.08125 0.125 0.09375 0.09961-0.02422 0.09961-0.13672-0.025-0.01875-0.03125-0.09375c-0.0062-0.075 0.02539-0.09883 0.02539-0.17383s-0.01953-0.16797-0.01953-0.16797-0.09844-0.16219-0.17969-0.21094c-0.0062-0.09375-0.04414-0.33125 0.0059-0.4375 0.05-0.105 0.09375-0.17383 0.1875-0.17383 0.0925 0 0.08594 0.08008 0.08594 0.14258 0 0.06125 0.0059 0.27344 0.0059 0.27344s0.18203 0.20617 0.23828 0.20117c0 0.0925 0.13094 0.31016 0.30469 0.31641 0.10625 0.0625 0.31297 0.075 0.38672 0.03125 0.1 0.0375 0.35516 0.1 0.50391 0 0.075 0.03125 0.59922 0.16164 0.91797-0.0059 0.1925-0.05 0.23633-0.16914 0.23633-0.24414s-0.05547-0.11016-0.10547-0.16016c0.025-0.0875 0.04922-0.16211 0.04297-0.25586-0.0062-0.09375-0.0125-0.26914-0.09375-0.40039 0.03125-0.08125 0.07578-0.125 0.05078-0.21875-0.025-0.0925-0.0825-0.11641-0.15625-0.19141 0.0375-0.075 0.0125-0.15703-0.0625-0.20703s-0.23633-0.08016-0.36133-0.19141c-0.12375-0.1125-0.28711-0.28867-0.34961-0.41992-0.0625-0.13-0.14852-0.69102-0.63477-0.88476v-0.11719c0.23625-0.15625 0.37352-0.18789 0.88477-0.02539 0.08125 0.04375 0.23047 0.08742 0.26172 0.01367 0.03125-0.075-0.007-0.14492 0.04297-0.20117 0.05-0.05625 0.18867 0.02578 0.23242-0.04297 0.0425-0.06875 0.04133-0.2825 0.04883-0.40625 0.025-0.41125 1.8575-2.0322 1.9688-2.9922 0.05625-0.05625 0.20117-0.11875 0.20117-0.1875 0-0.0675-0.01953-0.2168-0.01953-0.2168 0.29875-0.1625 0.42461-0.43594 0.41211-0.52344 0.0875-0.04375 0.31875-0.27383 0.21875-0.45508 0.12375-0.0875 0.47227-0.46094 0.38477-0.67969 0.15625-0.18 0.36875-0.36289 0.3125-0.55664 0.1875-0.16125 0.28164-0.40398 0.27539-0.64648 0.1-0.13125 0.25977-0.38008 0.16602-0.42383l-0.34766 0.34961c0.20625-0.26125 0.37336-0.49883 0.25586-0.61133zm-10.984 3.504c-0.405 0-0.78367 0.1582-0.95117 0.4707l-0.17773 0.26953c-0.05 0.075-0.1875 0.16703-0.21875 0.17578-0.0625 0.01875-0.77734 0.16211-0.77734 0.16211 0.14875 0.29875 0.41688 0.35547 0.57812 0.35547 0.1625 0 0.42891-0.02867 0.72266-0.04492 0.165-0.0087 0.37875 0.05399 0.5 0.11524 0.1175 0.06 0.2918 0.11188 0.5293 0.10938 0.18625-0.0025 0.43125 0.15039 0.5 0.33789 0.0875-0.0625 0.75828-0.16367 1.0195-0.13867-0.54125-1.1712-1.0071-1.8125-1.7246-1.8125zm12.225 3.873c-0.07547-0.01016-0.15672 0.01961-0.21484 0.11523-0.63875 1.0538-0.83117 1.7225-0.98242 2.3125-0.17375 0.68625-0.20977 1.8088-0.19727 2.5h-13.912c0.21375 0.6675 0.49312 1.3057 0.82812 1.9082h8.0508c0.3625 0 0.53516-0.06328 0.53516-0.17578 0-0.11125-0.11844-0.16602-0.21094-0.19727-0.1125-0.0375-2.0953-0.62383-2.2578-0.67383-0.16125-0.05-0.39844-0.13719-0.39844-0.27344 0-0.1375 0.4-0.20117 0.5625-0.20117h6.5996c0.03625-0.02125 0.06539-0.10211 0.11914-0.09961-0.0075-0.05125 0.0027-0.09805 0.05273-0.12305 0.02125-0.01125 0.04242 0.0034 0.04492 0.02344 0.01 0.0575 0.01914 0.12492-0.0059 0.16992-0.0275 0.05-0.0943 0.03156-0.06055 0.10156 0.0025 0.0062 0.02867-0.0011 0.04492 0.0039 0.03625 0.01125 0.03148 0.06016 0.02148 0.06641-0.13 0.075-0.02922 0.1593-0.10547 0.24805-0.0125 0.01625-0.0618-0.01602-0.0918-0.04102 0 0.0175-0.0043 0.03383 0.002 0.04883 0.0063 0.01875 0.02563 0.03844 0.04687 0.02344 0.0175-0.01125 0.02953-0.03203 0.05078-0.01953 0.02 0.01125 0.03453 0.03063 0.05078 0.04687-0.0925 0.01875-0.08484 0.09273-0.15234 0.14648-0.01625 0.0125-0.04852-0.0016-0.07227 0.0059-0.02 0.005-0.03773 0.03047-0.02148 0.04297s0.05695-0.0047 0.06445 0.0078c0.05875 0.09125 0.08609 0.30242-0.06641 0.32617-0.0025 0-0.0068 0.03227 0.002 0.04102 0.0087 0.0075 0.03242-0.0016 0.04492 0.0059 0.035 0.02 0.07562 0.055 0.04687 0.09375-0.03875 0.05125-0.13 0.03445-0.15625 0.06445-0.07125 0.08625 0.09734 0.20109 0.02734 0.30859-0.075 0.1175-0.07227 0.25227-0.16602 0.35352-0.025 0.02625-0.06766 0.04922-0.06641 0.07422 0.0012 0.1075 0.01734 0.22891-0.06641 0.28516-0.05125 0.035-0.13133 0.06492-0.11133 0.13867 0.005 0.02125 0.03172 0.03078 0.04297 0.05078 0.0125 0.02125-0.04891 0.04805-0.06641 0.06055-0.02625 0.08375-0.13992 0.13328-0.13867 0.23828 0 0.05125-0.11156 0.06695-0.10156 0.0957 0.04375 0.1325 0.17867 0.03844 0.23242-0.07031 0.01125-0.0225-0.009-0.03524-0.02148-0.05273-0.01375-0.02 0.0034-0.03867 0.02344-0.04492 0.02375-0.0063 0.04922-0.002 0.07422-0.002-0.02625-0.1 0.07039-0.15297 0.15039-0.16797 0.0087-0.0013 0.02508 0.02383 0.04883 0.01758-0.035-0.07875-0.02726-0.19164 0.05273-0.24414 0.02875-0.01875 0.05766 0.03703 0.09766 0.01953-0.05875-0.045-0.06188-0.10133-0.04687-0.17383 0.0075-0.03875 0.05695-0.0168 0.06445-0.0293 0.075-0.1375-0.06344-0.43539 0.13281-0.46289 0.03375-0.0038 0.02773 0.04016 0.02148 0.06641-0.005 0.02-0.02383 0.03359-0.04883 0.02734v0.04883c0.07-0.0375 0.09203-0.10883 0.05078-0.17383 0.05625-0.01625 0.08219-0.07117 0.11719-0.10742 0.085-0.08875 0.06328-0.23797 0.17578-0.32422 0.02-0.01625-0.04188-0.05609-0.01563-0.08984 0.02875-0.03625 0.07109-0.05773 0.12109-0.05273v-0.05078c-0.05125 0.0088-0.09805-0.000079-0.12305-0.04883-0.01125-0.0225 0.0066-0.03883 0.02539-0.04883 0.0525-0.0275 0.06016 0.04258 0.09766 0.04883-0.0062-0.02375 0.0073-0.04063 0.02734-0.04688 0.015-0.005 0.03063-0.0039 0.04687-0.0039-0.07375-0.11625 0.05477-0.22531 0.0098-0.35156-0.0087-0.0275 0.03891-0.01899 0.06641-0.02148-0.0375-0.0525-0.06492-0.11438-0.04492-0.17188 0.01125-0.03 0.07828-0.04289 0.08203-0.05664 0.0325-0.1175 0.01398-0.24539 0.02148-0.36914 0.0012-0.03125 0.0443-0.06203 0.0918-0.05078 0.0012-0.0625-0.03367-0.10719-0.07617-0.14844 0.08-0.04 0.06203-0.18289 0.17578-0.15039-0.0063-0.05 0.01578-0.09234 0.05078-0.12109 0.01875-0.01625 0.03562 0.004 0.04688 0.02148 0.03-0.02875 0.03742-0.0943 0.07617-0.0918 0.07375 0.0037 0.15211-0.02188 0.22461 0.01562 0.0175-0.1775-0.11461-0.27719-0.22461-0.39844-0.0063 0.025 0.01524 0.03453 0.02148 0.05078 0.02375 0.05875-0.05977 0.03672-0.07227 0.07422 0.1025-0.025 0.15086 0.07859 0.19336 0.15234 0.005 0.0087-0.01977 0.03328-0.04102 0.01953-0.0175-0.01125-0.03383-0.03578-0.04883-0.01953-0.05875 0.06-0.12219 0.02461-0.17969 0.0059-0.02375-0.0087-0.04742 0.045-0.07617 0.0625-0.04125 0.02625-0.06945-0.01617-0.0957-0.04492 0.08625-0.02875 0.05461-0.11703 0.09961-0.17578 0.025 0.035 0.0707 0.03195 0.06445 0.002-0.02-0.10375 0.07328-0.08008 0.05078-0.17383-0.0012-0.0075-0.06414 0.0046-0.05664-0.02539 0.015-0.055 0.11312-0.0074 0.14062-0.07617 0.0175 0.01625 0.03758 0.04672 0.04883 0.04297 0.03625-0.01 0.03672-0.08898 0.07422-0.08398 0.10125 0.01375 0.02703 0.15523 0.08203 0.17773 0.03375 0.0125 0.0077-0.11281 0.06641-0.10156 0.07125 0.01375 0.09898 0.09281 0.05273 0.16406h0.04883c-0.0063-0.02375 0.0073-0.04258 0.02734-0.04883 0.015-0.005 0.03617 0.0048 0.04492-0.0039 0.0087-0.0087 0.007-0.03187 0.002-0.04687-0.01125-0.0375-0.05461-0.0143-0.06836-0.0293-0.0775-0.08-0.02883-0.18859 0.04492-0.24609-0.03-0.03-0.03492-0.07711-0.07617-0.09961 0.045-0.07375 0.14961-0.04664 0.19336 0.0059 0.03375 0.04125-0.04328 0.11781 0.01172 0.16406 0.015 0.01375 0.04961-0.0027 0.06836 0.0098 0.06375 0.0425-0.000547 0.11977 0.0332 0.16602 0.0087 0.01125 0.05211 0.01477 0.06836-0.02148 0.06125 0.0425 0 0.08375 0 0.125 0.02375-0.0062 0.03828 0.0079 0.05078 0.02539-0.03625 0.01625-0.03328 0.05586-0.01953 0.06836 0.02 0.02 0.07055-0.0125 0.0918 0.03125 0.01125 0.02375-0.004 0.03633-0.02148 0.04883 0.04 0.02125 0.05461 0.06656 0.06836 0.10156 0.02625 0.06375-0.03578 0.12477-0.01953 0.19727 0.01375 0.06125 0.11688 0.11633 0.04687 0.17383-0.03314 0.02628-0.06137-0.03111-0.06836-0.0625-0.000662-0.0034 0.0066-0.0049 0.0039-0.0078-0.0015-0.0013-0.0054 0.00085-0.0078 0-0.01168-0.004-0.02988-0.0062-0.03711 0-0.015 0.01625 0.004 0.04297 0.02148 0.04297 0.01187 0 0.01316-0.01608 0.01563-0.0293-0.02658 0.1244 0.12567 0.10461 0.1875 0.19141 0.04625 0.065-0.09383 0.01875-0.08008 0.0625 0.02 0.06125 0.09555 0.09898 0.0918 0.17773 0.04875-0.0175 0.05836-0.09484 0.09961-0.08984 0.07 0.0075 0.0095 0.06258 0.0332 0.11133 0.005 0.0125 0.06-0.007 0.0625 0.0293 0.0012 0.0175-0.02117 0.03164-0.04492 0.02539-0.005 0.115 0.12969 0.14203 0.14844 0.20703 0.03125 0.105-0.20383 0.15102-0.17383 0.29102 0.06125-0.01375 0.12672 0.01461 0.16797 0.03711 0.0525 0.03 0.09274 0.06539 0.11524 0.11914 0.045 0.10375-0.11563 0.1593-0.14063 0.24805-0.01375 0.04625 0.07992-0.01437 0.10742-0.01563 0.12375 0 0.015 0.13875 0.0625 0.21875 0.0125 0.02-0.05289 0.0094-0.08789 0.01563 0.0325 0.0325-0.0575 0.06711 0 0.09961 0.0725-0.11375 0.2732-0.19641 0.37695-0.06641 0.0125 0.01625-0.002 0.04141-0.002 0.06641 0.06125-0.005 0.08727-0.04086 0.07227-0.09961-0.065 0.0725-0.10516-0.06086-0.09766-0.09961-0.0675 0.005-0.14102 0.03937-0.19726 0.01563-0.0275-0.01125-0.09344-0.07492-0.02344-0.10742 0.04375-0.02 0.09062 0.07016 0.14062 0.03516 0.03125-0.0225-0.02758-0.0568-0.01758-0.0918 0.005-0.02 0.02437-0.03539 0.04687-0.02539 0.0425 0.01875 0.04617 0.06961 0.07617 0.09961 0.03375-0.08125 0.01539-0.18438 0.11914-0.23438 0.01-0.005 0.06102-0.22406 0.0098-0.28906-0.01-0.01375 0.02117-0.03164 0.04492-0.02539 0.0125-0.0475-0.02078-0.07211-0.05078-0.09961 0.0175-0.01125 0.03969-0.03367 0.02344-0.04492-0.1025-0.06875-0.0031-0.12383-0.01563-0.20508-0.005-0.0325 0.03891-0.02219 0.06641-0.02344-0.07125-0.3075 0.03937-0.61133 0.01563-0.92383-0.0025-0.04125 0.04852-0.09477 0.10352-0.13476 0.03125-0.02375-0.0066-0.07664-0.03906-0.11914-0.0275-0.0375 0.08766-0.30242 0.03516-0.38867-0.06-0.10125-0.04594-0.20859 0.03906-0.27734 0.0175-0.015 0.0957 0.0918 0.0957 0.0918s-0.04258 0.03008-0.04883 0.04883c-0.0063 0.01875 0 0.08047 0 0.10547s0.06133 0.04453 0.08008 0.05078c0.01875 0.0062 0.0078 0.04961 0.0078 0.06836s-0.05742-0.000391-0.07617 0.0059c-0.01875 0.0062 0.09492 0.18172 0.10742 0.23047 0.01125 0.05-0.0066 0.1-0.02539 0.125-0.01875 0.025 0.01883 0.08711 0.04883 0.09961 0.03125 0.0125 0.03672 0.03711 0.01172 0.09961s-0.01758 0.10672-0.01758 0.23047c0.0625 0.0063 0.25508 0.0012 0.33008-0.04883 0.075-0.04875 0.11461-0.21914 0.06836-0.40039-0.075-0.2925-0.26875-0.67227-0.34375-1.041-0.0775-0.38375-0.13555-0.87859-0.18555-1.3398-0.05-0.46125-0.26898-1.0399-0.55274-1.6074-0.01375-0.02875-0.08422-0.13961-0.16797-0.16211-0.05625-0.01625-0.14625 0.08281-0.15625 0.19531-0.0088 0.1125-0.0682 0.42172-0.1582 0.60547-0.0625-0.06-0.2557-0.23031-0.2832-0.38281-0.02875-0.1525-0.04477-0.26774-0.10352-0.39648-0.03-0.06375-0.09836-0.11484-0.17383-0.125zm-0.25586 3.6445c-0.0038 0.0275 0.09344 0.03406 0.02344 0.07031-0.01 0.005-0.03492-0.0097-0.04492-0.02344-0.015-0.02 0.004-0.03562 0.02148-0.04687zm-0.32617 0.0293c0.0125 0.0038 0.02844 0.03422 0.02344 0.04297-0.02875 0.0525-0.08149 0.08672-0.14648 0.07422-0.02-0.0038-0.03773-0.02922-0.02148-0.04297 0.0425-0.03625 0.08203-0.09547 0.14453-0.07422zm0.02148 0.13672c0.03266-0.002 0.06891 0.01437 0.11328 0.04687 0.0525 0.03875 0.14719-0.06813 0.21094 0.01563 0.0125 0.0175 0.01797 0.05836-0.01953 0.06836-0.11 0.03-0.24008-0.02617-0.33008 0.01758-0.045 0.02125-0.09-0.04219-0.0625-0.08594 0.02625-0.04063 0.05523-0.06047 0.08789-0.0625zm0.17969 0.18555c0.0225 0.01625 0.08969 0.02906 0.02344 0.07031-0.01125 0.0075-0.03383 0.005-0.04883 0-0.01875-0.0062-0.03344-0.02633-0.02344-0.04883 0.0087-0.01875 0.02758-0.03648 0.04883-0.02148zm0.33789 0.0957c-0.01 0.0025-0.02274 0.01398-0.02148 0.02148 0.0017 0.01241 0.0163 0.01426 0.0293 0.01758-0.0013 0.0024-0.0062 0.0039-0.0059 0.0059 0.0025 0.01875 0.02313 0.03094 0.04687 0.02344-0.0144-0.012 0.02291-0.05244-0.02344-0.04492 0.0052-0.01672 0.01028-0.03235-0.02539-0.02344zm-0.026 0.102c-0.01625 0.01625 0.004 0.04297 0.02148 0.04297 0.0175 0 0.03773-0.02672 0.02148-0.04297-0.0075-0.0087-0.03422-0.0087-0.04297 0zm0.08398 0.10156c-0.01625-0.01625-0.04047 0.000782-0.04297 0.01953-0.0012 0.0075 0.01398 0.02344 0.02148 0.02344 0.01875-0.0038 0.03648-0.02797 0.02148-0.04297zm-0.31836 0.09766c-0.01625 0.01625 0.004 0.04492 0.02148 0.04492 0.0175 0 0.03773-0.02867 0.02148-0.04492-0.0075-0.0087-0.03422-0.0087-0.04297 0zm0.17188 0.02344c0.01625 0.035 0.04672 0.02649 0.07422 0.02148 0.01-0.0012 0.01664-0.01273 0.02539-0.02148h-0.09961zm0.19922 0c0.0063 0.02375-0.0079 0.03633-0.02539 0.04883-0.0075-0.025 0.0079-0.03633 0.02539-0.04883zm-0.31445 0.10352c-0.01625 0.01625 0.004 0.04492 0.02148 0.04492 0.01625 0 0.03774-0.02867 0.02148-0.04492-0.0075-0.0075-0.03547-0.0075-0.04297 0zm0.08984 0.14648c-0.0225-0.0125-0.04438 0.0034-0.04688 0.02344-0.0012 0.0063 0.01398 0.01789 0.02148 0.02539 0.025-0.045 0.06211 0.03555 0.06836-0.002 0.0025-0.01375-0.02297-0.03562-0.04297-0.04687zm-0.23047 0.0098c-0.01 0.0012-0.02148 0.01594-0.02148 0.02344 0.0038 0.01875 0.02187 0.03164 0.04687 0.02539-0.01625-0.01375 0.03086-0.06258-0.02539-0.04883zm-0.0957 0.04687c-0.01 0.0025-0.02469 0.01594-0.02344 0.02344 0.0025 0.01875 0.02313 0.03094 0.04687 0.02344-0.015-0.0125 0.03156-0.06062-0.02344-0.04687zm0.4375 0.07813c0.0088 0.0087 0.01609 0.02039 0.02734 0.02539 0.02125 0.01 0.03773-0.004 0.02148-0.02148-0.0087-0.0075-0.03258-0.0039-0.04883-0.0039zm-0.52148 0.01367c-0.01297-0.0028-0.02648 0.0029-0.03711 0.02539-0.01 0.0225 0.0034 0.04133 0.02344 0.04883 0.015 0.005 0.03812 0.0068 0.04687-0.002 0.0087-0.0038 0.0087-0.03367 0-0.04492-0.0088-0.0125-0.02023-0.02453-0.0332-0.02734zm0.4707 0.04297c-0.01625-0.01625-0.04242 0.0034-0.04492 0.02344-0.0012 0.0075 0.01398 0.02273 0.02148 0.02148 0.01875-0.0025 0.03844-0.02867 0.02344-0.04492zm-0.25976 0.0059c-0.0475 0.045-0.11789 0.0625-0.15039 0.125 0.02375-0.0075 0.03828 0.0079 0.05078 0.02539 0.0025-0.07125 0.10461-0.07414 0.09961-0.15039zm0.80469 0.02734c0.01625 0.0125 0.01797 0.05 0.01172 0.0625-0.0063 0.0125-0.0084 0.0064-0.03711 0.0039-0.0275-0.0038-0.05273-0.0098-0.05273-0.0098l-0.0098-0.04492 0.02539-0.0039s0.0475-0.02031 0.0625-0.0078zm1.25 0.03516c-0.01 0.115-0.02742 0.25922-0.04492 0.38672h3.043c0.04625-0.1275 0.08961-0.25672 0.13086-0.38672h-3.1289zm-2.3945 0.0098c-0.01281-0.000157-0.02375 0.0093-0.03125 0.0293-0.0012 0.005 0.01398 0.02148 0.02148 0.02148 0.0175 0 0.03258-0.01273 0.04883-0.02148-0.0125-0.01813-0.02625-0.02914-0.03906-0.0293zm1.3379 0.0293c0.0225-0.01125 0.04242 0.0047 0.04492 0.02344 0.0062 0.0575-0.0016 0.11789 0.05469 0.15039-0.04625 0.01625-0.10898 0.09594-0.14648 0.02344-0.01875-0.03625 0.07352-0.01047 0.04102-0.04297-0.0475-0.04875-0.06039-0.12055 0.0059-0.1543zm-1.3984 0.05469c-0.01125-0.0038-0.03523 0.02297-0.02148 0.04297 0.0125 0.0175 0.02969 0.02703 0.02344 0.05078 0.0375-0.0325 0.04305-0.07625-0.002-0.09375zm1.0234 0.04492c0.0088 0.0075 0.01539 0.01844 0.02539 0.02344 0.02125 0.01 0.03773-0.0052 0.02148-0.02148-0.0087-0.0087-0.02937-0.002-0.04687-0.002zm-0.47461 0.05469c0.0087 0.0087 0.01734 0.01969 0.02734 0.02344 0.02125 0.01 0.03773-0.0033 0.02148-0.01953-0.0088-0.0088-0.03133-0.0039-0.04883-0.0039zm0.15234 0.04687c-0.01125 0.0025-0.02469 0.01398-0.02344 0.02148 0.0025 0.01875 0.02313 0.03289 0.04688 0.02539-0.015-0.0125 0.03156-0.06063-0.02344-0.04687zm0.34961 0.03125c0.0087 0.0087 0.01539 0.01844 0.02539 0.02344 0.0225 0.01 0.03969-0.0033 0.02344-0.01953-0.0087-0.0087-0.03258-0.0039-0.04883-0.0039zm-1.0742 0.04102c0.0063 0.03875 0.02578 0.07086 0.05078 0.09961 0.0075-0.0087 0.02148-0.01664 0.02148-0.02539 0-0.0087-0.01773-0.01539-0.02148-0.02539-0.005-0.015 0.0048-0.03813-0.0039-0.04687-0.0087-0.0075-0.03063-0.002-0.04687-0.002zm0.32226 0.0059c-0.065-0.01625-0.13406-0.01805-0.19531 0.002-0.01375 0.0038 0.009 0.04086 0.02148 0.03711 0.06375-0.02 0.12258 0.04375 0.17383 0 0.0075-0.0062 0.0038-0.03906 0-0.03906zm0.08594 0.08594c-0.01 0.0025-0.02274 0.01594-0.02148 0.02344 0.0025 0.01875 0.02313 0.03094 0.04687 0.02344-0.015-0.0125 0.02961-0.05937-0.02539-0.04687zm0.66016 0.0293c0.0087 0.0075 0.01539 0.01969 0.02539 0.02344 0.0225 0.01 0.03969-0.0033 0.02344-0.01953-0.0087-0.0087-0.03258-0.0039-0.04883-0.0039zm0.02539 0.02344c-0.0061 0.000603-0.0098-0.002-0.01563-0.002 0.0088 0.0087 0.01539 0.02039 0.02539 0.02539 0.02125 0.01 0.03773-0.0052 0.02148-0.02148-0.0058-0.0058-0.01914-0.0032-0.03125-0.002zm0.15234-0.01953c0.0062 0.02375-0.0079 0.03633-0.02539 0.04883 0.0175 0.0125 0.03719 0.02758 0.02344 0.04883-0.05116 0.07906-0.08816-0.02641-0.10547-0.01563-0.000974-0.0023 0.004-0.0039 0.002-0.0059-0.0075-0.0087-0.03617-0.0087-0.04492 0-0.015 0.01625 0.0059 0.04367 0.02344 0.04492 0.0129 0 0.01552-0.01884 0.01563-0.0332-0.02301 0.08131 0.06734 0.11379 0.13867 0.13281 0.08875 0.025 0.02352-0.04312 0.07227-0.04687-0.10125-0.04125-0.02805-0.06219-0.0293-0.14844-0.0012-0.035-0.04281-0.02414-0.07031-0.02539zm-1.2812 0.04883c-0.015-0.01625-0.03922 0.0034-0.04297 0.02344 0 0.0063 0.01523 0.02273 0.02148 0.02148 0.02-0.0025 0.03773-0.02992 0.02148-0.04492zm0.11719 0.0078c-0.01281-0.000156-0.02375 0.008-0.03125 0.02734-0.0025 0.005 0.01273 0.02148 0.02148 0.02148 0.01625 0 0.03258-0.01273 0.04883-0.02148-0.0125-0.0175-0.02625-0.02719-0.03906-0.02734zm-6.3535 0.09375c-0.1125 0-0.34961 0.02508-0.34961 0.11133 0 0.11875 0.18711 0.18633 0.34961 0.23633 0.16125 0.05 1.8587 0.46211 2.1699 0.53711 0.31125 0.075 0.72852 0.27305 0.72852 0.5293 0 0.29875-0.62938 0.5293-1.3906 0.5293h-8.5605c1.17 1.8 2.8716 3.223 4.8828 4.043 0.2425-0.01 1.0562-0.01172 1.2812-0.13672 0.12625-0.07 0.17969-0.25391 0.08594-0.34766-0.0425-0.0425-0.09875 0.08406-0.15625 0.13281-0.1375-0.16875-0.0743-0.47445 0.12695-0.50195 0.1975-0.0275 0.39945 0.16789 0.3457 0.40039 0.0325 0 0.0732 0.01234 0.0957-0.0039 0.08625-0.065 0.04977-0.20476 0.13477-0.25976 0.08875-0.05625 0.16023 0.0675 0.20898 0.15625 0.0225 0.04125 0.10945-0.01336 0.12695-0.06836 0.01625-0.055-0.07641-0.10797-0.03516-0.16797 0.035-0.0525 0.11211-0.07367 0.16211-0.04492 0.085 0.04875 0.12695 0.17352 0.2207 0.10352 0.05-0.0375 0.09859-0.13273 0.02734-0.17773-0.0425-0.02625-0.11812 0.000703-0.14062-0.06055-0.02-0.05375 0.0033-0.11938 0.05078-0.14062 0.21-0.09625 0.33258 0.13945 0.45508 0.2832 0.06875 0.07875 0.18281 0.07445 0.28906 0.0332-0.1925-0.34375-0.55469-0.61844-0.55469-1.0234 0-0.145 0.17453-0.20836 0.30078-0.22461 0.36625-0.045 0.64961-0.04102 0.97461 0.02148 0.26875 0.0525 0.51219 0.10656 0.77344 0.07031 0.25125-0.03375 0.68672-0.2407 0.63672-0.2832-0.0975-0.0825-0.08367-0.23633 0.01758-0.26758 0.60375-0.18375 0.98664-0.66016 1.3691-1.1289 0.03625-0.04375 0.39617-0.43602 0.32617-0.69727-0.105-0.38875-0.25-0.77773-0.1875-1.1777 0.03125-0.205 0.33312-0.39086 0.42188-0.47461h-5.1875zm8.6621 0c-0.05875 0.38375-0.12266 0.74438-0.16016 0.89063-0.04375 0.1675-0.025 0.28633 0 0.39258 0.05875 0.25125 0.08312 0.55516 0.07813 0.78516-0.005 0.2225-0.36531 0.25961-0.53906 0.09961-0.1125 0.1275-0.19875 0.26422-0.3125 0.38672-0.21 0.2275-0.43289 0.43867-0.71289 0.57617-0.2675 0.13125-0.54289 0.23508-0.80664 0.36133-0.20125 0.095-0.21719 0.38141-0.36719 0.56641-0.10625 0.13125-0.20336 0.26984-0.34961 0.33984-0.22375 0.10875-0.29133-0.16617-0.33008-0.35742-0.01625-0.07375-0.12914-0.10719-0.18164-0.08594-0.20375 0.08-0.4043 0.19391-0.49805 0.41016-0.065 0.145-0.05773 0.28836-0.02148 0.44336 0.01125 0.05125 0.15133 0.10914 0.14258 0.05664-0.02125-0.1375-0.02758-0.25516 0.07617-0.34766 0.07-0.0625 0.17023-0.0418 0.24023 0.002 0.095 0.06-0.02531 0.15555-0.07031 0.2168 0.0175 0.0125 0.03289 0.02578 0.02539 0.05078 0.05 0 0.10398 0.01289 0.14648-0.0059 0.1625-0.0725 0.28031-0.22172 0.47656-0.16797 0.0375 0.01 0.03148 0.04977 0.02148 0.07227-0.02875 0.06875-0.14719 0.07297-0.08594 0.10547 0.22125 0.12125 0.29703-0.15547 0.42578-0.29297 0.04875-0.0525 0.13094 0.06391 0.21094 0.03516 0.02-0.0075 0.04063-0.02688 0.04687-0.04687 0.02-0.07125-0.03195-0.11898-0.06445-0.17774-0.045-0.0825 0.0268-0.17133 0.06055-0.23633 0.04125-0.07875 0.15375-0.18234 0.25-0.12109 0.0525 0.0325 0.17039 0.07734 0.11914 0.15234-0.04125 0.06-0.11883 0.10469-0.08008 0.17969 0.05375 0.10375 0.15797 0.17789 0.26172 0.11914 0.13875-0.0775 0.31828-0.22773 0.17578-0.42773-0.0675-0.095-0.03656-0.24562 0.05469-0.35938 0.0975-0.1225 0.25633-0.20774 0.39258-0.11524 0.0425 0.03 0.10891 0.07742 0.09766 0.13867-0.01875 0.105-0.20516 0.07008-0.16016 0.17383 0.0925 0.21375 0.31226 0.07883 0.38476-0.07617 0.04375-0.0925-0.03313-0.19055-0.07813-0.2793-0.08625-0.16875 0.05133-0.36102 0.23633-0.35352 0.01125 0 0.07336-0.0016 0.06836 0.03711-0.01 0.07875-0.02141 0.15406 0.05859 0.19531 0.0275 0.01375 0.0675 0.01375 0.09375 0 0.15-0.08 0.21594-0.22797 0.27344-0.38672 0.03125-0.0875 0.13492-0.16781 0.23242-0.22656 0.0425-0.02625 0.13812 0.01 0.10938 0.0625-0.0375 0.07-0.08227 0.16242-0.0098 0.20117 0.075 0.03875 0.1393-0.01922 0.1543-0.07422 0.0275-0.1 0.03008-0.20774 0.14258-0.24023 0.095-0.0275 0.21024-0.0055 0.20898 0.0957 0 0.06625-0.13891 0.07813-0.12891 0.17188 0.005 0.0525 0.045 0.10305 0.09375 0.12305 0.0775 0.03125 0.16555-0.01742 0.18555-0.07617 0.05125-0.15375 0.12258-0.31172 0.26758-0.38672 0.13125-0.06625 0.27359 0.07 0.24609 0.1875-0.0225 0.09625-0.23531 0.08016-0.16406 0.22266 0.02375 0.04625 0.28781-0.0029 0.25781 0.03711 0.765-0.89875 1.3839-1.9269 1.8164-3.0469h-3.0117zm-0.39453 0.05078c0.0075-0.0012 0.01773 0.01344 0.02148 0.02344 0.005 0.015 0.0068 0.03813-0.002 0.04687-0.01625 0.01625-0.03617-0.0047-0.04492-0.02344-0.01-0.0225 0.0066-0.04437 0.02539-0.04687zm-1.918 0.01367c0.0088 0.0088 0.01539 0.01844 0.02539 0.02344 0.0225 0.01 0.03773-0.004 0.02148-0.02148-0.0087-0.0087-0.03063-0.002-0.04687-0.002zm1.0547 0.02734c-0.01281-0.000156-0.0257 0.0093-0.0332 0.0293-0.0012 0.005 0.01398 0.02148 0.02148 0.02148 0.0175 0 0.03453-0.01273 0.05078-0.02148-0.0125-0.01813-0.02625-0.02914-0.03906-0.0293zm-0.13281 0.03711c-0.01625 0-0.03383-0.003-0.04883 0.002-0.01 0.0025-0.02273 0.01648-0.02148 0.02148 0.015 0.04625 0.06195 0.02234 0.0957 0.02734-0.0175-0.01125-0.03164-0.02578-0.02539-0.05078zm-0.17774 0.13476c-0.01625 0.01625 0.004 0.04297 0.02148 0.04297 0.0175 0 0.03969-0.02672 0.02344-0.04297-0.0087-0.0075-0.03742-0.0075-0.04492 0zm1.2207 0.01172c0.02375 0.01875 0.04625 0.06016 0 0.06641-0.015 0.0025-0.04242-0.02422-0.04492-0.04297-0.0012-0.01625 0.02492-0.03844 0.04492-0.02344zm-0.44336 0.002c0.01875-0.0125 0.05406-0.01352 0.07031 0.02148-0.055 0.01-0.03977 0.09539-0.07227 0.08789-0.0475-0.01125-0.0468-0.08063 0.002-0.10938zm-2.5977 0.02148c0.015 0.0125-0.02961 0.06063 0.02539 0.04687 0.02-0.005 0.03773-0.02867 0.02148-0.04492-0.0075-0.0075-0.03063-0.002-0.04687-0.002zm2.2148 0.0059c-0.015 0.01625 0.0059 0.04102 0.02344 0.04102 0.0175 0 0.03648-0.02477 0.02148-0.04102-0.0088-0.0087-0.03617-0.0087-0.04492 0zm-0.32617 0.0078c-0.01625 0.01625 0.004 0.04492 0.02148 0.04492 0.0175 0 0.03844-0.02867 0.02344-0.04492-0.0088-0.0075-0.03742-0.0075-0.04492 0zm0.12891 0c-0.01625 0.01625 0.004 0.04492 0.02148 0.04492 0.01625 0 0.03773-0.02867 0.02148-0.04492-0.0075-0.0075-0.03547-0.0075-0.04297 0zm1.0039 0.0625c0.015-0.015 0.03867 0.0047 0.04492 0.02344 0.0063 0.02375-0.02563 0.16656-0.04687 0.16406-0.085-0.01375-0.05055-0.13375 0.002-0.1875zm-0.69141 0.06641c-0.01281-0.000157-0.02375 0.0099-0.03125 0.0293-0.0025 0.005 0.01273 0.02148 0.02148 0.02148 0.01625 0 0.03133-0.01469 0.04883-0.02344-0.0125-0.0175-0.02625-0.02719-0.03906-0.02734zm-1.7324 0.01367c0.02875 0.0075 0.05383 0.05305 0.04883 0.0918-0.0025 0.02-0.02383 0.02859-0.04883 0.02734-0.02875-0.0012-0.06156 0.0064-0.07031-0.02734-0.01375-0.055 0.01656-0.1068 0.07031-0.0918zm1.0137 0.01758c0.0087 0.0075 0.01539 0.01844 0.02539 0.02344 0.02125 0.01 0.03899-0.0052 0.02148-0.02148-0.0075-0.0087-0.03063-0.002-0.04687-0.002zm2.9141 0.02344c0.08375 0 0.15039 0.06789 0.15039 0.15039 0 0.08375-0.06664 0.15039-0.15039 0.15039-0.0825 0-0.15039-0.06664-0.15039-0.15039 0-0.0825 0.06789-0.15039 0.15039-0.15039zm-2.0312 0.05273c-0.01281-0.000313-0.02375 0.0073-0.03125 0.02734-0.0025 0.005 0.01273 0.02148 0.02148 0.02148 0.01625 0 0.03453-0.01273 0.05078-0.02148-0.0125-0.0175-0.0282-0.02703-0.04102-0.02734zm-0.13476 0.01367c0.0087 0.0088 0.01539 0.01844 0.02539 0.02344 0.02125 0.01 0.03773-0.0052 0.02148-0.02148-0.0087-0.0087-0.02937-0.002-0.04687-0.002zm-2.6094 0.03516c-0.02125-0.01-0.03899 0.0052-0.02148 0.02148 0.0075 0.0087 0.03063 0.002 0.04687 0.002-0.0088-0.0075-0.01539-0.01844-0.02539-0.02344zm3.0938 0.002c0.02125-0.01375 0.04188 0.0034 0.04687 0.02344 0.005 0.01875 0.02242 0.06977-0.01758 0.04102-0.0125-0.0075-0.09805-0.0207-0.0293-0.06445zm-0.69531 0.02734c-0.01625 0.01625 0.004 0.04492 0.02148 0.04492 0.0175 0 0.03648-0.02867 0.02148-0.04492-0.0087-0.0087-0.03547-0.0087-0.04297 0zm-0.11914 0.03906c-0.01625 0.01625 0.0052 0.04102 0.02148 0.04102 0.0175 0.0012 0.03773-0.02477 0.02148-0.04102-0.0075-0.0087-0.03547-0.0087-0.04297 0zm-0.42383 0.04102c0.0088 0.0075 0.01539 0.01844 0.02539 0.02344 0.0225 0.01 0.03773-0.0052 0.02148-0.02148-0.0088-0.0087-0.03063-0.002-0.04688-0.002zm0.76758 0.04883c-0.01281-0.000313-0.02375 0.0093-0.03125 0.0293-0.0025 0.005 0.01273 0.02148 0.02148 0.02148 0.01625 0 0.03328-0.01469 0.05078-0.02344-0.0125-0.0175-0.0282-0.02703-0.04102-0.02734zm0.16602 0.06836c-0.01281-0.000156-0.02375 0.0093-0.03125 0.0293-0.0025 0.005 0.01078 0.02148 0.01953 0.02148 0.01625 0 0.03453-0.01273 0.05078-0.02148-0.0125-0.01813-0.02625-0.02914-0.03906-0.0293zm-2.1387 0.02148c0.0275 0.01125 0.06711 0.02328 0.06836 0.05078 0.005 0.06375-0.04391 0.12133-0.09766 0.14258-0.0088 0.0038-0.04227-0.02797-0.04102-0.04297 0.0025-0.05375 0.05031-0.09789 0.07031-0.15039zm1.3711 0.0293c0.0087 0.0088 0.01344 0.01844 0.02344 0.02344 0.0225 0.01 0.03969-0.0052 0.02344-0.02148-0.0087-0.0087-0.03063-0.002-0.04687-0.002zm0.34766 0.02148c-0.01625 0-0.03383-0.003-0.04883 0.002-0.01 0.0038-0.02273 0.01648-0.02148 0.02148 0.015 0.045 0.06195 0.02109 0.0957 0.02734-0.0175-0.0125-0.03164-0.02703-0.02539-0.05078zm-2.3418 0.02734c-0.02 0.0038-0.03969 0.02992-0.02344 0.04492 0.015 0.01625 0.04117-0.0034 0.04492-0.02344 0-0.0063-0.01523-0.02148-0.02148-0.02148zm1.8594 0.01172c-0.02109 0.0045-0.04516 0.01359-0.06641 0.01172 0.03125 0.0225 0.06336 0.05492 0.09961 0.04492 0.0125-0.0038 0.02773-0.03477 0.02148-0.04102-0.01438-0.02-0.03359-0.02016-0.05469-0.01563zm0.73242 0.06055c0 0.01625-0.0068 0.03937 0.002 0.04687 0.015 0.015 0.03273 0.001 0.02148-0.02148-0.005-0.01-0.01469-0.01789-0.02344-0.02539zm0.49609 0.0625c-0.03313 0.000469-0.06984 0.02328-0.08984 0.06641-0.03625 0.07375 0.0098 0.14375 0.07227 0.1875 0.01375 0.01 0.05156-0.01672 0.07031-0.04297-0.0825-0.03125-0.14008-0.10812-0.04883-0.17188 0.02875-0.02 0.05414 0.10094 0.05664 0.02344 0.0012-0.04125-0.02742-0.06297-0.06055-0.0625zm1.7852 0.0039c0.03875 0 0.07227 0.03156 0.07227 0.07031s-0.03352 0.07227-0.07227 0.07227-0.07031-0.03352-0.07031-0.07227 0.03156-0.07031 0.07031-0.07031zm-2.7539 0.01367c-0.0125 0-0.02703 0.02703-0.05078 0.01953 0.0175 0.0225-0.03461 0.07227 0.02539 0.07227 0.01625 0 0.03867-0.0097 0.04492-0.02344 0.0087-0.0225 0.01547-0.06961-0.01953-0.06836zm-1.6191 0.04883c0.08375-0.03 0.02351 0.04117 0.07227 0.04492-0.025 0.03625-0.05352 0.04-0.07227 0-0.0063-0.01375-0.0063-0.04242 0-0.04492zm1.7676 0.0098c-0.02875-0.0012-0.10211 0.05117-0.06836 0.10742 0.0062 0.01125 0.04336 0.0039 0.06836 0.0039-0.0325-0.04125 0.075-0.11008 0-0.11133zm-0.39258 0.01758c-0.03125 0.03125 0.05172 0.000469 0.04297 0.04297 0.02125-0.01125 0.06992-0.01797 0.04492-0.04297-0.0175-0.0175-0.07164-0.0175-0.08789 0zm2.5488 0.14844c0.05875 0 0.10742 0.04867 0.10742 0.10742s-0.04867 0.10547-0.10742 0.10547-0.10547-0.04672-0.10547-0.10547 0.04672-0.10742 0.10547-0.10742zm-1.1094 0.26758c-0.13875 0.12875-0.14359 0.32031-0.15234 0.47656-0.005 0.0875 0.16531 0.0968 0.22656-0.002 0.02-0.03125-0.03719-0.04172-0.02344-0.07422-0.01125 0.0175-0.02633 0.03344-0.04883 0.02344-0.07375-0.0325-0.05-0.10523 0-0.14648 0.01-0.0087 0.03258-0.002 0.04883-0.002-0.01625 0-0.03508 0.0043-0.04883-0.002-0.045-0.01875-0.02719-0.06391-0.02344-0.09766 0.0025-0.01875 0.02313-0.03164 0.04687-0.02539 0.0075-0.0525-0.04289-0.09539-0.02539-0.15039zm-0.47266 0.08008c-0.05375 0.0125-0.0425 0.11445-0.125 0.0957-0.0075 0.055 0.03633 0.01039 0.04883 0.02539-0.0063-0.02375 0.01469-0.04992 0.02344-0.04492 0.05875 0.0325 0.0084 0.12297 0.05469 0.16797 0.01 0.0075 0.03797 0.0075 0.04297 0 0.02125-0.03625-0.01695-0.0893 0.0293-0.12305 0.01625 0.035 0.04672 0.02414 0.07422 0.02539-0.0175-0.0225 0.03656-0.07047-0.02344-0.07422-0.0575-0.0025-0.0675-0.08602-0.125-0.07227zm2.082 0.0293c0.04375 0 0.07813 0.03438 0.07813 0.07813s-0.03438 0.08008-0.07813 0.08008-0.08008-0.03633-0.08008-0.08008 0.03633-0.07813 0.08008-0.07813zm-2.3164 0.0625c-0.01438-0.0019-0.02953 0.0035-0.03516 0.0098-0.02125 0.02375 0.0067 0.05102 0.04297 0.04102 0.01-0.0025 0.02469-0.01398 0.02344-0.02148-0.0031-0.01875-0.01688-0.02742-0.03125-0.0293zm-0.96289 0.0293c0.0175 0.0225-0.03531 0.07531 0.02344 0.07031 0.0375-0.0025 0.02484-0.04281 0.02734-0.07031h-0.05078zm0.21875 0.0293c-0.0275-0.025-0.04281 0.03117-0.07031 0.04492 0.0125 0.0175 0.02703 0.03219 0.05078 0.02344 0.03625-0.01375 0.03328-0.05711 0.01953-0.06836zm0.142 0.044c-0.0125-0.0023-0.02031 0.001-0.0078 0.02539 0.0025 0.0063 0.04797 0.02906 0.04297-0.02344-0.0063 0.0075-0.02266 0.000391-0.03516-0.002zm0.50977 0.002c-0.0062 0.03625-0.0048 0.09609 0.02148 0.08984 0.05375-0.01375-0.01023-0.05734-0.02148-0.08984zm0.15039 0.02539c-0.01875 0.10125 0.14703 0.08992 0.11328 0.16992-0.025 0.0575-0.05742 0.12766-0.13867 0.12891 0.01625 0.04625-0.04344 0.10812-0.02344 0.10938 0.14 0.0125 0.23172-0.19328 0.16797-0.33203-0.0038-0.0063-0.02992 0.0011-0.04492-0.0039-0.02-0.0062-0.02305-0.02688-0.0293-0.04687-0.0038-0.0125-0.02867-0.01664-0.04492-0.02539zm1.8066 0.07031c0.04375 0 0.07813 0.03438 0.07813 0.07813 0 0.045-0.03438 0.08008-0.07813 0.08008s-0.08008-0.03508-0.08008-0.08008c0-0.04375 0.03633-0.07813 0.08008-0.07813zm-1.8613 0.10742c-0.015-0.015-0.03078-0.0023-0.01953 0.02148 0.005 0.01 0.01469 0.01789 0.02344 0.02539 0-0.01625 0.0048-0.03937-0.0039-0.04687zm-0.11914 0.17383c-0.0075 0.0088-0.0075 0.03617 0 0.04492 0.0087 0.0087 0.03617 0.0087 0.04492 0 0.0075-0.0087 0.0075-0.03617 0-0.04492-0.0087-0.0075-0.03617-0.0075-0.04492 0zm-0.625 0.02148c0.0125 0.0725-0.01406 0.15953-0.10156 0.17578 0.06625 0.10375 0.14109 0.22024 0.27734 0.20898 0.01375-0.0012 0.04422 0.04445 0.07422 0.06445-0.04625 0.03-0.05828 0.0725-0.05078 0.125 0.02375-0.0075 0.03328 0.01219 0.05078 0.02344 0.02125 0.01375 0.04062-0.0054 0.04687-0.02539 0.005-0.015-0.0048-0.03492 0.0039-0.04492 0.0475-0.055 0.10188-0.0091 0.10938-0.10156 0.0038-0.05125 0.11242-0.0062 0.13867-0.07617 0.0087-0.02375-0.0079-0.03828-0.02539-0.05078 0.0725-0.03625 0.19008-0.07742 0.14258-0.16992-0.0062-0.01125-0.04766-0.01125-0.06641 0-0.0825 0.0475-0.04766 0.18828-0.12891 0.20703-0.0875 0.02125-0.11062 0.12695-0.17188 0.18945-0.03125-0.1025-0.05039-0.18875-0.15039-0.25 0.035-0.02375 0.04-0.05656 0-0.07031-0.03-0.01125-0.07141 0.004-0.09766-0.0098-0.0875-0.0475 0.04398-0.09992 0.02148-0.16992-0.0125-0.03625-0.04477-0.02414-0.07227-0.02539zm0.19922 0.10156c0.015 0.0125-0.03211 0.05938 0.02539 0.04688 0.0175-0.0038 0.04297-0.01469 0.04297-0.02344 0.0012-0.035-0.04086-0.02219-0.06836-0.02344zm-0.54297 0.0293c-0.04875 0.04-0.11406 0.12664-0.07031 0.15039 0.06875 0.03875 0.03492 0.17742 0.13867 0.13867 0.0125-0.005 0.02398-0.03852 0.02148-0.04102-0.09375-0.0725-0.0293-0.11812-0.0293-0.20312 0-0.015-0.03055-0.06992-0.06055-0.04492zm0.74219 0.01953c-0.0325 0.0325-0.07016 0.06156-0.09766 0.10156-0.015 0.02 0.01078 0.04797 0.01953 0.04297 0.06-0.03125 0.10438-0.06578 0.07813-0.14453zm-4.4629 0.07227c0.0975 0 0.17578 0.08023 0.17578 0.17774 0 0.0975-0.07828 0.17578-0.17578 0.17578s-0.17578-0.07828-0.17578-0.17578 0.07828-0.17774 0.17578-0.17774zm3.9395 0.20117c-0.0175 0-0.03813-0.0036-0.04687 0.0039-0.015 0.015-0.001 0.03078 0.02148 0.01953 0.01-0.005 0.01664-0.01469 0.02539-0.02344zm-0.44922 0.05078c-0.01625 0.0012-0.03992-0.0055-0.04492 0.002-0.0125 0.01875-0.0039 0.04727-0.0039 0.07227 0.02625-0.0025 0.06836 0.01156 0.06836-0.02344 0-0.0125 0.03672-0.05703-0.01953-0.05078zm-1.6699 0.02539c-0.05875 0.07-0.17375 0.02977-0.21875 0.10352-0.015 0.02375-0.02367 0.08789 0.01758 0.08789 0.0425 0 0.0125-0.06234 0.03125-0.08984 0.005-0.0075 0.03422-0.0087 0.04297 0 0.0087 0.0087 0.002 0.03133 0.002 0.04883-0.0175-0.08125 0.07805-0.07297 0.12305-0.10547 0.0075-0.0063 0.002-0.02867 0.002-0.04492zm1.8438 0c-0.0175 0.0125-0.03524 0.02758-0.02148 0.04883 0.01125 0.01625 0.03024 0.02703 0.02148 0.05078-0.0275 0.0675-0.1243 0.09688-0.0918 0.17188 0.0038 0.0087 0.0543 0.01055 0.06055-0.002 0.01875-0.03125 0.0017-0.07789 0.01172-0.11914 0.0125-0.05375 0.11664-0.0593 0.08789-0.12305-0.005-0.0125-0.05211 0.0077-0.06836-0.02734zm0.19531 0.02734c-0.0125-0.0175-0.03602 0.0027-0.04102 0.02148-0.0075 0.0325 0.0048 0.07492 0.04102 0.04492 0.0125-0.01125 0.0125-0.05016 0-0.06641zm-5.4805 0.05273c0.1075 0 0.19336 0.08711 0.19336 0.19336 0 0.1075-0.08586 0.19531-0.19336 0.19531s-0.19336-0.08781-0.19336-0.19531c0-0.10625 0.08586-0.19336 0.19336-0.19336zm5.7852 0.02148c-0.02 0.0075-0.03344 0.02437-0.02344 0.04688 0.005 0.01 0.01469 0.01664 0.02344 0.02539 0.01375-0.0275 0.06617-0.03727 0.04492-0.07227-0.005-0.0075-0.02992-0.005-0.04492 0zm-0.17578 0.02344c-0.01625 0-0.03617-0.0068-0.04492 0.002-0.0088 0.0087-0.0039 0.02937-0.0039 0.04687 0.02375-0.0075 0.04133 0.0066 0.04883 0.02539 0.005 0.015 0.005 0.03383 0 0.04883-0.0063 0.02-0.02508 0.03289-0.04883 0.02539-0.0063 0.02375 0.01078 0.03773 0.01953 0.02148 0.0087-0.01625 0.01125-0.03867 0.03125-0.04492 0.015-0.005 0.03992 0.0048 0.04492-0.0039 0.03625-0.05125-0.05063-0.07109-0.04687-0.12109zm-0.59961 0.002c-0.0175-0.015-0.03992 0.0034-0.04492 0.02344-0.0075 0.0325 0.0016 0.06516-0.0059 0.09766-0.005 0.02-0.02313 0.03289-0.04687 0.02539 0.04375 0.06875-0.02703 0.17461 0.07422 0.22461 0-0.04125-0.0086-0.0843 0.0039-0.12305 0.02-0.0625 0.07109-0.05109 0.12109-0.02734-0.02125-0.08-0.03781-0.1632-0.10156-0.2207zm0.47656 0.09766c-0.04125 0.05-0.11625 0.07094-0.125 0.14844 0.0825-0.015 0.11125-0.07594 0.125-0.14844zm-0.41992 0.17969c-0.0125 0.0087-0.0125 0.05445 0 0.06445 0.0225 0.01625 0.06625 0.01375 0.09375 0 0.0063-0.0025 0.0068-0.03172-0.002-0.04297-0.02125-0.03375-0.0668-0.04023-0.0918-0.02148zm-6.5996 0.002c0.12625 0 0.22852 0.10102 0.22852 0.22852 0 0.12625-0.10227 0.23047-0.22852 0.23047s-0.23047-0.10422-0.23047-0.23047c0-0.1275 0.10422-0.22852 0.23047-0.22852zm4.4258 0.04102c0 0.01625 0.0055 0.04063-0.002 0.04687-0.07125 0.0475-0.12141 0.02891-0.09766 0.12891 0.04625-0.01875 0.095-0.02422 0.125-0.07422 0.02875-0.0475-0.03664-0.06281-0.02539-0.10156zm1.2969 0.20312c-0.01875 0.0025-0.03539 0.02438-0.02539 0.04687 0.0087 0.02 0.02633 0.03539 0.04883 0.02539 0.01875-0.0087 0.03844-0.02883 0.02344-0.04883-0.01-0.01375-0.03187-0.02469-0.04687-0.02344zm-4.9004 0.05859c0.0975 0 0.17773 0.07828 0.17773 0.17578s-0.08023 0.17578-0.17773 0.17578c-0.09625 0-0.17774-0.07828-0.17774-0.17578s0.08149-0.17578 0.17774-0.17578zm6.0098 0.01758c0.05375 0 0.09766 0.04195 0.09766 0.0957s-0.04391 0.09766-0.09766 0.09766-0.0957-0.04391-0.0957-0.09766 0.04195-0.0957 0.0957-0.0957zm-1.2559 0.02734c-0.01125 0.0062-0.0125 0.04891 0 0.06641 0.01125 0.015 0.02773 0.0028 0.02148-0.02344-0.0038-0.02 0.02102-0.06797-0.02148-0.04297zm-1.7344 0.06641c-0.03016 0.002-0.06109 0.0088-0.08984 0.002 0.0038 0.08375 0.08844 0.04633 0.11719 0.08008 0.03625 0.045-0.05516 0.03281-0.06641 0.07031-0.0087 0.025 0.0054 0.04008 0.02539 0.04883 0.0225 0.01 0.04367-0.0066 0.04492-0.02539 0.0075-0.05875-0.0035-0.11469 0.05273-0.14844-0.02563-0.02625-0.05383-0.02938-0.08398-0.02734zm1.6504 0.03516c-0.04375-0.03125-0.09039 0.02141-0.11914 0.06641 0.04875-0.01 0.11961 0.0042 0.09961 0.07422 0.085-0.075 0.19274 0.05141 0.27148-0.02734 0.0087-0.0087 0.002-0.03063 0.002-0.04687-0.11125 0.03125-0.15641 0.0036-0.25391-0.06641zm-0.31445 0.0918c-0.0175 0.05-0.08688 0.10867-0.04687 0.13867 0.04375 0.03125 0.0168-0.09984 0.0918-0.08984 0-0.01625 0.0068-0.03813-0.002-0.04687-0.0087-0.0075-0.04047-0.007-0.04297-0.002zm-0.35547 0.0293c-0.0225-0.01-0.07195-0.01297-0.06445 0.01953 0.01375 0.065-0.01781 0.11703-0.0078 0.17578-0.01875-0.08625 0.0857-0.08789 0.0957-0.15039 0.0025-0.015-0.0097-0.03992-0.02344-0.04492zm0.4707 0.07617c-0.0325-0.03-0.0024 0.05367-0.04492 0.04492h0.07422c-0.0175-0.0125-0.02055-0.03617-0.0293-0.04492zm-1.6172 0.07227c-0.0425-0.0025-0.04641 0.07227-0.09766 0.07227 0.0025 0.01875-0.02477 0.06422 0.02149 0.04297 0.03375-0.01375 0.05476-0.05547 0.10352-0.04297-0.0025-0.0275 0.0089-0.06977-0.02734-0.07227zm-0.22266 0.09766c-0.0013 0.02625 0.0096 0.05727-0.02539 0.07227 0.025 0 0.05602 0.0086 0.07227-0.0039 0.0175-0.0125-0.004-0.03117-0.02148-0.04492-0.0087-0.0075-0.01664-0.01594-0.02539-0.02344zm-4.2773 0.03906c0.0875 0 0.16016 0.0707 0.16016 0.1582s-0.07266 0.16016-0.16016 0.16016-0.1582-0.07266-0.1582-0.16016 0.0707-0.1582 0.1582-0.1582zm4.1055 0.0625c-0.0175 0.0075-0.03258 0.01859-0.04883 0.02734-0.01625 0.01 0.0052 0.04156 0.02148 0.03906 0.02375-0.0025 0.07406 0.04047 0.07031-0.01953 0-0.02125-0.0055-0.06563-0.04297-0.04687zm1.0137 0.08008c-0.0525-0.035-0.09133 0.04641-0.14258 0.06641 0.02875 0.05625 0.14586 0.10094 0.16211 0.02344 0.005-0.0225-0.0033-0.07859-0.01953-0.08984zm-1.0176 0.05273c-0.05-0.0063 0.0044 0.08149-0.04687 0.11524-0.005 0.0038-0.002 0.01469-0.002 0.02344 0.06625-0.01 0.10633-0.13117 0.04883-0.13867zm-0.71875 0.01172c-0.01766-0.000469-0.03586 0.0045-0.05273 0.002 0.025 0.04125 0.06586 0.02039 0.09961 0.02539-0.0125-0.02062-0.02922-0.02688-0.04687-0.02734zm0.39648 0.0059c-0.01625 0.0075-0.02578 0.02773-0.05078 0.02148 0 0.01625 0.003 0.03383-0.002 0.04883-0.01125 0.0375-0.04906 0.03148-0.07031 0.02148-0.03125-0.01375-0.05367-0.065-0.07617-0.0625-0.07375 0.01-0.10008 0.10336-0.04883 0.16211 0.0075 0.0088 0.03188 0.000859 0.04687 0.0059 0.02 0.0063 0.03594 0.02437 0.02344 0.04687-0.01125 0.02-0.03063 0.03453-0.04687 0.05078 0.0325-0.01375 0.04297 0.04289 0.07422 0.02539 0.04875-0.0275 0.03734-0.08344 0.05859-0.11719 0.0325-0.05125 0.09586-0.08867 0.13086-0.13867 0.03875-0.05625-0.01281-0.07695-0.03906-0.06445zm-0.42383 0.0957c-0.01625 0-0.04063-0.0068-0.04687 0.002-0.01125 0.0175-0.0125 0.05586 0 0.06836 0.02875 0.03 0.05945-0.02328 0.0957-0.01953 0-0.0175 0.0055-0.04008-0.002-0.04883-0.0088-0.0087-0.03063-0.002-0.04687-0.002zm0.52344 0.02539c0.0062 0.02375-0.01828 0.03828-0.01953 0.05078 0 0.035 0.04086 0.02094 0.06836 0.02344 0-0.0175 0.0043-0.03383-0.002-0.04883-0.0063-0.01875-0.02313-0.03289-0.04687-0.02539zm1.2207 0.05078c-0.02875 0.02625-0.06203 0.05016-0.05078 0.09766 0.025-0.0062 0.03953 0.0079 0.05078 0.02539 0.0087-0.04125 0.0375-0.0818 0-0.12305zm-1.9766 0.01563c-0.01141-0.000312-0.02008 0.0063-0.01758 0.0332 0.01-0.0225 0.07367 0.03477 0.04492-0.02148-0.0019-0.0031-0.01594-0.01141-0.02734-0.01172zm1.8281 0.05664c0.0075 0.04125-0.07492 0.02656-0.04492 0.03906 0.0525 0.02 0.10633 0.03414 0.14258 0.08789 0.01375 0.02125-0.0072 0.03633-0.02344 0.04883-0.01625-0.035-0.04797-0.02289-0.07422-0.02539 0 0.03375 0.0055 0.06836-0.002 0.09961-0.005 0.02-0.03422 0.0225-0.04297 0.03125-0.04 0.0425 0.02102 0.04906 0.04102 0.03906 0.0525-0.02875 0.11609-0.03625 0.15234-0.09375 0.015-0.02375 0.03719-0.05047 0.02344-0.07422-0.04-0.07-0.12562-0.08859-0.17188-0.15234zm-2.5684 0.30078c-0.02875 0.03625-0.06492 0.07805-0.04492 0.12305 0.0025 0.0063 0.03656 0.0063 0.03906 0 0.015-0.03625 0.0059-0.0818 0.0059-0.12305zm-2.457 0.01758c0.0725 0 0.13281 0.05906 0.13281 0.13281 0 0.0725-0.06031 0.13086-0.13281 0.13086s-0.13281-0.05836-0.13281-0.13086c0-0.07375 0.06031-0.13281 0.13281-0.13281zm2.582 0.0078v0.04883c0.0125-0.01625 0.06492 0.02781 0.04492-0.02344-0.0038-0.0125-0.02867-0.01789-0.04492-0.02539zm0.04883 0.10156c-0.02 0.005-0.03773 0.02867-0.02148 0.04492 0.0087 0.0087 0.02937 0.002 0.04687 0.002-0.0025-0.01875 0.02711-0.06063-0.02539-0.04687zm-0.12109 0.10156c-0.0075 0.0038-0.0088 0.03422 0 0.04297 0.0087 0.0088 0.02937 0.002 0.04687 0.002-0.0125-0.02125-0.01187-0.06617-0.04687-0.04492zm0.26953 0.16992c-0.015 0.06125 0.02664 0.11578 0.02539 0.17578 0.025 0 0.05961 0.0066 0.06836-0.0059 0.05-0.06875-0.09406-0.06398-0.07031-0.14648 0.0013-0.005-0.01469-0.01469-0.02344-0.02344zm0.225 0.126c-0.01875 0.0075-0.03969 0.03047-0.02344 0.04297 0.0175 0.0125 0.04727 0.0059 0.07227 0.0059-0.04125 0.0075-0.0013-0.06758-0.04883-0.04883z" transform="matrix(.8 0 0 -.8 285.29 571.96)" fill="#0270bb"/><path d="m15.174 2.9727c-0.35625 0-0.66406 0.15344-0.66406 0.46094 0 0.13 0.08164 0.2675 0.21289 0.34375 0.155 0.09125 0.24859 0.10992 0.43359 0.13867l0.19336 0.03125c0.1175 0.01625 0.2207 0.10867 0.2207 0.20117 0 0.1225-0.13219 0.22656-0.27344 0.22656-0.335 0-0.54812-0.2282-0.64062-0.4707h-0.14648l0.01953 0.5625h0.11133l0.13281-0.12695c0.14 0.08875 0.34219 0.13867 0.52344 0.13867 0.16 0 0.33219-0.028125 0.46094-0.10938 0.135-0.09 0.21094-0.21797 0.21094-0.35547 0-0.35-0.32039-0.45172-0.68164-0.51172l-0.131-0.0236c-0.12875-0.02-0.25781-0.076953-0.25781-0.18945 0-0.115 0.13258-0.20703 0.26758-0.20703 0.31125 0 0.46414 0.16141 0.55664 0.41016h0.14062l-0.0078-0.50195h-0.10742l-0.10156 0.095703c-0.132-0.0738-0.312-0.1133-0.472-0.1133zm-3.3281 0.035156v0.10742c0.03 0 0.15031-0.00148 0.19531 0.00977 0.035 0.0125 0.03906 0.033047 0.03906 0.060547v0.8125c0 0.1575 0.04352 0.28516 0.19727 0.37891 0.12625 0.0775 0.41711 0.10156 0.56836 0.10156 0.11875 0 0.27531-0.012344 0.38281-0.058594 0.12875-0.05125 0.22688-0.15594 0.26562-0.27344 0.02375-0.0675 0.0293-0.12531 0.0293-0.19531v-0.56836c0.0075-0.16125 0.03641-0.26133 0.25391-0.26758v-0.10742h-0.6543v0.10742c0.03875 0.00125 0.08289-0.0000781 0.11914 0.013672 0.13375 0.03 0.13672 0.14148 0.13672 0.24023v0.51562c0 0.11125 0.0012 0.2207-0.08008 0.31445-0.075 0.09375-0.21164 0.13086-0.33789 0.13086-0.0775 0-0.13969-0.010859-0.21094-0.037109-0.0825-0.03125-0.12055-0.059609-0.1543-0.13086-0.035-0.0725-0.0332-0.18422-0.0332-0.26172v-0.66211c0-0.02375-0.0042-0.071797 0.01953-0.091797 0.0525-0.045 0.14805-0.02375 0.2168-0.03125v-0.10742h-0.95312zm2.1133 0.95703c-0.15 0-0.27734 0.11781-0.27734 0.25781s0.12734 0.25586 0.27734 0.25586c0.15125 0 0.2793-0.11586 0.2793-0.25586s-0.12805-0.25781-0.2793-0.25781zm2.3457 0c-0.15125 0-0.2793 0.11781-0.2793 0.25781s0.12805 0.25586 0.2793 0.25586c0.15 0 0.27734-0.11586 0.27734-0.25586s-0.12734-0.25781-0.27734-0.25781zm-9.3926 0.89062c-0.35625 0-0.66406 0.15469-0.66406 0.46094 0 0.13 0.082891 0.26875 0.21289 0.34375 0.155 0.0925 0.24734 0.10992 0.43359 0.13867l0.19141 0.03125c0.1175 0.015 0.22266 0.10867 0.22266 0.20117 0 0.12375-0.13219 0.22656-0.27344 0.22656-0.33625 0-0.54617-0.2282-0.63867-0.4707h-0.14844l0.019531 0.5625h0.11133l0.13086-0.12695c0.14125 0.09 0.34539 0.13867 0.52539 0.13867 0.16125 0 0.33344-0.028125 0.46094-0.10938 0.135-0.09 0.21094-0.21797 0.21094-0.35547 0-0.35-0.31969-0.45297-0.67969-0.51172l-0.1351-0.0236c-0.1275-0.02-0.25781-0.076953-0.25781-0.18945 0-0.115 0.13328-0.20703 0.26953-0.20703 0.31125 0 0.46289 0.16141 0.55664 0.41016h0.13867l-0.00586-0.50195h-0.10742l-0.1016 0.0958c-0.1325-0.0738-0.3127-0.1133-0.4727-0.1133zm4.2051 0.00586c-0.26625 0-0.48047 0.13836-0.48047 0.38086 0 0.10375 0.03625 0.1925 0.09375 0.28125-0.105 0.04375-0.21719 0.084297-0.30469 0.1543-0.09375 0.07375-0.16602 0.18367-0.16602 0.29492 0 0.1 0.05828 0.21695 0.14453 0.2832 0.10375 0.0775 0.24125 0.10547 0.375 0.10547 0.17875 0 0.35164-0.037812 0.49414-0.13281 0.09125 0.07125 0.23758 0.12695 0.36133 0.12695 0.26375 0 0.37312-0.14406 0.42188-0.35156l-0.10742-0.021484c-0.01375 0.08375-0.06328 0.17383-0.17578 0.17383-0.08875 0-0.17531-0.088828-0.22656-0.14258 0.05625-0.05625 0.09742-0.11594 0.13867-0.17969 0.08625-0.13625 0.11586-0.20719 0.31836-0.21094v-0.10352h-0.625v0.097656c0.085 0 0.20703 0.00602 0.20703 0.10352 0 0.07375-0.06578 0.15469-0.11328 0.21094-0.115-0.14125-0.22883-0.28484-0.33008-0.43359 0.18125-0.05875 0.4043-0.15656 0.4043-0.35156 0-0.08875-0.05031-0.1668-0.13281-0.2168-0.09375-0.05625-0.18687-0.068359-0.29687-0.068359zm-7.5313 0.029297v0.10547h0.060547c0.04375 0.0025 0.066172-0.00133 0.10742 0.013672 0.04875 0.01125 0.048828 0.0575 0.048828 0.09375v0.98828c0 0.03-0.0003125 0.061797-0.00781 0.091797-0.00375 0.005-0.00672 0.015234-0.011719 0.021484-0.00375 0.005-0.013281 0.00992-0.019531 0.013672-0.02375 0.0075-0.044609 0.00781-0.068359 0.00781h-0.11133v0.10547h0.95117v-0.10547l-0.1198-0.0079c-0.1312-0.0038-0.1308-0.0266-0.1308-0.1329v-0.41797h0.023438c0.15375 0 0.24883 0.046719 0.29883 0.13672 0.025 0.04625 0.035312 0.073594 0.039063 0.12109h0.11719v-0.66602h-0.11719c-0.0475 0.195-0.11508 0.28609-0.36133 0.27734v-0.41016c0-0.0325-0.00391-0.075859 0.027344-0.099609 0.055-0.0336 0.1284-0.0272 0.1934-0.0272 0.335 0 0.46742 0.14852 0.54492 0.41602h0.11523l-0.017578-0.52539h-1.5625zm1.6426 0v0.10547h0.070312c0.04125 0.0025 0.060859-0.0007813 0.099609 0.011719 0.0325 0.0075 0.029766 0.023125 0.041016 0.046875 0.005 0.0225 0.00391 0.043906 0.00391 0.066406v0.96875c0 0.0775 0.0093 0.12672-0.095703 0.13672h-0.11914v0.10547h0.91797v-0.10547h-0.056641c-0.037-0.0026-0.0497-0.0017-0.0847-0.0079-0.0113-0.0013-0.0227-0.0002-0.0352-0.004-0.0425-0.0137-0.043-0.0586-0.043-0.0898v-0.99805c0-0.0225-0.00234-0.046406 0.00391-0.066406 0.005-0.0125 0.00828-0.027109 0.019531-0.037109 0.03625-0.03375 0.073594-0.027344 0.12109-0.027344h0.074219v-0.10547h-0.91797zm2.4551 0v0.10547c0.0625 0.00375 0.10406-0.00203 0.16406 0.011719 0.0575 0.01375 0.048828 0.071328 0.048828 0.11133v0.96094c-0.0025 0.035-0.00922 0.067266-0.011719 0.10352-0.0025 0.03375-0.042969 0.042969-0.074219 0.042969h-0.12695v0.10547h0.90625v-0.10547c-0.0275 0-0.10438-0.00531-0.14062-0.00781-0.07125-0.005-0.070313-0.069844-0.070313-0.12109v-0.39258h0.56445v0.35742c0 0.04875 0.015703 0.14484-0.060547 0.15234-0.04375 0.00625-0.12398 0.011719-0.14648 0.011719v0.10547h0.90234v-0.10547c-0.0625 0.0025-0.098906-0.00547-0.16016-0.011719-0.03-0.0075-0.046328-0.019375-0.048828-0.046875-0.0025-0.03875-0.00195-0.076484-0.00195-0.11523v-0.91992c0-0.045-0.012813-0.11516 0.054687-0.12891l0.15039-0.00781v-0.10547h-0.89648v0.10547c0.03625 0 0.15375-0.00461 0.1875 0.025391 0.0125 0.01 0.013828 0.022656 0.017578 0.035156 0.005 0.02375 0.00195 0.049922 0.00195 0.076172v0.44336h-0.56445v-0.45508c0-0.03625-0.00172-0.073516 0.019531-0.10352 0.0425-0.02625 0.15766-0.021484 0.19141-0.021484v-0.10547h-0.90625zm4.7441 0v0.10547h0.01953c0.0575 0.00375 0.0975 0.0009374 0.125 0.054687 0.0175 0.02625 0.02781 0.057187 0.03906 0.085938l0.46289 1.2246h0.24219l0.30664-0.83203 0.29297 0.83203h0.23633l0.40625-1.125c0.03625-0.09625 0.07742-0.20117 0.20117-0.23242 0.01125-0.0025 0.02266-0.00531 0.03516-0.00781v-0.10547h-0.57227v0.10547c0.0825 0 0.20703 0.023984 0.20703 0.11523 0 0.06625-0.02367 0.12625-0.04492 0.1875l-0.1875 0.53516-0.25-0.72656c-0.0075-0.02625-0.02406-0.056328-0.0078-0.080078 0.0075-0.00625 0.01664-0.013828 0.02539-0.017578 0.0325-0.015 0.07047-0.011172 0.10547-0.013672v-0.10547h-0.75391v0.10547l0.027 0.0038c0.025 0.00375 0.06188 0.00344 0.07813 0.023437 0.0325 0.04 0.03648 0.057109 0.05273 0.099609l0.07813 0.20703-0.19141 0.51758-0.27539-0.73438-0.01758-0.046875c-0.0012-0.0125-0.0073-0.029063 0.0039-0.039062 0.0087-0.01375 0.01109-0.012031 0.02734-0.019531 0.035-0.01 0.07172-0.00922 0.10547-0.011719v-0.10547h-0.77734zm2.5137 0v0.10547h0.07031c0.04125 0.0025 0.06086-0.0007813 0.09961 0.011719 0.0325 0.0075 0.02977 0.023125 0.04102 0.046875 0.005 0.0225 0.0039 0.043906 0.0039 0.066406v0.96875c0 0.0775 0.0093 0.12672-0.0957 0.13672h-0.11914v0.10547h0.91602v-0.10547h-0.05469c-0.037-0.0026-0.051-0.0017-0.084-0.0079-0.011-0.0013-0.023-0.0002-0.035-0.004-0.043-0.0137-0.043-0.0586-0.043-0.0898v-0.99805c0-0.0225-0.0023-0.046406 0.0039-0.066406 0.005-0.0125 0.0063-0.027109 0.01758-0.037109 0.03625-0.03375 0.07555-0.027344 0.12305-0.027344h0.07227v-0.10547h-0.91602zm0.99609 0v0.10547h0.03516c0.1925 0.00375 0.17774 0.00828 0.17774 0.17578v0.94727c0 0.0375-0.000391 0.095859-0.05664 0.099609-0.06 0.00375-0.095 0.011563-0.15625 0.00781v0.10547h1.4238l0.02734-0.53906h-0.11719c-0.06625 0.27125-0.1925 0.43359-0.4375 0.43359-0.05 0-0.04766-0.00281-0.09766-0.00781-0.104-0.0089-0.097-0.0541-0.102-0.1291v-0.98633c0-0.08125 0.0056-0.10742 0.10938-0.10742h0.09766v-0.10547h-0.9043zm1.4902 0v0.10547h0.05469c0.04625 0 0.09297-0.00203 0.13672 0.011719 0.0375 0.0125 0.04687 0.0325 0.04687 0.0625v1.0352c0 0.02375 0.0029 0.049062-0.0059 0.070312-0.0025 0.01-0.01078 0.023047-0.01953 0.029297-0.0075 0.0075-0.01859 0.011172-0.02734 0.013672-0.06 0.0075-0.12305 0.00781-0.18555 0.00781v0.10547h0.81836c0.15375 0 0.42391-0.0007812 0.56641-0.050781 0.165-0.05625 0.30836-0.17516 0.38086-0.31641 0.06-0.11375 0.08398-0.24414 0.08398-0.36914 0-0.19-0.05633-0.36211-0.20508-0.50586-0.06625-0.06125-0.15945-0.10953-0.25195-0.14453-0.1075-0.04125-0.28023-0.047578-0.39648-0.048828l-0.21484-0.00586h-0.78125zm1.8145 0v0.10547h0.0332c0.19375 0.00375 0.17969 0.00828 0.17969 0.17578v0.94727c0 0.0375 0.00086 0.095859-0.05664 0.099609-0.06 0.00375-0.095 0.011563-0.15625 0.00781v0.10547h1.4238l0.02734-0.53906h-0.11914c-0.06625 0.27125-0.19055 0.43359-0.43555 0.43359-0.05 0-0.04961-0.00281-0.09961-0.00781-0.104-0.0089-0.097-0.0541-0.101-0.1291v-0.98633c0-0.08125 0.0088-0.10742 0.11133-0.10742h0.09766v-0.10547h-0.9043zm1.5449 0v0.10547h0.07227c0.04125 0.0025 0.06086-0.0007813 0.09961 0.011719 0.0325 0.0075 0.02977 0.023125 0.04102 0.046875 0.005 0.0225 0.0039 0.043906 0.0039 0.066406v0.96875c0 0.0775 0.0093 0.12672-0.0957 0.13672h-0.12109v0.10547h0.91797v-0.10547h-0.05469c-0.036-0.0026-0.05-0.0017-0.084-0.0079-0.011-0.0013-0.022-0.0002-0.035-0.004-0.042-0.0137-0.043-0.0586-0.043-0.0898v-0.99805c0-0.0225-0.0023-0.046406 0.0039-0.066406 0.005-0.0125 0.0063-0.027109 0.01758-0.037109 0.03625-0.03375 0.07359-0.027344 0.12109-0.027344h0.07422v-0.10547h-0.91797zm1.002 0v0.10547h0.05859c0.04375 0.0025 0.06812-0.00133 0.10938 0.013672 0.0475 0.01125 0.04687 0.0575 0.04687 0.09375v0.98828c0 0.03 0.000391 0.061797-0.0059 0.091797-0.005 0.005-0.008 0.015234-0.01172 0.021484-0.005 0.005-0.01398 0.00992-0.02148 0.013672-0.0225 0.0075-0.04391 0.00781-0.06641 0.00781h-0.11133v0.10547h0.95117v-0.10547l-0.11914-0.00781c-0.131-0.0039-0.131-0.0267-0.131-0.133v-0.41797h0.02148c0.15375 0 0.25273 0.046719 0.30273 0.13672 0.025 0.04625 0.03211 0.073594 0.03711 0.12109h0.11719v-0.66602h-0.11719c-0.04875 0.195-0.11633 0.28609-0.36133 0.27734v-0.41016c0-0.0325-0.0052-0.075859 0.02734-0.099609 0.056-0.0336 0.13-0.0272 0.194-0.0272 0.335 0 0.46742 0.14852 0.54492 0.41602h0.11524l-0.01563-0.52539h-1.5645zm1.627 0v0.10547c0.06375 0 0.10547-0.0007813 0.16797 0.011719 0.025 0.00375 0.03492 0.013203 0.04492 0.033203 0.0087 0.0125 0.0059 0.029219 0.0059 0.042969v1.0195c0 0.02375 0.0029 0.047813-0.0059 0.070312-0.02125 0.07375-0.15164 0.046484-0.21289 0.052734v0.10547h1.5605l0.02539-0.5293-0.11523-0.00781c-0.09625 0.29-0.17461 0.43164-0.53711 0.43164-0.04125 0-0.08375-0.00406-0.125-0.00781-0.1125-0.01-0.10742-0.053125-0.10742-0.14062v-0.4375c0.22875-0.005 0.35648 0.11414 0.36523 0.30664h0.125l-0.0098-0.69531h-0.11719c-0.02625 0.18625-0.13703 0.29945-0.36328 0.2832v-0.37695c0-0.03375-0.0026-0.070312 0.01367-0.10156 0.0038-0.0175 0.02086-0.029062 0.03711-0.039063 0.05-0.02 0.10711-0.023437 0.16211-0.023437 0.3675 0 0.4325 0.12477 0.53125 0.41602h0.11523l-0.01562-0.51953h-1.5449zm-12.299 0.068359c0.12 0 0.1875 0.094453 0.1875 0.18945 0 0.12-0.06445 0.2025-0.18945 0.25-0.0087 0.0075-0.02195 0.00992-0.0332 0.013672-0.04875-0.06125-0.13476-0.21-0.13476-0.28125 0-0.09375 0.05617-0.17188 0.16992-0.17188zm7.1777 0.035156c0.315 0 0.3843 0.13312 0.43555 0.39062 0.01375 0.0775 0.01758 0.15492 0.01758 0.23242 0 0.04875-0.0016 0.098984-0.0078 0.14648-0.04375 0.29125-0.07883 0.46289-0.45508 0.46289-0.03375 0-0.06953-0.0043-0.11328-0.029297-0.03-0.03375-0.02344-0.088906-0.02344-0.12891v-0.95508c0-0.025-0.001-0.068437 0.02148-0.085937 0.04125-0.0325 0.09125-0.033203 0.125-0.033203zm-7.5156 0.61914c0.0225 0.03625 0.04516 0.072422 0.06641 0.10742 0.0875 0.14 0.14211 0.21109 0.25586 0.33984 0.0275 0.03125 0.05844 0.064453 0.08594 0.095703-0.03 0.03-0.11445 0.048828-0.1582 0.048828-0.1175 0-0.20273-0.045703-0.27148-0.12695-0.06125-0.07375-0.11133-0.17508-0.11133-0.26758 0-0.0875 0.05406-0.14977 0.13281-0.19727zm-1.279 1.0936c-0.35625 0-0.66602 0.15344-0.66602 0.46094 0 0.12875 0.084844 0.26875 0.21484 0.34375 0.155 0.0925 0.24664 0.11117 0.43164 0.13867l0.19336 0.03125c0.1175 0.015 0.22266 0.10992 0.22266 0.20117 0 0.12375-0.13289 0.22656-0.27539 0.22656-0.335 0-0.54617-0.2282-0.63867-0.4707h-0.14844l0.021484 0.5625h0.10938l0.13281-0.12891c0.14 0.09 0.34344 0.14062 0.52344 0.14062 0.16 0 0.33539-0.028125 0.46289-0.10938 0.135-0.09 0.20898-0.21797 0.20898-0.35547 0-0.34875-0.31844-0.45172-0.67969-0.51172l-0.13281-0.023437c-0.12875-0.02125-0.25781-0.07625-0.25781-0.1875 0-0.11625 0.13328-0.20898 0.26953-0.20898 0.31 0 0.46219 0.16141 0.55469 0.41016h0.14062l-0.0078-0.50195h-0.10742l-0.09961 0.095703c-0.1326-0.0736-0.3128-0.1132-0.4728-0.1132zm7.9336 0c-0.2275 0-0.50602 0.04875-0.66602 0.1875-0.17 0.14875-0.25 0.37062-0.25 0.57812 0 0.19125 0.06391 0.40422 0.22266 0.54297 0.16875 0.1525 0.43328 0.19141 0.67578 0.19141 0.4225 0 0.65414-0.16734 0.74414-0.52734l-0.13672-0.027344c-0.04875 0.23375-0.21992 0.43164-0.51367 0.43164-0.11 0-0.20266-0.024141-0.28516-0.087891-0.085-0.0675-0.11367-0.13352-0.13867-0.22852-0.0275-0.1025-0.03906-0.20094-0.03906-0.30469 0-0.07875 0.0026-0.17305 0.01758-0.24805 0.02625-0.11375 0.03719-0.18625 0.11719-0.28125 0.08-0.0925 0.1768-0.125 0.31055-0.125 0.2975 0 0.45062 0.26688 0.51562 0.48438l0.11719-0.00977-0.02148-0.57227h-0.0957l-0.13086 0.10742c-0.0087-0.00375-0.01984-0.00938-0.02734-0.015625-0.14-0.0775-0.25352-0.095703-0.41602-0.095703zm-7.1035 0.029297v0.10547c0.065 0 0.10547-0.00148 0.16797 0.00977 0.025 0.00375 0.03422 0.013203 0.04297 0.033203 0.01 0.0125 0.0078 0.031172 0.0078 0.044922v1.0195c0 0.02375 0.0022 0.047812-0.0078 0.070312-0.02 0.07375-0.14844 0.045781-0.21094 0.050781v0.10742h1.5586l0.02734-0.5293-0.11524-0.00781c-0.09625 0.28875-0.17461 0.42969-0.53711 0.42969-0.04125 0-0.08375-0.00406-0.125-0.00781-0.1125-0.01-0.10742-0.051172-0.10742-0.13867v-0.4375c0.23-0.00625 0.35648 0.11344 0.36523 0.30469h0.12305l-0.0098-0.69336h-0.11719c-0.025 0.18625-0.13383 0.29945-0.36133 0.2832v-0.37695c0-0.03375-0.0013-0.069063 0.01367-0.10156 0.005-0.0175 0.02086-0.031016 0.03711-0.041016 0.05-0.02 0.10711-0.021484 0.16211-0.021484 0.3675 0 0.4325 0.12477 0.53125 0.41602h0.11328l-0.01563-0.51953h-1.543zm1.707 0v0.10547h0.04687c0.05375 0.0025 0.11164-0.00641 0.15039 0.027344 0.0275 0.02375 0.01758 0.1232 0.01758 0.1582v0.92383c-0.0038 0.08125-0.0033 0.11664-0.11328 0.11914-0.04125 0.00125-0.06031 0-0.10156 0v0.10742h0.90039v-0.10742h-0.05664c-0.03875-0.00125-0.03031 0.00109-0.07031-0.00391-0.0475-0.0025-0.06102-0.016641-0.07227-0.056641-0.0025-0.02125-0.002-0.043906-0.002-0.066406v-0.45898h0.02344c0.03375 0 0.01898-0.0005469 0.05273 0.00195 0.21875 0.01125 0.22844 0.13133 0.24219 0.29883l0.0098 0.12109c0.0075 0.0775 0.02414 0.15344 0.08789 0.21094 0.07125 0.06125 0.2093 0.089844 0.31055 0.089844 0.18625 0 0.35047-0.067031 0.38672-0.23828 0.0125-0.0375 0.01563-0.077187 0.01563-0.11719h-0.11523c-0.0075 0.06375-0.01727 0.1943-0.13477 0.1543-0.0087-0.0075-0.01648-0.015938-0.02148-0.023437-0.0225-0.04-0.01219-0.055859-0.02344-0.099609l-0.021-0.1347c-0.045-0.1687-0.119-0.259-0.334-0.289v-0.00391c0.24875-0.01625 0.49414-0.11188 0.49414-0.35938 0-0.10625-0.06672-0.21789-0.16797-0.27539-0.11875-0.06625-0.24195-0.078828-0.37695-0.080078l-0.2207-0.00391h-0.90625zm1.6387 0v0.10547c0.03 0.0025 0.0618 0.00336 0.0918 0.00586 0.09375 0.01625 0.11594 0.080938 0.14844 0.14844l0.55859 1.2109h0.26562l0.51-1.0918c0.06-0.12375 0.13023-0.26344 0.30273-0.27344v-0.10547h-0.64844v0.10547c0.08875-0.00375 0.22656 0.029453 0.22656 0.12695 0 0.02625-0.0069 0.046016-0.01563 0.072266l-0.335 0.7402-0.375-0.8261c-0.0125-0.02625-0.02633-0.051328-0.01758-0.080078 0.0325-0.04375 0.13945-0.024453 0.18945-0.033203v-0.10547h-0.90234zm1.9395 0v0.10547h0.07227c0.04125 0.0025 0.05766-0.00148 0.09766 0.00977 0.03125 0.00875 0.02977 0.023828 0.04102 0.048828 0.0038 0.02125 0.0039 0.043203 0.0039 0.064453v0.9707c0 0.0775 0.01055 0.12477-0.0957 0.13477h-0.11914v0.10742h0.91602v-0.10742h-0.05469c-0.03625-0.00125-0.04898 0.00109-0.08398-0.00391-0.01125-0.0025-0.02391-0.0008593-0.03516-0.00586-0.044-0.0137-0.044-0.0605-0.044-0.0917v-0.99609c0-0.0225-0.0036-0.046406 0.0039-0.066406 0.0038-0.01125 0.0063-0.027109 0.01758-0.037109 0.0375-0.03375 0.0743-0.027344 0.12305-0.027344h0.07227v-0.10547h-0.91602zm2.5996 0v0.10547c0.06375 0 0.10672-0.00148 0.16797 0.00977 0.025 0.00375 0.03617 0.013203 0.04492 0.033203 0.0087 0.0125 0.0059 0.031172 0.0059 0.044922v1.0195c0 0.02375 0.0029 0.047812-0.0059 0.070312-0.02 0.07375-0.15039 0.045781-0.21289 0.050781v0.10742h1.5605l0.02539-0.5293-0.11523-0.00781c-0.09625 0.28875-0.17461 0.42969-0.53711 0.42969-0.04125 0-0.08375-0.00406-0.125-0.00781-0.11125-0.01-0.10742-0.051172-0.10742-0.13867v-0.4375c0.23-0.00625 0.35648 0.11344 0.36523 0.30469h0.125l-0.0098-0.69336h-0.11719c-0.025 0.18625-0.13578 0.29945-0.36328 0.2832v-0.37695c0-0.03375-0.0026-0.069062 0.01367-0.10156 0.005-0.0175 0.02281-0.031016 0.03906-0.041016 0.05-0.02 0.10711-0.021484 0.16211-0.021484 0.3675 0 0.43055 0.12477 0.5293 0.41602h0.11524l-0.01563-0.51953h-1.5449zm-5.341 0.1016c0.20875 0 0.32227 0.058203 0.32227 0.25195 0 0.215-0.12852 0.28016-0.35352 0.28516-0.0625 0.0025-0.04617 0.00516-0.10742 0.00391v-0.41406c0-0.04 0.0012-0.090781 0.04492-0.11328 0.0525-0.01625 0.03875-0.013672 0.09375-0.013672zm-9.4512 2.2812v10.373c0 5.9787 4.8474 10.826 10.826 10.826 5.9788 0 10.826-4.8474 10.826-10.826v-10.373h-21.652zm0.38672 0.38672h20.877v9.9863c0 5.7637-4.6725 10.438-10.438 10.438-5.765 0-10.439-4.6738-10.439-10.438v-9.9863zm0.18555 14.6-0.058594 0.0293 0.015625 0.0332c0.01375 0.02625 0.030156 0.05328 0.035156 0.08203 0.005 0.025-0.00523 0.03617-0.021484 0.04492l-0.5761 0.297c-0.0125 0.0063-0.027266 0.01563-0.041016 0.01563-0.00625 0.0025-0.013281-0.000156-0.019531-0.0039-0.00625-0.0012-0.013828-0.006-0.017578-0.0098-0.0225-0.0325-0.039844-0.07117-0.058594-0.10742l-0.060547 0.03125 0.24414 0.47461c0.04625 0.09 0.10578 0.20273 0.17578 0.27148 0.08 0.08 0.18906 0.12836 0.28906 0.13086 0.08125 0.0025 0.16047-0.02039 0.23047-0.05664 0.105-0.05375 0.18445-0.13617 0.2207-0.26367 0.01375-0.05625 0.012656-0.125 0.00391-0.1875-0.00875-0.075-0.034609-0.13438-0.068359-0.20312l-0.060547-0.125-0.23242-0.45312zm20.6 0.0059c-0.03562 0.0038-0.07289 0.01586-0.10352 0.03711-0.07125 0.0525-0.11109 0.12047-0.15234 0.19922l-0.05273 0.09766-0.25976 0.53125 0.05859 0.0293 0.02148-0.04297c0.01625-0.03125 0.02859-0.06758 0.05859-0.08008 0.02125-0.01 0.07375 0.02445 0.09375 0.0332l0.51758 0.25391c0.045 0.025 0.06445 0.03656 0.0332 0.10156-0.01 0.02375-0.02266 0.04852-0.03516 0.07227l0.06055 0.0293 0.25781-0.52734-0.05859-0.0293-0.01563 0.03516c-0.0125 0.0225-0.02406 0.04516-0.03906 0.06641-0.015 0.02875-0.02453 0.03305-0.05078 0.0293-0.0125-0.005-0.02656-0.01133-0.03906-0.01758l-0.25586-0.12695 0.01953-0.04297c0.01-0.02 0.02-0.03984 0.03125-0.05859 0.07-0.125 0.14078-0.0993 0.23828-0.06055l0.06836 0.02734c0.04625 0.0175 0.09328 0.02906 0.14453 0.0078 0.055-0.025 0.09695-0.07016 0.12695-0.12891 0.0525-0.10875 0.06281-0.22422-0.02344-0.29297-0.0175-0.0175-0.03805-0.02906-0.06055-0.03906l-0.0332 0.06641c0.03375 0.0225 0.1207 0.07531 0.06445 0.13281-0.0075 0.0025-0.01328 0.0039-0.01953 0.0039-0.02875 0.0025-0.05844-0.0028-0.08594-0.0078l-0.08203-0.01367c-0.10875-0.02-0.19258 0.01789-0.26758 0.11914v-0.002c0.06125-0.15 0.0782-0.31922-0.06055-0.38672-0.02937-0.015-0.06398-0.01938-0.09961-0.01563zm-0.164 0.263c0.03734-0.02141 0.08039-0.02234 0.13476 0.0039 0.12125 0.06 0.11984 0.15336 0.05859 0.28711-0.0175 0.03625-0.03203 0.07242-0.05078 0.10742l-0.231-0.113c-0.0225-0.01-0.05273-0.02734-0.05273-0.05859 0.0063-0.035 0.02672-0.06906 0.04297-0.10156 0.03-0.06063 0.06031-0.10359 0.09766-0.125zm-20.315 0.156c0.03125 0.015 0.055156 0.06008 0.066406 0.08008 0.09375 0.18125 0.052578 0.29008-0.076172 0.39258-0.03875 0.03-0.078594 0.05492-0.12109 0.07617-0.0275 0.01375-0.055234 0.02641-0.083984 0.03516-0.175 0.05875-0.29695 0.05859-0.4082-0.16016-0.01125-0.02-0.026641-0.05344-0.025391-0.08594 0.01-0.0275 0.043203-0.04023 0.064453-0.05273l0.53125-0.27148c0.01375-0.0063 0.036484-0.02117 0.052734-0.01367zm0.36523 0.53125-0.054687 0.03516c0.0225 0.035 0.0475 0.07187 0.0625 0.10938 0.0075 0.01625 0.00359 0.02461-0.00391 0.03711-0.0025 0.0088-0.013984 0.01258-0.021484 0.01758l-0.53711 0.3418c-0.0125 0.0075-0.024062 0.01703-0.039063 0.01953-0.04625 0.0125-0.084375-0.08203-0.10938-0.11328l-0.056641 0.03516 0.54688 0.85938 0.28711-0.16406-0.035156-0.06641c-0.18625 0.045-0.30609 0.02227-0.43359-0.17773-0.01375-0.0225-0.026562-0.04656-0.039063-0.07031-0.03375-0.065-0.00914-0.07672 0.037109-0.10547l0.23047-0.14648c0.08375 0.12375 0.062344 0.23398-0.035156 0.30273l0.044922 0.06836 0.36133-0.23828-0.039063-0.06445c-0.1075 0.04875-0.20734 0.02578-0.27734-0.10547l0.19922-0.12695c0.0175-0.01125 0.036094-0.02414 0.058594-0.02539 0.01125-0.0038 0.021953 0.000859 0.033203 0.0059 0.0275 0.02125 0.049609 0.05203 0.068359 0.08203 0.12875 0.2025 0.10312 0.30648-0.015625 0.45898l0.041016 0.06445 0.2675-0.184-0.541-0.85zm19.773 0.05469c-0.0625-0.0062-0.12773-0.000469-0.19336 0.01953-0.14125 0.04625-0.24633 0.13914-0.33008 0.27539-0.075 0.12-0.11391 0.27359-0.09766 0.40234 0.01875 0.1425 0.09437 0.25477 0.20312 0.32227 0.1 0.06125 0.23562 0.07531 0.35938 0.03906 0.13125-0.03875 0.24742-0.13422 0.32617-0.26172 0.08375-0.135 0.12297-0.26266 0.10547-0.41016-0.01375-0.13625-0.09672-0.26633-0.19922-0.33008-0.05313-0.0325-0.11133-0.05039-0.17383-0.05664zm-0.22266 0.21094c0.08984 0.01281 0.18031 0.06148 0.24219 0.09961 0.03875 0.025 0.08078 0.05273 0.11328 0.08398 0.08625 0.08125 0.19656 0.18734 0.10156 0.33984-0.0575 0.0925-0.13547 0.13836-0.23047 0.13086-0.08625-0.0075-0.18852-0.05-0.25977-0.09375-0.13125-0.08125-0.34398-0.23492-0.20898-0.45117 0.0625-0.10062 0.15234-0.12219 0.24219-0.10938zm-0.57422 0.54102-0.3418 0.4707 0.05273 0.03906 0.02734-0.03906c0.01625-0.02125 0.03148-0.04625 0.05273-0.0625 0.01625-0.01375 0.02477-0.0045 0.04102-0.002 0.0125 0.0063 0.02391 0.01203 0.03516 0.01953l0.49023 0.35742c0.03875 0.02875 0.0675 0.04281 0.03125 0.10156l-0.05664 0.07617 0.05273 0.03906 0.34375-0.4707-0.05273-0.03906-0.02148 0.0293c-0.015 0.01875-0.02867 0.04039-0.04492 0.05664-0.0063 0.005-0.0081 0.01062-0.01563 0.01563-0.02375 0.0175-0.04625 0.000781-0.0625-0.01172l-0.50391-0.36524c-0.01125-0.0088-0.02375-0.01734-0.03125-0.02734-0.005-0.0075-0.01367-0.01344-0.01367-0.02344-0.0025-0.0325 0.02617-0.06164 0.04492-0.08789l0.02734-0.03906-0.05469-0.03711zm-18.418 0.07227-0.052734 0.04102c0.025 0.03375 0.055469 0.06797 0.074219 0.10547 0.0025 0.0063 0.0032 0.01328 0.00195 0.01953 0.00125 0.0075-0.00406 0.01258-0.00781 0.01758l-0.52148 0.40625c-0.03375 0.025-0.057656 0.04414-0.097656-0.0059-0.02-0.02375-0.036641-0.04922-0.056641-0.07422l-0.052734 0.04297 0.35938 0.46289 0.052734-0.04102-0.029297-0.03711c-0.0125-0.0175-0.028359-0.03398-0.037109-0.05273-0.00375-0.0075-0.00797-0.01203-0.011719-0.01953-0.0025-0.0075-0.0032-0.01594-0.00195-0.02344-0.00125-0.01625 0.021953-0.03031 0.033203-0.03906l0.19922-0.1543 0.091797 0.12305c0.125 0.16625 0.32695 0.36476 0.50195 0.22852 0.065-0.05 0.095938-0.11133 0.085937-0.20508-0.01125-0.0975-0.058438-0.17266-0.11719-0.25391-0.01125-0.0175-0.022656-0.03453-0.035156-0.05078l-0.3779-0.491zm0.20703 0.39844c0.0275 0.0075 0.060625 0.05242 0.078125 0.07617 0.1025 0.13125 0.10664 0.20867-0.00586 0.29492-0.13125 0.1025-0.21367 0.0493-0.32617-0.0957-0.01375-0.0175-0.025313-0.03523-0.039063-0.05273l-0.011719-0.01367 0.24023-0.18359c0.01875-0.015 0.035703-0.03289 0.064453-0.02539zm17.902 0.17188c-0.03531-0.005-0.07437-0.000078-0.10938 0.01367-0.08125 0.0325-0.13852 0.08609-0.19727 0.15234l-0.07227 0.08398-0.38281 0.45117 0.04883 0.04297 0.03125-0.03711c0.0225-0.02625 0.04367-0.0575 0.07617-0.0625 0.0225-0.0038 0.06773 0.04094 0.08398 0.05469l0.43945 0.37305c0.03625 0.03625 0.05281 0.05047 0.0078 0.10547l-0.05273 0.06445 0.04883 0.04102 0.38281-0.44727-0.05078-0.04102-0.02539 0.02734c-0.0175 0.01875-0.03398 0.03914-0.05273 0.05664-0.02125 0.0225-0.03289 0.02563-0.05664 0.01563-0.01125-0.0087-0.0232-0.01859-0.0332-0.02734l-0.21875-0.18555 0.03125-0.03711c0.01375-0.0175 0.02992-0.03453 0.04492-0.05078 0.09875-0.1025 0.15914-0.0593 0.24414 0.002l0.06055 0.04297c0.04 0.0275 0.08367 0.05047 0.13867 0.04297 0.06-0.01125 0.1118-0.04375 0.1543-0.09375 0.07875-0.0925 0.11508-0.20156 0.04883-0.28906-0.0125-0.02125-0.03008-0.03844-0.04883-0.05469l-0.04883 0.05664c0.0275 0.02875 0.09875 0.10133 0.03125 0.14258-0.0087 0.0025-0.01523 0.0032-0.02148 0.002-0.0275-0.005-0.05508-0.0168-0.08008-0.0293l-0.07617-0.0332c-0.1-0.04625-0.19086-0.02797-0.28711 0.05078l-0.002-0.002c0.09625-0.13 0.15391-0.29062 0.03516-0.39062-0.025-0.02125-0.05648-0.03602-0.0918-0.04102zm-0.22266 0.2168c0.04156-0.01156 0.08266-0.000313 0.12891 0.03906 0.1025 0.08625 0.07883 0.17531-0.01367 0.28906-0.025 0.0325-0.04797 0.06375-0.07422 0.09375l-0.19727-0.16797c-0.01875-0.01625-0.04391-0.03836-0.03516-0.06836 0.01375-0.0325 0.0407-0.06039 0.06445-0.08789 0.04375-0.05187 0.08539-0.08609 0.12695-0.09766zm-17.066 0.20312-0.71875 0.18945c-0.08625 0.0225-0.19766 0.05125-0.28516-0.03125l-0.048828 0.04297 0.28711 0.32031 0.048828-0.04297c-0.0475-0.05125-0.088906-0.12242-0.035156-0.16992 0.0325-0.02875 0.082344-0.03438 0.12109-0.04687l0.25391 0.2832-0.0625 0.14258c-0.0075 0.01875-0.012812 0.04086-0.039063 0.03711-0.02625-0.0025-0.061328-0.04836-0.080078-0.06836l-0.048828 0.04297 0.33203 0.37109v0.002l0.017578 0.01758 0.41406 0.38086 0.044922-0.04883-0.027344-0.02539c-0.0175-0.0175-0.040391-0.03469-0.056641-0.05469-0.02125-0.0225-0.022266-0.03484-0.00977-0.05859 0.0075-0.01125 0.017344-0.02125 0.027344-0.03125l0.19531-0.21094 0.033203 0.0332c0.01625 0.015 0.032578 0.03063 0.048828 0.04687 0.09875 0.10125 0.055234 0.16164-0.00977 0.24414l-0.046875 0.06055c-0.03 0.03875-0.055078 0.07977-0.048828 0.13477 0.00875 0.06 0.039141 0.1132 0.087891 0.1582 0.08875 0.0825 0.19516 0.125 0.28516 0.0625 0.02125-0.0125 0.040391-0.03133 0.056641-0.04883l-0.054687-0.05078c-0.03 0.02625-0.10578 0.09469-0.14453 0.02344-0.00125-0.0075-0.00125-0.01328 0-0.01953 0.00625-0.0275 0.020703-0.05313 0.033203-0.07813l0.037109-0.07617c0.05-0.0975 0.035938-0.18906-0.039063-0.28906l0.00195-0.002c0.12625 0.1025 0.28367 0.16844 0.38867 0.05469 0.045-0.0475 0.060859-0.12992 0.037109-0.20117-0.03-0.0825-0.082734-0.14188-0.14648-0.20312l-0.080078-0.07813-0.43359-0.40039-0.044922 0.04687 0.035156 0.0332c0.02375 0.025 0.055547 0.04563 0.060547 0.07813 0.0025 0.0225-0.044844 0.06578-0.058594 0.08203l-0.39256 0.42382c-0.0375 0.035-0.051719 0.04945-0.10547 0.002-0.015125-0.01246-0.02866-0.02579-0.042969-0.03906-0.056339-0.06974-0.052906-0.09424-0.025391-0.16602l0.3125-0.78906-0.074219-0.08398zm-0.21289 0.14844-0.13281 0.31641-0.20117-0.22461 0.33398-0.0918zm16.715 0.15039-0.72266 0.70117 0.04687 0.04687c0.03-0.02875 0.05875-0.05953 0.09375-0.08203 0.01375-0.01 0.02266-0.0089 0.03516-0.0039 0.01 0.0012 0.01719 0.0094 0.02344 0.01563l0.44336 0.45703c0.01 0.01 0.02109 0.02141 0.02734 0.03516 0.0225 0.0425-0.06164 0.09961-0.08789 0.13086l0.04492 0.04687 0.73047-0.70898-0.21875-0.24805-0.05664 0.04883c0.08125 0.1725 0.08211 0.29398-0.08789 0.45898-0.02 0.01875-0.0393 0.03524-0.06055 0.05273-0.0575 0.04625-0.07383 0.02508-0.11133-0.01367l-0.18945-0.19531c0.10375-0.10625 0.21523-0.11055 0.30273-0.0293l0.05859-0.05664-0.30859-0.30664-0.05273 0.05273c0.06875 0.095 0.06562 0.19477-0.04688 0.29102l-0.162-0.167c-0.01375-0.015-0.03281-0.02953-0.03906-0.05078-0.0062-0.01-0.0038-0.02391 0-0.03516 0.015-0.0325 0.04141-0.05898 0.06641-0.08398 0.17125-0.1675 0.28062-0.16438 0.45312-0.07813l0.05469-0.05273-0.234-0.225zm-15.882 0.474c0.0325 0.01625 0.059687 0.04336 0.085937 0.06836 0.1 0.0925 0.13133 0.17102 0.048828 0.25977-0.09125 0.09875-0.18102 0.07016-0.29102-0.02734-0.03-0.02625-0.059141-0.05133-0.087891-0.08008l0.17383-0.1875c0.01625-0.01875 0.040312-0.04195 0.070313-0.0332zm15.158 0.22852-0.76953 0.62109 0.19336 0.27734 0.05859-0.04687c-0.055-0.09875-0.10461-0.27195 0.02539-0.37695 0.015-0.01125 0.04219-0.02742 0.05469-0.01367 0.0125 0.0125 0.02391 0.02727 0.03516 0.04102l0.38672 0.48047c0.0087 0.01125 0.02164 0.02477 0.02539 0.04102 0.0063 0.0087 0.000937 0.02836-0.0078 0.03711-0.03125 0.03-0.06266 0.05914-0.09766 0.08789l0.04102 0.05273 0.4707-0.38086-0.04102-0.05078c-0.03 0.0225-0.05859 0.04906-0.08984 0.07031-0.04875 0.03125-0.05523 0.02133-0.08398-0.01367l-0.396-0.489c-0.01-0.01375-0.0232-0.02922-0.0332-0.04297-0.01-0.01625 0.01164-0.03953 0.02539-0.05078 0.13125-0.10625 0.28625-0.02476 0.375 0.05273l0.05859-0.04687-0.23047-0.24805zm-14.594 0.18945-0.22461 0.25586 0.058594 0.04297c0.0825-0.07625 0.24055-0.1657 0.37305-0.06445 0.015 0.01125 0.035391 0.03578 0.025391 0.05078s-0.02125 0.02922-0.03125 0.04297l-0.375 0.49023c-0.00875 0.0125-0.018203 0.02695-0.033203 0.0332-0.0075 0.0087-0.029062 0.01016-0.039063 0.0039-0.03625-0.02375-0.072422-0.04797-0.10742-0.07422l-0.041016 0.05273 0.48047 0.36523 0.039063-0.05273c-0.02875-0.02375-0.060391-0.04406-0.087891-0.07031-0.04125-0.03875-0.035312-0.04773-0.00781-0.08398l0.38477-0.50195c0.01-0.01375 0.020703-0.02852 0.033203-0.04102 0.0125-0.01375 0.038984 0.0017 0.052734 0.01172 0.135 0.10375 0.092812 0.27195 0.039063 0.37695l0.058594 0.04492 0.16992-0.25586-0.023437 0.04102 0.033203 0.01953c0.02125 0.015 0.066328 0.04 0.080078 0.0625 0.01375 0.025-0.010234 0.05281-0.021484 0.07031l-0.27344 0.45117c-0.055 0.0825-0.10195 0.12023-0.2207 0.05273l-0.0324 0.054 0.3633 0.221 0.0332-0.057c-0.13125-0.075-0.10133-0.15273-0.048828-0.24023l0.29102-0.47852h0.00195l-0.12695 0.86719 0.066406 0.03906 0.70703-0.52734 0.00195 0.002-0.35352 0.58008c-0.0075 0.0125-0.012891 0.025-0.025391 0.03125-0.00625 0.0075-0.01875 0.01156-0.03125 0.0078-0.01-0.0013-0.022656-0.0085-0.035156-0.0098l-0.0723-0.044-0.035156 0.05664 0.48633 0.29492 0.035156-0.05664-0.035156-0.01953c-0.0288-0.019-0.0874-0.048-0.0762-0.086 0.0025-0.0075 0.00852-0.01398 0.00977-0.02148l0.30859-0.51367c0.01625-0.02625 0.030938-0.05227 0.054687-0.07227 0.0325-0.01 0.066953 0.01375 0.095703 0.03125l0.037109 0.02344 0.00586-0.0078c0.032496 0.01486 0.065355 0.0308 0.09375 0.05078 0.01375 0.0087 0.017578 0.0175 0.017578 0.03125 0.0025 0.0087-0.00406 0.01789-0.00781 0.02539l-0.26758 0.57812c-0.00625 0.0125-0.012187 0.02906-0.023437 0.03906-0.0325 0.03625-0.11555-0.02336-0.1543-0.03711l-0.027344 0.06055 0.92383 0.42969 0.15234-0.29492-0.066406-0.0332c-0.1325 0.13625-0.24523 0.18078-0.45898 0.08203-0.025-0.01125-0.048516-0.02531-0.072266-0.03906-0.06375-0.0375-0.049844-0.06063-0.027344-0.10938l0.11719-0.24609c0.13625 0.05875 0.17977 0.16023 0.13477 0.27148l0.072266 0.03516 0.17773-0.39648-0.068359-0.0332c-0.06375 0.09875-0.15906 0.13375-0.28906 0.0625l0.097656-0.21484c0.00875-0.02 0.017656-0.03898 0.035156-0.05273 0.0075-0.0087 0.020703-0.01242 0.033203-0.01367 0.035 0.0025 0.069062 0.0182 0.10156 0.0332 0.21625 0.1 0.25312 0.20203 0.23438 0.39453l0.068359 0.03125 0.12695-0.29883-0.91211-0.42383-0.00391 0.0078-0.39062-0.23828-0.47461 0.35156 0.083984-0.58789-0.41602-0.25195 0.00781-0.0098-0.78516-0.60156zm13.803 0.45508-0.35547 0.23242 0.03516 0.05469c0.1075-0.0675 0.16375-0.05305 0.21875 0.0332l0.19726 0.30078-0.80078-0.16211-0.31641 0.20508 0.03516 0.05664c0.05375-0.03625 0.11562-0.0468 0.17188-0.0293l0.30274 0.46484c0.055 0.0925 0.05445 0.13094-0.06055 0.21094l0.03711 0.05469 0.36133-0.23438-0.03711-0.05469c-0.11625 0.0725-0.17102 0.04578-0.22852-0.04297l-0.25195-0.38867 0.97461 0.20117 0.07813-0.05078-0.35547-0.54297c-0.01875-0.03125-0.03758-0.06195-0.04883-0.0957-0.02375-0.06875 0.01867-0.10875 0.07617-0.15625l-0.0332-0.05664zm-1.0938 0.69141-0.51367 0.27344 0.03125 0.06055 0.04102-0.02344c0.02375-0.01125 0.04797-0.0282 0.07422-0.0332 0.02125-0.005 0.02336 0.0037 0.03711 0.01367 0.01 0.01125 0.01719 0.02266 0.02344 0.03516l0.28516 0.53516c0.02375 0.0425 0.04188 0.06602-0.01563 0.10352l-0.08398 0.04492 0.03125 0.05859 0.51367-0.27344-0.03125-0.05859-0.03125 0.01758c-0.0225 0.01-0.0432 0.0218-0.06445 0.0293-0.0075 0.0025-0.01398 0.0066-0.02148 0.0078-0.03 0.0063-0.04274-0.01961-0.05273-0.03711l-0.29297-0.54883c-0.0062-0.01125-0.01633-0.02531-0.01758-0.03906-0.0012-0.0075-0.0038-0.01664 0-0.02539 0.01125-0.03 0.04867-0.04555 0.07617-0.06055l0.04297-0.02148-0.03125-0.05859zm-1.1445 0.57227-0.94336 0.35547 0.02539 0.0625c0.03875-0.015 0.07914-0.03156 0.11914-0.03906 0.01625-0.0025 0.0232 0.001 0.0332 0.0098 0.0087 0.005 0.01117 0.01594 0.01367 0.02344l0.22656 0.5957c0.005 0.015 0.0098 0.02797 0.0098 0.04297 0.0038 0.04875-0.09656 0.06844-0.13281 0.08594l0.02344 0.0625 0.95312-0.35937-0.10156-0.31445-0.07227 0.01953c0.005 0.19125-0.04242 0.30492-0.26367 0.38867-0.025 0.0088-0.04992 0.01594-0.07617 0.02344-0.07125 0.02-0.07891-0.0054-0.09766-0.05664l-0.0957-0.25586c0.13875-0.05625 0.24226-0.0143 0.29102 0.0957l0.07422-0.0293-0.1582-0.4043-0.07227 0.02734c0.02625 0.115-0.0157 0.20555-0.1582 0.24805l-0.082-0.219c-0.0075-0.02-0.01813-0.04-0.01563-0.0625 0-0.01125 0.0062-0.02125 0.01367-0.03125 0.02625-0.0225 0.06195-0.03828 0.0957-0.05078 0.22375-0.08375 0.32031-0.03937 0.44531 0.10938l0.07031-0.02734-0.125-0.29883zm-8.6602 0.04883-0.021484 0.0625c0.06 0.02125 0.10695 0.06414 0.12695 0.11914l-0.18359 0.52148c-0.04 0.10125-0.069375 0.12453-0.20312 0.08203l-0.021484 0.0625 0.40625 0.14258 0.02149-0.0625c-0.1275-0.046-0.1392-0.105-0.1042-0.204l0.1543-0.4375 0.43359 0.89453 0.08789 0.0293 0.2168-0.61133c0.01125-0.03375 0.02297-0.06766 0.04297-0.09766 0.04-0.06 0.09812-0.04945 0.17188-0.0332l0.02148-0.0625-0.39844-0.14062-0.02149 0.0625c0.12 0.0425 0.14117 0.09711 0.10742 0.19336l-0.11914 0.3418-0.35938-0.73633-0.35742-0.125zm7.6797 0.32422-0.54883 0.14062 0.01563 0.0625c0.0225-0.0062 0.11047-0.03203 0.13672-0.01953 0.01 0.0038 0.01258 0.01328 0.01758 0.01953 0.0063 0.01375 0.0087 0.03063 0.01367 0.04687l0.06055 0.23828-0.38867 0.09961-0.0625-0.24609c-0.0063-0.0225-0.01266-0.04516-0.0039-0.06641 0.02375-0.0225 0.11156-0.04063 0.13281-0.04687l-0.01563-0.06445-0.55664 0.14453 0.01562 0.0625c0.04-0.0075 0.08109-0.02414 0.12109-0.02539 0.0375-0.0012 0.04258 0.0368 0.04883 0.06055l0.14844 0.58203c0.0038 0.02125 0.006 0.04195 0.0098 0.06445 0.0037 0.02125-0.02102 0.03211-0.04102 0.03711l-0.0957 0.02539 0.01758 0.06445 0.55664-0.14453-0.01758-0.06445c-0.0175 0.005-0.08172 0.02039-0.10547 0.02539-0.045 0.0075-0.0557-0.03125-0.06445-0.0625l-0.06836-0.26758 0.38867-0.10156 0.06445 0.24805c0.0063 0.02875 0.03258 0.08406-0.01367 0.10156-0.0275 0.01125-0.09367 0.02945-0.10742 0.0332l0.01563 0.06445 0.55469-0.14258-0.01758-0.06445c-0.03875 0.01125-0.07719 0.01719-0.11719 0.02344-0.02 0-0.03281-0.002-0.03906-0.01953-0.0075-0.0225-0.01453-0.04781-0.01953-0.07031l-0.141-0.557c-0.0063-0.0275-0.02633-0.06914 0.01367-0.08789l0.11133-0.0332-0.01758-0.0625zm-6.5156 0.07813-0.10352 0.32226 0.07226 0.01758c0.045-0.1025 0.15195-0.24969 0.31445-0.21094 0.0175 0.005 0.04742 0.01766 0.04492 0.03516s-0.008 0.03648-0.01172 0.05273l-0.14453 0.59961c-0.0038 0.015-0.0063 0.03242-0.01758 0.04492-0.0038 0.01-0.02266 0.01883-0.03516 0.01758-0.0425-0.0075-0.08516-0.01344-0.12891-0.02344l-0.01758 0.06445 0.58789 0.14258 0.01758-0.06445c-0.03625-0.01-0.07633-0.0168-0.11133-0.0293-0.05375-0.01875-0.05101-0.03047-0.04102-0.07422l0.151-0.613c0.0038-0.01625 0.0087-0.03453 0.01367-0.05078 0.0062-0.0175 0.03719-0.01547 0.05469-0.01172 0.165 0.04 0.195 0.21258 0.1875 0.33008l0.07422 0.01758 0.05664-0.33398-0.96094-0.23242zm5.2559 0.23438-0.97852 0.14453 0.02539 0.33789 0.07422-0.01172c0.0025-0.1125 0.04664-0.28875 0.21289-0.3125 0.0175-0.0025 0.04898-0.0012 0.05273 0.01758 0.0038 0.01625 0.0073 0.03523 0.0098 0.05273l0.08984 0.60938c0.0025 0.015 0.007 0.03258 0.002 0.04883 0 0.01125-0.01484 0.02555-0.02734 0.0293-0.04125 0.01-0.08391 0.01914-0.12891 0.02539l0.0098 0.06445 0.59766-0.08594-0.0098-0.06641c-0.03625 0.005-0.07383 0.01117-0.11133 0.01367-0.0575 0.0025-0.06016-0.0077-0.06641-0.05273l-0.0918-0.625c-0.0025-0.0175-0.0046-0.03524-0.0059-0.05273-0.0013-0.01875 0.02937-0.0275 0.04687-0.03125 0.1675-0.02375 0.25938 0.12508 0.29688 0.23633l0.07422-0.0098-0.07227-0.33203zm-3.18 0.128c-0.14-0.0125-0.29289 0.02125-0.40039 0.09375-0.12 0.08-0.18672 0.19867-0.19922 0.32617-0.01 0.11625 0.03945 0.24484 0.12695 0.33984 0.09375 0.1 0.23016 0.16008 0.37891 0.17383 0.1575 0.01375 0.28906-0.0086 0.41406-0.08984 0.115-0.07375 0.19508-0.20422 0.20508-0.32422 0.01125-0.125-0.03391-0.24695-0.12891-0.3457-0.105-0.10625-0.23648-0.15883-0.39648-0.17383zm0.0039 0.06641c0.23625 0.02125 0.24031 0.28273 0.22656 0.42773-0.0038 0.04625-0.01164 0.09492-0.02539 0.13867-0.03375 0.11375-0.07906 0.25844-0.25781 0.24219-0.10875-0.01-0.18445-0.05774-0.2207-0.14648-0.03125-0.08-0.03875-0.19289-0.03125-0.27539 0.01375-0.155 0.05484-0.41047 0.30859-0.38672zm0.52344 0v0.06641h0.03906c0.02875 0.0012 0.05969-0.0029 0.08594 0.0059 0.03125 0.0075 0.03125 0.03805 0.03125 0.06055v0.61719c0 0.01875-0.000156 0.03984-0.0039 0.05859-0.0038 0.0038-0.0034 0.008-0.0059 0.01172-0.0038 0.0038-0.0099 0.0073-0.01367 0.0098-0.015 0.005-0.02992 0.0039-0.04492 0.0039h-0.08984v0.06641h0.60547v-0.06641l-0.0957-0.0039c-0.085-0.0025-0.08398-0.01773-0.08398-0.08398v-0.27734h0.01367c0.1 0 0.15352 0.02406 0.19726 0.10156 0.01625 0.02875 0.02289 0.0618 0.02539 0.0918h0.07617v-0.43164h-0.07617c-0.03125 0.1225-0.07633 0.17883-0.23633 0.17383v-0.25781c0-0.02-0.0037-0.0475 0.01758-0.0625 0.03625-0.02125 0.08375-0.01758 0.125-0.01758 0.21875 0 0.30617 0.09422 0.35742 0.26172h0.07422l-0.0098-0.32812h-0.98828z" transform="matrix(.8 0 0 -.8 285.29 571.96)" fill="#564535"/><path d="m6.6777 14.385c-0.0575 0-0.10352 0.04601-0.10352 0.10352 0 0.0575 0.046016 0.10547 0.10352 0.10547 0.0575 0 0.10352-0.04797 0.10352-0.10547s-0.046016-0.10352-0.10352-0.10352zm1.8691 1.2617-0.57422 0.23633 0.082031 0.17383 0.69141 0.0059 0.33008-0.14258-0.083984-0.17578-0.44531-0.09766zm11.805 2.415c-0.015-0.03-0.05734 0.0051-0.05859 0.04883-0.01 0.22125-0.07203 0.53266-0.17578 0.69141 0 0 0.10141 0.12516 0.12891 0.09766 0.02875-0.02875 0.17922-0.69039 0.10547-0.83789zm-1.0664 0.84375c-0.0825 0-0.14844 0.06594-0.14844 0.14844 0 0.08375 0.06594 0.15039 0.14844 0.15039 0.08375 0 0.15039-0.06664 0.15039-0.15039 0-0.0825-0.06664-0.14844-0.15039-0.14844zm1.6895 1.1016c-0.025 0.18125-0.24234 0.88133-0.90234 0.98633 0.835 0.03125 1.0152-0.62969 0.99023-0.77344-0.025-0.14375-0.08789-0.21289-0.08789-0.21289z" transform="matrix(.8 0 0 -.8 285.29 571.96)" fill="#fff"/></g></g></svg>
