<svg viewBox="0 0 521 70" xmlns="http://www.w3.org/2000/svg" xml:space="preserve" style="fill-rule:evenodd;clip-rule:evenodd;stroke-linejoin:round;stroke-miterlimit:2"><path d="M23.391 11.194c-.509.001-.938.42-.953.929l-1.31 45.785c-.014.51.391.926.9.926h40.704c.51 0 .91-.416.891-.924l-1.439-37.988c-.02-.508-.452-.925-.961-.925H49.585c-.51 0-.987-.412-1.063-.915l-.911-6.078c-.074-.503-.552-.913-1.062-.912l-23.158.102Z" style="fill:#ebe4d9;fill-rule:nonzero"/><path d="M31.062 32.729H26.96l.21-.842v-5.679l-.21-.84h4.102l1.473 1.472v4.417l-1.473 1.472Zm-.21-5.31-.264-.526-.525-.264h-1.157l-.105.105v4.469l.158.157h1.104l.525-.263.264-.525v-3.153ZM39.864 25.614v7.924h-1.661l-2.748-5.496-.256-.639.064.639v4.474l.256 1.022h-2.172l.255-1.022v-6.902l-.319-1.023h2.492l2.236 4.474.255.638-.063-.638v-3.451l-.255-1.023h2.171l-.255 1.023ZM44.492 32.729l-.894-2.734-.21-.105h-.79l-.105.105v1.893l.21.842h-1.997l.209-.842v-5.679l-.209-.84h4.311l1.261 1.261v1.788l-1.157 1.158.789 2.156.579.999h-1.997v-.002Zm.104-5.416-.209-.42-.526-.264h-1.262l-.105.105v1.788l.105.104h1.262l.526-.262.209-.419v-.632Z" style="fill:#48391c;fill-rule:nonzero"/><path d="M39.765 18.776v2.789h.72v-1.229h1.058v1.229h.72v-2.789h-.72v1.021h-1.058v-1.021h-.72Zm-1.529 2.225.194.563h.742l-1.03-2.789h-.829l-1.03 2.789h.726l.194-.563h1.033Zm-.516-1.509.343.999h-.686l.343-.999Zm-7.28-.716v1.781c0 .344.105.608.314.792.208.183.518.275.926.275.408 0 .717-.092.927-.275.21-.184.314-.448.314-.792v-1.781H32.2v1.74c0 .201-.042.348-.125.439-.083.091-.215.136-.395.136-.183 0-.316-.047-.396-.142-.081-.095-.122-.239-.122-.434v-1.74l-.722.001Zm4.66 2.789v-2.248h.871v-.541h-2.462v.541h.872v2.248h.719ZM23.827 39.602s6.276-1.547 7.325-.94l4.447 3.356-1.112-2.037 3.06-1.322 3.084.464-2.43-1.283-5.271 1.39-1.722-2.517-1.169.36-6.212 2.529ZM60.51 20.479H47.392l-1.458-7.808-21.019 1.262 18.675.473 3.034 7.987 11.715.06-.979 8.582-.857-.898-3.562 3.048 3.134-1.595 1.145.667-.596 5.231c.431.295 1.404.986 2.216 1.789.561.365-.033.504-.433.365-.388-.136-1.266-.91-1.885-1.267l-.25 2.188c.746.238 1.747.584 2.357.896-.038.062-.058.102-.058.102-.003 0-.004 0-.007.004-.555-.19-1.478-.483-2.331-.655l-.001.009c-.559-.111-1.045-.146-1.045-.146-1.149-.07-3.547.812-3.547.812-.978-.05-2.52.438-2.52.438-.122.146-1.173.293-1.173.293-.367-.146-1.395-.072-1.395-.072-.366.072-.293-.146-.293-.146 1.027-.931 1.003-1.199 1.003-1.199s-.715-.334-2.869.229c-.012-.005-.019-.009-.019-.009-.293-.025-.123-.221-.123-.221.293-.319 1.542-.662 1.542-.662 1.957-.194 3.18-1.49 3.18-1.49.22-.246.464-.051.464-.051.685.49 2.128 1.005 2.128 1.005.441 0 .148-.222.148-.222-.539-.146-1.737-1.026-1.737-1.026-.392-.244.048-.318.048-.318.293-.099 1.027-.61 1.027-.61.318-.271 1.272-.392 1.272-.392l2.153.024c.097.171 1.565.781 1.565.781.489.123 2.226 1.49 2.226 1.49.587.344.417.023.417.023-2.006-2.029-4.11-2.861-4.11-2.861-.171-.146-.049-.467-.049-.467.686-.707.71-1.587.71-1.587l-.221-1.156c0-.195-.171-.024-.171-.024-.092 1.42-.179 1.677-.179 1.677-.654 1.648-2.235 1.398-2.235 1.398-.447 0-.476-.209-.476-.209.148-.326.118-2.557.118-2.557-.118-1.011-.743-2.052-.743-2.052-.208-.119-.387-.685-.387-.685-.029-.356-.238-.417-.238-.417-.03.506.238 1.101.238 1.101 0 .357.476 1.517.476 1.517.09.922-.147 1.665-.147 1.665-.209 2.023-1.755 2.797-1.755 2.797-.655.477-.328-.418-.328-.418.685-.355 1.636-1.516 1.636-1.516.357-.655.149-.773.149-.773-1.338 1.992-2.529 2.112-2.529 2.112l.12-1.607c.059-.298.357-1.724.357-1.724.089-.357 0-.505 0-.505-.446.654-.833 2.082-.833 2.082l-.06 1.873-1.159-.06c-.507-.062-.06-.895-.06-.895.803-.952 1.308-3.451 1.308-3.451.12-.832.386-1.487.386-1.487.239-.952-.119-.445-.119-.445-.445.951-1.071 3.182-1.071 3.182-.981 2.825-2.854 4.46-2.854 4.46-.03-.09-.03-.442-.03-.442.178-.271.178-.715.178-.715.12-.445 0-.39 0-.39-.059.147-.237.715-.237.715-.268.356-.327 1.039-.327 1.039-.505-.026-.862-.83-.862-.83-.388-.506.387-2.292.387-2.292.208-.357.773-1.606.773-1.606.208-.505-.12-.326-.12-.326-.238.773-.653 1.396-.653 1.396-.387.417-.893 1.904-.893 1.904l-.088.479c0 .92.802 1.724.802 1.724v.239c-.089.416-.357.238-.357.238-.03-.416-.773-1.521-.773-1.521-.061-.389.119-1.575.119-1.575.089-.354 0-.417 0-.417-.298.208-.358.864-.358.864l-.06 1.04c.029.802.595 1.486.595 1.486.238.476-.177.178-.177.178-.148-.299-.595-.627-.595-.627-.387-.059-.714-.949-.714-.949.03-.146-.06-.477-.06-.477-.178-.297-.059-.595-.059-.595.179-.237.148-.804.148-.804.119-.268.03-.208.03-.208-.477.416-.417 1.606-.417 1.606-.059.387-.118.297-.118.297-.15-.182.028-1.041.028-1.041 0-.537-.119-.389-.119-.389l-.12.858c-.329.918.624 1.612.624 1.612.624.404 1.209 1.541 1.209 1.541-.108.035-.146.328-.146.328-.366-.037-.624.258-.624.258-.366-.184-1.137.037-1.137.037l-2.969.623c-.367.33-.184.809-.184.809.109.402.953.771.953.771-.183.222-.734.366-.734.366 0 .588.368.843.368.843l1.357.146c.366.587 1.063.771 1.063.771.44.844 1.541.989 1.541.989.851 1.076 2.676 1.726 2.676 1.726.248.36.565.643.918.857l-.006.003c.494.304 2.006 1.122 3.682.867.118-.054.297-.088.479-.041.087.049.176.097.268.138.02.016.04.028.06.049.242.237 1.233.508 1.505.68h.002c.028.021.052.033.062.053.108.165-1.957-.706-2.412-.53-.982.382-1.631.548-4.356-1.043l-16.779 4.013-4.271 3.697 38.339-.014-1.359-36.347ZM44.836 38.836c.297-.148 1.338-1.189 1.338-1.189.178-.268.804-.146.804-.146.208.18 1.278.236 1.278.236l-.029.564c-.476.922-3.004 1.398-3.004 1.398.029-.209-.387-.477-.387-.477-.148-.118 0-.386 0-.386" style="fill:#dd5623;fill-rule:nonzero"/><path d="M77.078 38.072v-9.033h3.252v8.942c0 2.101 1.219 3.546 3.545 3.546 2.326 0 3.523-1.445 3.523-3.546v-8.942h3.274v9.033c0 3.727-2.212 6.301-6.797 6.301-4.584 0-6.797-2.574-6.797-6.301ZM97.13 44.103V31.861h-4.404v-2.822h12.015v2.822h-4.381v12.241h-3.23v.001ZM115.76 44.103l-.948-2.552h-6.458l-.948 2.552h-3.637l5.804-15.063h4.02l5.804 15.063h-3.637Zm-4.177-11.857-2.349 6.481h4.697l-2.348-6.481ZM131.116 44.103v-6.347h-7.114v6.347h-3.207V29.039h3.207v5.917h7.114v-5.917h3.229v15.063h-3.229v.001ZM143.534 44.103V29.039h4.811c4.675 0 7.61 3.41 7.61 7.542 0 4.178-2.936 7.521-7.61 7.521h-4.811v.001Zm11.067-7.522c0-3.522-2.259-6.368-6.256-6.368h-3.523v12.714h3.523c3.975.001 6.256-2.822 6.256-6.346ZM159.161 44.103V29.039h1.288v15.063h-1.288v.001ZM168.826 44.103l-6.165-15.063h1.49l5.488 13.618 5.465-13.618h1.491l-6.166 15.063h-1.603ZM178.806 44.103V29.039h1.288v15.063h-1.288v.001ZM183.006 41.979l.835-.971c.972 1.106 2.552 2.19 4.72 2.19 3.072 0 3.952-1.717 3.952-3.004 0-4.427-9.034-2.123-9.034-7.385 0-2.461 2.213-4.02 4.946-4.02 2.235 0 3.952.791 5.104 2.123l-.858.948c-1.084-1.31-2.62-1.897-4.314-1.897-2.01 0-3.523 1.152-3.523 2.778 0 3.861 9.034 1.739 9.034 7.363 0 1.941-1.287 4.268-5.353 4.268-2.483.001-4.357-1.015-5.509-2.393ZM196.961 44.103V29.039h1.288v15.063h-1.288v.001ZM201.433 36.581c0-4.403 2.891-7.791 7.316-7.791 4.403 0 7.317 3.388 7.317 7.791 0 4.405-2.914 7.792-7.317 7.792-4.426 0-7.316-3.387-7.316-7.792Zm13.278 0c0-3.816-2.349-6.617-5.962-6.617-3.636 0-5.962 2.801-5.962 6.617 0 3.795 2.327 6.618 5.962 6.618 3.613 0 5.962-2.823 5.962-6.618ZM230.021 44.103l-9.486-12.941v12.941h-1.287V29.039h1.311l9.439 12.76v-12.76h1.287v15.063h-1.264v.001ZM240.318 36.581c0-4.403 2.891-7.791 7.316-7.791 4.404 0 7.316 3.388 7.316 7.791 0 4.405-2.912 7.792-7.316 7.792-4.425 0-7.316-3.387-7.316-7.792Zm13.279 0c0-3.816-2.349-6.617-5.962-6.617-3.636 0-5.963 2.801-5.963 6.617 0 3.795 2.327 6.618 5.963 6.618 3.613 0 5.962-2.823 5.962-6.618ZM258.134 44.103V29.039h9.554v1.174h-8.266v5.578h8.107v1.175h-8.107v7.137h-1.288ZM287.354 44.103l-2.642-10.344-2.621 10.344h-3.41l-4.312-15.063h3.59l2.643 10.885 2.869-10.885h2.506l2.846 10.885 2.643-10.885h3.59l-4.291 15.063h-3.411ZM296.566 44.103V29.039h3.207v15.063h-3.207v.001ZM302.619 44.103V29.039h3.229v12.24h6.369v2.823h-9.598v.001ZM314.383 44.103V29.039h5.939c4.721 0 7.994 3.004 7.994 7.521 0 4.562-3.273 7.543-7.971 7.543h-5.962Zm10.66-7.543c0-2.643-1.627-4.698-4.697-4.698h-2.756v9.418h2.732c2.983-.001 4.721-2.145 4.721-4.72ZM330.461 44.103V29.039h3.229v12.24h6.369v2.823h-9.598v.001ZM342.227 44.103V29.039h3.207v15.063h-3.207v.001ZM348.414 44.103V29.039h10.658v2.822h-7.451v3.163h7.295v2.823h-7.295v6.256h-3.207ZM361.309 44.103V29.039h10.658v2.822h-7.452v3.163h7.295v2.823h-7.295v3.433h7.452v2.823h-10.658ZM388.789 44.103l-2.958-5.353h-2.349v5.353h-3.207V29.039h7.047c3.139 0 5.081 2.055 5.081 4.855 0 2.641-1.694 4.087-3.319 4.471l3.41 5.737h-3.705v.001Zm.316-10.231c0-1.242-.971-2.01-2.235-2.01h-3.388v4.066h3.388c1.265 0 2.235-.769 2.235-2.056ZM394.795 44.103V29.039h10.66v2.822h-7.453v3.163h7.295v2.823h-7.295v3.433h7.453v2.823h-10.66ZM406.922 41.979l1.762-2.507c1.061 1.105 2.709 2.055 4.787 2.055 1.784 0 2.619-.789 2.619-1.672 0-2.619-8.672-.789-8.672-6.458 0-2.506 2.168-4.585 5.715-4.585 2.393 0 4.381.723 5.871 2.101l-1.784 2.394c-1.22-1.129-2.846-1.648-4.382-1.648-1.355 0-2.122.587-2.122 1.49 0 2.372 8.649.768 8.649 6.392 0 2.754-1.987 4.832-6.029 4.832-2.914 0-4.991-.972-6.414-2.394ZM420.787 36.581c0-4.538 3.319-7.791 7.881-7.791 4.539 0 7.859 3.252 7.859 7.791 0 4.54-3.32 7.792-7.859 7.792-4.562 0-7.881-3.252-7.881-7.792Zm12.443 0c0-2.822-1.785-4.945-4.562-4.945-2.8 0-4.584 2.123-4.584 4.945 0 2.8 1.784 4.946 4.584 4.946 2.777 0 4.562-2.146 4.562-4.946ZM438.784 38.072v-9.033h3.252v8.942c0 2.101 1.22 3.546 3.546 3.546 2.326 0 3.522-1.445 3.522-3.546v-8.942h3.274v9.033c0 3.727-2.213 6.301-6.797 6.301s-6.797-2.574-6.797-6.301ZM463.873 44.103l-2.959-5.353h-2.35v5.353h-3.206V29.039h7.046c3.139 0 5.082 2.055 5.082 4.855 0 2.641-1.695 4.087-3.32 4.471l3.41 5.737h-3.703v.001Zm.315-10.231c0-1.242-.971-2.01-2.234-2.01h-3.389v4.066h3.389c1.263 0 2.234-.769 2.234-2.056ZM469.156 36.581c0-4.651 3.5-7.791 8.039-7.791 3.297 0 5.217 1.784 6.277 3.682l-2.754 1.354c-.633-1.22-1.988-2.19-3.523-2.19-2.756 0-4.742 2.1-4.742 4.945 0 2.846 1.986 4.946 4.742 4.946 1.535 0 2.891-.971 3.523-2.19l2.754 1.333c-1.061 1.873-2.98 3.703-6.277 3.703-4.539 0-8.039-3.162-8.039-7.792ZM485.391 44.103V29.039h10.66v2.822H488.6v3.163h7.293v2.823H488.6v3.433h7.451v2.823h-10.66ZM497.518 41.979l1.764-2.507c1.061 1.105 2.709 2.055 4.785 2.055 1.785 0 2.621-.789 2.621-1.672 0-2.619-8.672-.789-8.672-6.458 0-2.506 2.168-4.585 5.715-4.585 2.393 0 4.379.723 5.871 2.101l-1.785 2.394c-1.219-1.129-2.846-1.648-4.381-1.648-1.355 0-2.123.587-2.123 1.49 0 2.372 8.648.768 8.648 6.392 0 2.754-1.986 4.832-6.029 4.832-2.912 0-4.991-.972-6.414-2.394Z" style="fill:#2e271c;fill-rule:nonzero"/></svg>