<svg width="190" height="61" fill="none" xmlns="http://www.w3.org/2000/svg"><g clip-path="url(#clip0_488_113)"><path d="M84.7 20.642h-5.822l-1.112 2.69h-2.984l5.59-12.545h2.868l5.607 12.545h-3.035l-1.112-2.69zm-.913-2.203l-1.99-4.802-1.988 4.802h3.978zm19.584 4.893l-.018-7.527-3.691 6.2h-1.307l-3.674-6.039v7.36h-2.723v-12.54h2.4l4.695 7.796 4.622-7.795h2.387l.036 12.545h-2.727zM120.572 21v2.332h-9.711V10.787h9.478v2.33h-6.594v2.724h5.832v2.257h-5.832V21h6.827zm12.096 2.332l-2.419-3.495h-2.669v3.495h-2.904V10.787h5.43c3.351 0 5.446 1.738 5.446 4.553 0 1.881-.949 3.26-2.586 3.96l2.815 4.032h-3.113zm-2.723-10.178h-2.365v4.375h2.365c1.774 0 2.669-.825 2.669-2.188 0-1.362-.903-2.187-2.669-2.187zm9.693-2.367h2.904v12.545h-2.904V10.787zm6.88 6.271c0-3.78 2.904-6.486 6.81-6.486 2.168 0 3.978.795 5.16 2.222l-1.864 1.72a4.044 4.044 0 00-3.153-1.47c-2.347 0-4.014 1.65-4.014 4.014 0 2.365 1.667 4.006 4.014 4.006a3.998 3.998 0 003.153-1.486l1.864 1.72c-1.182 1.45-2.984 2.24-5.172 2.24-3.902.008-6.798-2.699-6.798-6.48zm23.98 3.584h-5.828l-1.112 2.69h-2.984l5.591-12.545h2.867l5.609 12.545h-3.037l-1.106-2.69zm-.915-2.203l-1.989-4.802-1.989 4.802h3.978zm19.671-7.652v12.545h-2.387l-6.254-7.617v7.617h-2.864V10.787h2.401l6.235 7.616v-7.616h2.869zM84.173 44.766h-1.697v4.666h-6.248V30.876h8.94c5.17 0 8.455 2.705 8.455 6.997 0 2.678-1.273 4.693-3.499 5.832l3.897 5.727h-6.686l-3.162-4.666zm.596-9.065h-2.285v4.346h2.285c1.723 0 2.544-.821 2.544-2.173 0-1.353-.827-2.173-2.544-2.173zm13.305-4.825h6.256v18.556h-6.256V30.876zm30.654 0l-7.847 18.556h-6.152l-7.845-18.556h6.727l4.425 10.842 4.533-10.842h6.159zm18.253 13.838v4.718h-15.427V30.876h15.075v4.718h-8.925v2.178h7.845v4.507h-7.845v2.435h9.277zm13.014.052h-1.696v4.666h-6.256V30.876h8.933c5.171 0 8.455 2.705 8.455 6.997 0 2.678-1.273 4.693-3.498 5.832l3.896 5.727h-6.679l-3.155-4.666zm.583-9.065h-2.279v4.346h2.279c1.723 0 2.544-.821 2.544-2.173 0-1.353-.821-2.173-2.544-2.173zm12.704 12.245l2.015-4.559a12.73 12.73 0 006.122 1.697c1.777 0 2.413-.37 2.413-1.007 0-2.333-10.257-.451-10.257-7.369 0-3.445 2.89-6.256 8.64-6.256 2.492 0 5.062.531 6.998 1.617l-1.882 4.533c-1.828-.928-3.553-1.378-5.172-1.378-1.828 0-2.41.53-2.41 1.166 0 2.227 10.257.372 10.257 7.21 0 3.393-2.89 6.256-8.64 6.256-3.111 0-6.236-.77-8.084-1.91z" fill="#005464"/><path d="M32.754 37.547c-4.317-1.318-8.082-2.973-11.243-4.873a.38.38 0 00-.423.629 57.148 57.148 0 005.943 3.926c15.515 8.997 14.582 18.779 7.346 22.345a.452.452 0 00.266.848c.58-.083 1.157-.18 1.728-.295 13.39-3.206 14.385-17.08-3.617-22.58z" fill="#0CC"/><path d="M31.023 0C17.572 0 10.906 9.4 10.906 16.386c0 3.31.903 6.049 2.447 8.32l5.332-5.333 6.05 6.049 3.148-3.165 5.83 5.83V11.26h8.326v7.312h5.581v20.567c4.177 3.236 5.544 7.739 4.74 11.092a.378.378 0 00.647.347 30.244 30.244 0 007.73-20.225C60.738 12.573 45.642 0 31.024 0z" fill="#005464"/><path d="M24.71 15.716a4.012 4.012 0 100-8.024 4.012 4.012 0 000 8.024z" fill="#FAA21B"/><path d="M15.97 37.587C5.193 24.242 8.028 11.552 15.29 4.805a.358.358 0 00-.426-.568 30.374 30.374 0 00-8.833 44.276c7.904 10.416 23.61 6.003 9.94-10.926z" fill="#008C9E"/><path d="M21.617 39.433c8.742 9.639 3.821 17.058-4.308 17.171a.463.463 0 00-.21.876c14.811 7.516 22.537-4.21 10.94-14.966-3.743-3.47-8.43-7.582-12.23-11.736a.37.37 0 00-.583.452 63.376 63.376 0 006.391 8.203z" fill="#0CC"/></g><defs><clipPath id="clip0_488_113"><path fill="#fff" d="M0 0h190v60.427H0z"/></clipPath></defs></svg>