<svg viewBox="0 0 64 64" xmlns="http://www.w3.org/2000/svg" xml:space="preserve" style="fill-rule:evenodd;clip-rule:evenodd;stroke-linejoin:round;stroke-miterlimit:2"><path d="M150.2 81.4V83c0 1-.2 2.1-.4 3.3a12.8 12.8 0 0 1-2.7 5.1 20 20 0 0 1-2.6 2.5 21.3 21.3 0 0 1-6.1 3.6c-.9.4-1.8.8-2.9 1a20.3 20.3 0 0 1-6.2.8c-.3 0-.4-.2-.5-.4l.1-.5.6-.8 4.8-5.7-17.6 1.4c-1.4.2-2.8.2-4.2-.1a11 11 0 0 1-3.3-1c-1.2-.5-2.7-1.2-4-2l-5.5 14.6-5 1.5-3.4 1.1a47.2 47.2 0 0 0-12 6.2 117.7 117.7 0 0 0-6.5 4.9L70 121a25.7 25.7 0 0 0-3.7 4.4l1.5.4.6.2 3 1 1.6.6 3.9 1.6 1.5.8.7.4.1.1v.2c.2 0 .2.2.2.2 0 .2-.2.3-.3.4l-2.7.4a71 71 0 0 0-4 .8l-3.9 1.2-2.6.8-2.4.8-.3.3c0 .2.1.2.2.2l19.5 1.4h1.7c1.3-.1 2.5-.4 3.5-.9a16 16 0 0 0 9.2-12.7l.2-3c4.8-.4 9.6-1 14.3-1.6a69.8 69.8 0 0 0 20.7-7.2l5.4-2.9a31.4 31.4 0 0 0 9.7-8.1 20.2 20.2 0 0 0 4.5-11l.1-1.4-.1-1.8c-.2-1.2-.6-2.3-1-3.4a30 30 0 0 0-1-2ZM78 118c1.4 0 2.5 1.2 2.5 2.6 0 1.4-1.1 2.5-2.5 2.5a2.5 2.5 0 0 1-2.5-2.5c0-1.4 1.2-2.6 2.5-2.6Z" style="fill-rule:nonzero" transform="matrix(.67388 0 0 .72111 -40.6 -41.1)"/><path d="M132 128.3a65.5 65.5 0 0 1-23.8 8.4l-5.9.4-6 .4H90c1.7-1 3.2-2.3 4.5-3.7l1.3-1.5c1.1-1.4 2-2.8 2.6-4.4l.7-3 .3-2.3 6.3-.7 5-.6 3.3-.5 5.7-1.5 6-2.2 4.8-2 4.8-2.5 4.5-2.5 3.5-2.3 4.5-4.3 3.4-4.5-.2 1.7c-1 5.7-3 11.1-6.1 16a29 29 0 0 1-8 8.3l-1.6 1.2-3.4 2ZM143.8 73.3c-1.4-1-2.8-2-4.4-2.6l-26.1-10.9-.4-.2h-.3l-.2.1c-.2.1-.2.3-.2.4 0 .2 0 .3.2.4l7.2 9.4 1.6 2.2c.4.7.5 1.5.6 2.2v.2a7 7 0 0 1-.4 2l-.8 1.7-.7 1.1a131 131 0 0 1 10.8-1.5l5.2-.2 4.2.3 2.7.5c.7.2 1.4.6 2 1a6 6 0 0 1 2 2.5c.4.8.6 1.8.7 2.6.3-.8.4-1.6.4-2.4v-.4c0-1.1-.2-2.1-.5-3.2a15 15 0 0 0-1.7-3.2l-1.8-2h-.1ZM124.7 134.5c1.4-.6 2.7-1.2 3.9-2l.5.1c.9 0 1.8 0 2.6-.2 2.5-.2 5-.6 7.6-1a66.5 66.5 0 0 0-7.6 5.9c-2 1.7-3.8 3.6-5.6 5.5-.6 0-1-.2-1.3-.3-1.6-.7-3.1-1.5-4.6-2.4-1.3-.8-2.6-1.7-3.6-2.8l2.4-.8c2-.5 3.8-1.2 5.7-2Z" style="fill-rule:nonzero" transform="matrix(.67388 0 0 .72111 -40.5 -41)"/></svg>