<svg viewBox="0 0 72 200" xmlns="http://www.w3.org/2000/svg" fill-rule="evenodd" clip-rule="evenodd" stroke-linejoin="round" stroke-miterlimit="1.4"><path d="M204 12.5c1-.1-.3-3.3 2-3.8 1.2-.3 2.3.3 3.6.2.6 0 1.3 0 2.1-.8 1-.9-.7-3.8-.7-3.8a1 1 0 0 1 1-1.3c1.1.1-.1.8 0 1.3.6 1.3 1.5 2.5 1.2 3.8-.5 2-2.3 1.7-3.6 1.5-1.1-.2-1.6 0-2.2.4-.6.4-1.3 1.2-1.5 2.4-.1 1.1.8 3 2.2 2.5a14.9 14.9 0 0 1 3.6-.8c2.3 0 5 1.7 4.3 4.8-.5 2.2-1.2 4-1.3 7.2 0 1.6.7 5.1 2.3 6.9 2 2.3 7.3 3.1 10 6.6 1.5 2 6.7 6.2 5 10-1.1 2.7-11.2 4.5-11 5.6.6 3.7-15 2.2-15 0 0-.5 17.5-5.9 15-10.2-1.5-2.5-2.9-3.6-5-4-6.3-1.6-24.4-3.8-33.1-5-6.3-1-17.7-2-18.9-2.6-1.7-.9 11.6 1.5 14 1.3 1.8-.2 9.6 1 16 1.8 8.4 1 18.2 2.7 22 2.3 3.1-.2-7.3-5.6-8-5.8-1-.3-4.6-1.4-8.7-1.7-4.5-.4-9.4 0-9.8 0-4.9 0-7.6-1.1-11.4-5.7 0 0-1.4-4.4 2.2-4 1.2.1-.7 1 0 1.9-.7 1 1.8 2.1 2.6 3.1 1.5 2 5.6 3.6 8 3.4 1.5-.2 5.2-.3 9.1-.5 2.4-.1 4 .7 4.7.6.5 0-.5-.7-.7-1.1-.7-1.2 1.2-3.2-1.4-4.4-1.7-.8-7.3-1.1-10.6-2.3-2.5-.8-2-3.2-4-4.3 0 0-1.4-1 0-1 .7 0 0 0 1.5.7 1.5.8 1.1 3 3 3.7 1.4.5 3.4.8 5.2 1h4.3c1.2 0-.6-2.9-1-3.5-1.3-1.9-1.1-1.7-4-2.9-1.3-.6-5-2.3-3-2 2.5.4 7.3 2.7 8 3.3 3.2 2.6 2.9 6.3 6 10.7.7 1 2.5 3 3.1 1.9.7-1.1-.5-6 1-8.5.6-1 .8-5-.4-6-.8-.6-4.2.5-5.4.3-1-.2-2-.5-2.2-1.8-1.5-1.1-2.6-2.3-4-3.5-.4-.3-.6-1 0-.9h.2c1.3 1 2.8 3.2 3.7 3z" fill="url(#_Linear1)" fill-rule="nonzero" transform="matrix(.97674 0 0 3.84395 -165.2 -10.3)"/><path d="M62.5 191.1c0-.6-.5-1.1-1.1-1.1H34.6c-.6 0-1.1.5-1.1 1.1v2.3c0 .6.5 1.1 1.1 1.1h26.8c.6 0 1.1-.5 1.1-1.1v-2.3z" fill="#707070"/><path d="M65 11h-3l4-4 4 4h-3v178h3-8 3V11z" fill="#d47272"/><defs><linearGradient id="_Linear1" x2="1" gradientUnits="userSpaceOnUse" gradientTransform="matrix(29.6905 30.1773 -118.762 7.54432 196.8 13.6)"><stop offset="0" stop-color="#aaccdc"/><stop offset=".5" stop-color="#96bccf"/><stop offset="1" stop-color="#5b8fa8"/></linearGradient></defs></svg>