<?xml version="1.0" encoding="UTF-8" standalone="no"?><!DOCTYPE svg PUBLIC "-//W3C//DTD SVG 1.1//EN" "http://www.w3.org/Graphics/SVG/1.1/DTD/svg11.dtd"><svg width="100%" height="100%" viewBox="0 0 64 64" version="1.1" xmlns="http://www.w3.org/2000/svg" xmlns:xlink="http://www.w3.org/1999/xlink" xml:space="preserve" xmlns:serif="http://www.serif.com/" style="fill-rule:evenodd;clip-rule:evenodd;stroke-linecap:round;stroke-linejoin:round;stroke-miterlimit:1.5;"><g id="Dam"><circle cx="32" cy="31.875" r="28.125" style="fill:#fff;"/><clipPath id="_clip1"><circle cx="32" cy="31.875" r="28.125"/></clipPath><g clip-path="url(#_clip1)"><path d="M33,22c1.34,1.107 9.522,19.229 9,14c-0.288,-2.879 6.465,1.119 8.365,-1.375c0.652,-0.855 4.029,0.146 5.635,0.375c1.361,0.194 3.536,-0.379 4,1c0.27,0.801 -1.786,5.525 -4,9c-2.256,3.54 -4.667,5.836 -4,7c0.351,0.612 -7.927,7.417 -18,8c-8.479,0.491 -19.007,-5.079 -19,-6c0.002,-0.226 -6.776,-4.798 -9,-12c-2.804,-9.081 -1.099,-21.18 0,-21c0.811,0.133 4.135,0.913 8,1c3.196,0.072 6.918,-2.153 10,-1c4.428,1.656 8.738,0.784 9,1Z" style="fill:url(#_Linear2);fill-rule:nonzero;"/><path id="Dam1" serif:id="Dam" d="M32,20l0,40l18,-5l-10,-35l-8,0Z" style="fill:#707070;"/></g><path id="Outline" d="M32,4c15.454,0 28,12.546 28,28c0,15.454 -12.546,28 -28,28c-15.454,0 -28,-12.546 -28,-28c0,-15.454 12.546,-28 28,-28Zm0,0c15.454,0 28,12.546 28,28c0,15.454 -12.546,28 -28,28c-15.454,0 -28,-12.546 -28,-28c0,-15.454 12.546,-28 28,-28Z" style="fill:#d27878;stroke:#737577;stroke-width:3px;"/><path d="M20.439,37.221c-0.035,0.006 -0.07,0.013 -0.105,0.02l-3.785,0.657l0.575,-0.886c-0.846,-0.146 -1.569,-0.354 -2.105,-0.605c-0.307,-0.162 -0.722,-0.134 -0.987,0.066c-0.731,0.543 -2.032,1.527 -2.032,1.527l0,-5.294c0,0 0.831,0.879 1.535,1.625c0.224,0.237 0.574,0.387 0.958,0.411c0.385,0.024 0.763,-0.082 1.035,-0.288c0.644,-0.471 1.673,-0.831 3.027,-0.937l-0.537,-1.517l3.982,1.639c0,0 0.402,0.126 0.888,0.269c0.369,0.109 1.029,0.207 2.112,0.546c0.529,0.166 1,0.658 1,0.899c0,0.433 -2.636,0.978 -3,1.054c-0.354,0.073 -0.909,0.366 -1.163,0.657c-0.278,0.319 -1.28,0.701 -1.28,0.701l-0.118,-0.544Z"/><path d="M26.289,46.997c-0.015,0.013 -0.03,0.026 -0.045,0.04l-1.649,1.437l0.04,-0.55c-0.448,0.198 -0.852,0.331 -1.178,0.389c-0.191,0.026 -0.384,0.165 -0.458,0.331c-0.208,0.453 -0.572,1.267 -0.572,1.267l-1.419,-2.235c0,0 0.637,0.117 1.176,0.216c0.172,0.031 0.381,-0.013 0.573,-0.12c0.192,-0.108 0.346,-0.268 0.422,-0.439c0.184,-0.396 0.584,-0.863 1.209,-1.323l-0.666,-0.475l2.36,-0.528c0,0 0.228,-0.071 0.501,-0.159c0.207,-0.067 0.552,-0.228 1.165,-0.416c0.299,-0.093 0.659,-0.029 0.723,0.073c0.116,0.182 -1.009,1.22 -1.164,1.363c-0.151,0.14 -0.341,0.433 -0.385,0.634c-0.049,0.22 -0.43,0.688 -0.43,0.688l-0.203,-0.193Z"/></g><defs><linearGradient id="_Linear2" x1="0" y1="0" x2="1" y2="0" gradientUnits="userSpaceOnUse" gradientTransform="matrix(-4,27,-27,-4,36,13)"><stop offset="0" style="stop-color:#aaccdc;stop-opacity:1"/><stop offset="0.49" style="stop-color:#96bccf;stop-opacity:1"/><stop offset="1" style="stop-color:#5b8fa8;stop-opacity:1"/></linearGradient></defs></svg>