<svg viewBox="0 0 64 64" xmlns="http://www.w3.org/2000/svg" xmlns:serif="http://www.serif.com/" fill-rule="evenodd" clip-rule="evenodd" stroke-linecap="round" stroke-linejoin="round" stroke-miterlimit="1.5"><g serif:id="Pct Natural Landcover"><circle cx="32" cy="31.9" r="28.1" fill="#fff"/><clipPath id="a"><circle cx="32" cy="31.9" r="28.1"/></clipPath><g clip-path="url(#a)"><path d="M16.3 26c4-.4 6.5 2.4 11.8 3.2 3.1.5 6.6-3.6 9.2-3.6 1.7-.1 6.2-1.4 10.6-1 4.4.6 7.3 2.1 10 2.8 1.2.3 1.5 9.9 0 8.5-.3-.4-3.7-3-8.5-4.2-3.4-.8-8-.4-10.6-.5-2.5-.1-8.8 2.7-12.7 1.6-3-.8-6.5-4-8.6-4.1-3.7-.2-2-.2-5 .7-1.3.5-5.8 1.3-4.2.1 2-1.5 7.1-3.4 8-3.5z" fill="url(#_Linear2)" fill-rule="nonzero"/></g><path d="M32 44v3l-4-4 4-4v3h12v-3l4 4-4 4v-3H32z" fill="#d47272"/><path d="M46.4 21.3c-.5 0-.8.3-.8.7v14.5c0 .4.3.8.8.8h1.5c.4 0 .7-.4.7-.8V22c0-.4-.3-.7-.7-.7h-1.5z" fill="#707070"/><path serif:id="Dam" d="M26.4 21.3c-.5 0-.8.3-.8.7v14.5c0 .4.3.8.8.8h1.5c.4 0 .7-.4.7-.8V22c0-.4-.3-.7-.7-.7h-1.5z" fill="#707070"/><path d="M32 4a28 28 0 1 1 0 56 28 28 0 0 1 0-56zm0 0a28 28 0 1 1 0 56 28 28 0 0 1 0-56z" fill="#d27878" stroke="#737577" stroke-width="3"/></g><defs><linearGradient id="_Linear2" x2="1" gradientUnits="userSpaceOnUse" gradientTransform="scale(54.45177) rotate(-.1 386.8 -40)"><stop offset="0" stop-color="#aaccdc"/><stop offset=".5" stop-color="#96bccf"/><stop offset="1" stop-color="#5b8fa8"/></linearGradient></defs></svg>