<svg viewBox="0 0 64 66" xmlns="http://www.w3.org/2000/svg" fill-rule="evenodd" clip-rule="evenodd" stroke-linecap="round" stroke-linejoin="round" stroke-miterlimit="1.5"><circle cx="33" cy="33.9" r="28.1" fill="#fff"/><clipPath id="a"><circle cx="33" cy="33.9" r="28.1"/></clipPath><g clip-path="url(#a)"><path d="M27 19.3c3.2 2.6 2.9 6.3 6 10.7 1.8 2.5 7.1 2.2 9 4 1.2 1.2 5.3 3.5 8 7s3.7 6.7 5 9c.6 1.1-6 8-6 6 0-.5-.5-4.7-3-9-1.8-3-5.3-6.1-7-8-1.6-1.8-8-4.4-10-8-1.5-2.8-1.6-7.5-3-9-2.4-2.8-1.3-1.6-4-3-1.3-.6-5-3.3-3-3 2.5.4 7.3 2.7 8 3.3z" fill="url(#_Linear2)" fill-rule="nonzero"/></g><path d="M33 6a28 28 0 1 1 0 56 28 28 0 0 1 0-56zm0 0a28 28 0 1 1 0 56 28 28 0 0 1 0-56z" fill="#d27878" stroke="#737577" stroke-width="3"/><defs><linearGradient id="_Linear2" x2="1" gradientUnits="userSpaceOnUse" gradientTransform="matrix(38 39 -39 38 13 15)"><stop offset="0" stop-color="#aaccdc"/><stop offset=".5" stop-color="#96bccf"/><stop offset="1" stop-color="#5b8fa8"/></linearGradient></defs></svg>