<svg viewBox="0 0 64 64" xmlns="http://www.w3.org/2000/svg" xmlns:serif="http://www.serif.com/" fill-rule="evenodd" clip-rule="evenodd" stroke-linecap="round" stroke-linejoin="round" stroke-miterlimit="1.5"><g serif:id="Pct Natural Landcover"><g transform="translate(-375 -82.1) scale(2.96053)"><circle cx="137.5" cy="38.5" r="9.5" fill="#fff"/><clipPath id="a"><circle cx="137.5" cy="38.5" r="9.5"/></clipPath><g clip-path="url(#a)"><path d="M122 17.3c3.2 2.6 2.9 6.3 6 10.7 1.8 2.5 7.1 2.2 9 4 1.2 1.2 5.3 3.5 8 7s3.7 6.7 5 9c.6 1.1-6 8-6 6 0-.5-.5-4.7-3-9-1.8-3-5.3-6.1-7-8-1.6-1.8-8-4.4-10-8-1.5-2.8-1.6-7.5-3-9-2.4-2.8-1.3-1.6-4-3-1.3-.6-5-3.3-3-3 2.5.4 7.3 2.7 8 3.3z" fill="url(#_Linear2)" fill-rule="nonzero" transform="rotate(-45.8 123 -86.4) scale(.33778)"/></g></g><path d="M32 44v3l-4-4 4-4v3h12v-3l4 4-4 4v-3H32z" fill="#d47272"/><path d="M46.4 21.3c-.5 0-.8.3-.8.7v14.5c0 .4.3.8.8.8h1.5c.4 0 .7-.4.7-.8V22c0-.4-.3-.7-.7-.7h-1.5z" fill="#707070"/><path d="M26.4 21.3c-.5 0-.8.3-.8.7v14.5c0 .4.3.8.8.8h1.5c.4 0 .7-.4.7-.8V22c0-.4-.3-.7-.7-.7h-1.5z" fill="#707070" serif:id="Dam"/><path d="M32 4a28 28 0 1 1 0 56 28 28 0 0 1 0-56zm0 0a28 28 0 1 1 0 56 28 28 0 0 1 0-56z" fill="#d27878" stroke="#737577" stroke-width="2.964708"/></g><defs><linearGradient id="_Linear2" x2="1" gradientUnits="userSpaceOnUse" gradientTransform="matrix(38 39 -39 38 108 13)"><stop offset="0" stop-color="#aaccdc"/><stop offset=".5" stop-color="#96bccf"/><stop offset="1" stop-color="#5b8fa8"/></linearGradient></defs></svg>