<svg viewBox="0 0 64 64" xmlns="http://www.w3.org/2000/svg" xmlns:serif="http://www.serif.com/" fill-rule="evenodd" clip-rule="evenodd" stroke-linecap="round" stroke-linejoin="round" stroke-miterlimit="1.5"><g serif:id="Low natural floodplain"><circle cx="32" cy="31.9" r="28.1" fill="#fff"/><clipPath id="a"><circle cx="32" cy="31.9" r="28.1"/></clipPath><g clip-path="url(#a)"><path d="M53 42V28h-5v14h5zM36 40v-9h-4v9h4z" fill="gray"/><path d="M28 36c0-5.5 13.4-10 30-10h4v2h-4c-14.5 0-25.2 3.4-28 8h-3 1z" fill="#a6a6a6"/><path d="M24.4 38V12l-7.1 4v22h7.1zM15.5 38V24H11v14h4.5z" fill="gray"/><path d="M28 37V23h-4.5v14H28z" fill="gray"/><g fill="#a6a6a6"><path d="M18.2 17h.9v1h-.9zM18.2 21h.9v1h-.9zM18.2 25h.9v1h-.9zM18.2 29h.9v1h-.9zM18.2 19h.9v1h-.9zM18.2 23h.9v1h-.9zM18.2 27h.9v1h-.9zM18.2 31h.9v1h-.9zM19.9 17h.9v1h-.9zM19.9 21h.9v1h-.9zM19.9 25h.9v1h-.9zM19.9 29h.9v1h-.9zM19.9 19h.9v1h-.9zM19.9 23h.9v1h-.9zM19.9 27h.9v1h-.9zM19.9 31h.9v1h-.9zM21.7 17h.9v1h-.9zM21.7 21h.9v1h-.9zM21.7 25h.9v1h-.9zM21.7 29h.9v1h-.9zM21.7 19h.9v1h-.9zM21.7 23h.9v1h-.9zM21.7 27h.9v1h-.9zM21.7 31h.9v1h-.9z"/></g><path d="M30 36c0 3.3 10.3 6 23 6 3.2 0 6.2-.2 9-.5V62H5V36h25z" fill="#a6a6a6"/><path d="M61 36c0 .8.7 1.4 1.5 1.4h.5v8.4l-5.3.2C42.4 46 30 41.5 30 36h1c0 .8.7 1.4 1.5 1.4S34 36.8 34 36c0 .8.7 1.4 1.5 1.4S37 36.8 37 36c0 .8.7 1.4 1.5 1.4S40 36.8 40 36c0 .8.7 1.4 1.5 1.4S43 36.8 43 36c0 .8.7 1.4 1.5 1.4S46 36.8 46 36c0 .8.7 1.4 1.5 1.4S49 36.8 49 36c0 .8.7 1.4 1.5 1.4S52 36.8 52 36c0 .8.7 1.4 1.5 1.4S55 36.8 55 36c0 .8.7 1.4 1.5 1.4S58 36.8 58 36c0 .8.7 1.4 1.5 1.4S61 36.8 61 36z" fill="url(#_Linear2)"/></g><path d="M32 4a28 28 0 1 1 0 56 28 28 0 0 1 0-56zm0 0a28 28 0 1 1 0 56 28 28 0 0 1 0-56z" fill="#d27878" stroke="#737577" stroke-width="3"/></g><defs><linearGradient id="_Linear2" x2="1" gradientUnits="userSpaceOnUse" gradientTransform="matrix(33 0 0 10 30 41)"><stop offset="0" stop-color="#638493"/><stop offset=".5" stop-color="#537b8c"/><stop offset="1" stop-color="#266178"/></linearGradient></defs></svg>