<svg viewBox="0 0 64 64" xmlns="http://www.w3.org/2000/svg" xmlns:serif="http://www.serif.com/" fill-rule="evenodd" clip-rule="evenodd" stroke-linecap="round" stroke-linejoin="round" stroke-miterlimit="1.5"><g serif:id="HIgh natural floodplain"><circle cx="32" cy="31.9" r="28.1" fill="#fff"/><clipPath id="a"><circle cx="32" cy="31.9" r="28.1"/></clipPath><g clip-path="url(#a)"><path d="M40.3 36a20 20 0 0 1 2.2-10.2s.1-.3.6-.3c.4.1.4.6.1 1.2l-.2.7a19.4 19.4 0 0 0-1.7 8l.3-.9c.8-1.7 2.5-2.8 4.1-4h.3c.6 0 .6.7-.4 1.4-1.9 1.3-3.4 2.9-3.4 5.4 0 1.6.1 3.1.3 4.6l-2.6.5c-.3.3-.8.1-.7-.8v-.8c.3-1.9.6-4 0-5.6-.6-1.7-2.3-2.8-3.8-3.8 0 0-.4-1 .3-.9.3 0 .6.3.8.5 1.8 1.2 3.4 2.8 3.8 5z" fill="#648a00" fill-rule="nonzero"/><path d="M43 25a.5.5 0 0 0-.8.3L41 28c0 .3 0 .6.3.7l1 .4c.2.1.5 0 .7-.2l1.2-2.7c0-.3 0-.6-.3-.7l-1-.5z" fill="#a17d4b"/><path d="M33 19.3c.6-.8 1.6-1.3 2.8-1.3 1.8 0 3.2 1.2 3.2 2.6v.2l-1.8.2c-1.9 0-3.5-.7-4.2-1.7zM15 20.3c.6-.8 1.6-1.3 2.8-1.3 1.8 0 3.2 1.2 3.2 2.6v.2l-1.8.2c-1.9 0-3.5-.7-4.2-1.7z" fill="#839f36"/><path d="M33 18.6c0-1 .4-2 1.3-2.8 1.4-1 3.3-1 4.2 0v.1c-.3.5-.7 1-1.2 1.4-1.4 1.2-3 1.6-4.3 1.3zM20 21c.6-.6 1.7-1 2.9-1 1.7.1 3 1.4 3 2.9-.6.2-1.2.3-1.9.2-1.8-.1-3.3-1-4-2zM25 35c.6-.6 1.7-1 2.9-1 1.7.1 3 1.4 3 2.9-.6.2-1.2.3-1.9.2-1.8-.1-3.3-1-4-2z" fill="#839f36"/><path d="M21 35c.6-.6 1.7-1 2.9-1 1.7.1 3 1.4 3 2.9-.6.2-1.2.3-1.9.2-1.8-.1-3.3-1-4-2z" fill="#839f36"/><path d="M17 35c.6-.6 1.7-1 2.9-1 1.7.1 3 1.4 3 2.9-.6.2-1.2.3-1.9.2-1.8-.1-3.3-1-4-2z" fill="#839f36"/><path d="M12 35c.6-.6 1.7-1 2.9-1 1.7.1 3 1.4 3 2.9-.6.2-1.2.3-1.9.2-1.8-.1-3.3-1-4-2z" fill="#839f36"/><path d="M8 35c.6-.6 1.7-1 2.9-1 1.7.1 3 1.4 3 2.9-.6.2-1.2.3-1.9.2-1.8-.1-3.3-1-4-2z" fill="#839f36"/><path d="M4 35c.6-.6 1.7-1 2.9-1 1.7.1 3 1.4 3 2.9-.6.2-1.2.3-1.9.2-1.8-.1-3.3-1-4-2zM19.8 16.6c-.7-.7-1-1.8-.7-3 .3-1.7 1.8-2.8 3.2-2.6h.1l-.1 2c-.4 1.7-1.4 3.1-2.5 3.6z" fill="#839f36"/><path d="M22.8 11.3c-.8.3-2 .3-3-.3-1.6-.9-2.2-2.6-1.5-3.9V7c.6.1 1.2.4 1.8.7 1.6 1 2.6 2.3 2.7 3.6z" fill="#839f36"/><path d="M27.2 11.7c-.9.5-2 .6-3.1.1-1.6-.7-2.5-2.4-2-3.7l.1-.1c.6 0 1.2.2 1.8.5 1.7.7 2.9 2 3.2 3.2zM38.2 13.9c-.4.9-1.2 1.6-2.4 2-1.7.4-3.4-.3-3.8-1.7v-.1c.5-.3 1-.6 1.7-.8 1.8-.5 3.5-.2 4.5.6z" fill="#839f36"/><path d="M36.6 9c.4.9.2 2-.5 3-1 1.5-2.8 2-4 1.1H32c.2-.6.5-1.2.9-1.7 1-1.5 2.5-2.4 3.8-2.4z" fill="#839f36"/><path d="M32.4 6c.8.5 1.4 1.5 1.5 2.7.1 1.8-1 3.3-2.4 3.4h-.1l-.4-1.8c-.1-1.9.5-3.5 1.4-4.3z" fill="#839f36"/><path d="M28 7c1-.1 2 .3 2.9 1.2 1.2 1.3 1.3 3.1.3 4.1l-.1.1-1.5-1.2c-1.2-1.3-1.8-3-1.5-4.2z" fill="#839f36"/><path d="M30.2 12c.7-.7 1.8-1.1 3-1 1.7.3 3 1.6 2.8 3v.2H34c-1.8-.3-3.3-1.2-3.9-2.3zM29 21.1c0-1 .7-2 1.7-2.5 1.5-1 3.4-.7 4.1.5v.1c-.3.5-.8.9-1.4 1.2-1.5 1-3.2 1.2-4.4.7zM19.1 21c1 0 2 .5 2.7 1.4 1.1 1.4 1.1 3.3 0 4.2h-.1c-.5-.3-1-.8-1.4-1.3-1.1-1.4-1.5-3-1.2-4.3zM27.5 19.3c-.5-.8-.7-1.9-.3-3 .6-1.7 2.2-2.7 3.6-2.2 0 .7 0 1.3-.3 1.9-.6 1.7-1.8 3-3 3.3zM27.4 14.1c-1-.2-1.8-1-2.2-2.1-.6-1.7 0-3.5 1.4-4h.2l.8 1.6c.6 1.8.5 3.5-.2 4.5z" fill="#839f36"/><path d="M30.1 14.3c-.4.8-1.4 1.5-2.5 1.7-1.8.2-3.4-.8-3.6-2.2v-.1c.5-.3 1.1-.4 1.8-.5 1.8-.3 3.5.2 4.3 1.1z" fill="#839f36"/><g fill="#a17d4b"><path d="M15 23h5v18h-5z"/><path d="M32.6 11l-2-2L17 22.6l2 2L32.6 11z"/><path d="M14.4 11.6l-3 .8L15 25.8l3-.8-3.6-13.4zM26.2 15.4l-.2 1.4 8.6 3.2.2-1.4-8.6-3.2zM29.2 11.4l-.2 1.4 4.8 1.8.2-1.4-4.8-1.8zM22.5 10.9l-1.7.2 1.1 7 1.6-.2-1-7zM27.2 10l-1.2.2v4l1.2-.2v-4z"/></g><path d="M55.3 36a20 20 0 0 0-2.2-10.2s0-.3-.5-.3c-.5.1-.4.6-.2 1.2l.3.7a19.4 19.4 0 0 1 1.6 8l-.3-.9c-.8-1.7-2.4-2.8-4-4h-.4c-.5 0-.5.7.5 1.4 1.8 1.3 3.3 2.9 3.4 5.4 0 1.6-.1 3.1-.3 4.6l2.5.5c.4.3.9.1.8-.8l-.1-.8c-.2-1.9-.5-4 0-5.6.7-1.7 2.3-2.8 3.9-3.8 0 0 .4-1-.3-.9-.4 0-.6.3-.9.5-1.7 1.2-3.3 2.8-3.8 5z" fill="#648a00" fill-rule="nonzero"/><path d="M52.7 25c.3 0 .6 0 .7.3l1.2 2.7c.1.3 0 .6-.2.7l-1 .4c-.3.1-.6 0-.7-.2l-1.2-2.7c-.1-.3 0-.6.3-.7l1-.5z" fill="#a17d4b"/><path d="M30 36c0 3.3 10.3 6 23 6 3.2 0 6.2-.2 9-.5V62H5V36h25z" fill="#f4d8b3"/><path d="M61 36c0 .8.7 1.4 1.5 1.4h.5v8.4l-5.3.2C42.4 46 30 41.5 30 36h1c0 .8.7 1.4 1.5 1.4S34 36.8 34 36c0 .8.7 1.4 1.5 1.4S37 36.8 37 36c0 .8.7 1.4 1.5 1.4S40 36.8 40 36c0 .8.7 1.4 1.5 1.4S43 36.8 43 36c0 .8.7 1.4 1.5 1.4S46 36.8 46 36c0 .8.7 1.4 1.5 1.4S49 36.8 49 36c0 .8.7 1.4 1.5 1.4S52 36.8 52 36c0 .8.7 1.4 1.5 1.4S55 36.8 55 36c0 .8.7 1.4 1.5 1.4S58 36.8 58 36c0 .8.7 1.4 1.5 1.4S61 36.8 61 36z" fill="url(#_Linear2)"/></g><path d="M32 4a28 28 0 1 1 0 56 28 28 0 0 1 0-56zm0 0a28 28 0 1 1 0 56 28 28 0 0 1 0-56z" fill="#d27878" stroke="#737577" stroke-width="3"/></g><defs><linearGradient id="_Linear2" x2="1" gradientUnits="userSpaceOnUse" gradientTransform="matrix(33 0 0 10 30 41)"><stop offset="0" stop-color="#638493"/><stop offset=".5" stop-color="#537b8c"/><stop offset="1" stop-color="#266178"/></linearGradient></defs></svg>