<svg viewBox="0 0 64 64" xmlns="http://www.w3.org/2000/svg" fill-rule="evenodd" clip-rule="evenodd" stroke-linecap="round" stroke-linejoin="round" stroke-miterlimit="1.5"><circle cx="33" cy="31.9" r="28.1" fill="#fff"/><clipPath id="a"><circle cx="33" cy="31.9" r="28.1"/></clipPath><g clip-path="url(#a)"><path d="M26 13h.1c2.5.3 2.4 2 2.9 3 .4.9 0 2.3-.8 3-1.9 1.7-7.4 4.2-10.2 7-1.3 1.3-1.3 2.1-2 3-1.9 2.3 1.5 7.2 6.6 2.3 4-3.7 7.2-8.8 12.1-10.5 4-1.4 8.6.7 11.6 4 2.2 2.4 3 6.6.4 9.4-3.1 3.3-8.6 1.2-11.8 2.4-1.6.7-3.1 2-3.4 3.6 0 .6-.5 5.9.4 6.8 3.5 3.2 3-1.4 7.1-4 3.9-2.5 13.3-6 14-.8.2 2 0 7 .7 8s.8 1.2.8 1.7c.1 2.2-8.2 5.1-8.2 3.1 0-.9.7-5.2 0-7-.7-1.8-4.1 0-5.2 1-3.8 3.5-4.1 4.4-8.4 4.5h-.8c-1.5 0-3-.4-4-1.5-2.9-3.3-1.7-8-1.4-12 0 0 .4-2.3 1.7-4.2 2.6-3.6 7.5-5.1 12.1-4.3 1.4.2 3-.3 3.2-1.7.3-2-4.7-4.6-7.7-4a14 14 0 0 0-7.6 4.2c-1.8 2-3.4 5-5.6 6.6-3 2.1-6.4 2.7-9-.4-2-2.6-2.8-6.3-1.5-9C14.5 22 22.9 19.8 25 18c.6-.6.3-2.4-.5-2.5-1-.2-3.6 2.1-5.5 1.8-2-.4-7.2-4-7-4.3 1.8-1.5.8-.9 1-1 2.2-1 3 3 6 3 0 0 6.2-2.2 7-2z" fill="url(#_Linear2)" fill-rule="nonzero"/></g><path d="M33 4a28 28 0 1 1 0 56 28 28 0 0 1 0-56zm0 0a28 28 0 1 1 0 56 28 28 0 0 1 0-56z" fill="#d27878" stroke="#737577" stroke-width="3"/><defs><linearGradient id="_Linear2" x2="1" gradientUnits="userSpaceOnUse" gradientTransform="matrix(38 39 -39 38 13 13)"><stop offset="0" stop-color="#aaccdc"/><stop offset=".5" stop-color="#96bccf"/><stop offset="1" stop-color="#5b8fa8"/></linearGradient></defs></svg>