<svg viewBox="0 0 64 64" xmlns="http://www.w3.org/2000/svg" fill-rule="evenodd" clip-rule="evenodd" stroke-linecap="round" stroke-linejoin="round" stroke-miterlimit="1.5"><circle cx="33" cy="31.88" r="28.13" fill="#fff"/><clipPath id="a"><circle cx="33" cy="31.88" r="28.13"/></clipPath><g clip-path="url(#a)"><path d="M26 13l.1.02c2.5.32 2.4 2 2.9 2.98.45.9-.06 2.3-.83 3-1.83 1.67-7.35 4.15-10.17 7-1.3 1.3-1.26 2.1-2 3-1.86 2.28 1.49 7.2 6.59 2.34 3.93-3.74 7.2-8.8 12.16-10.57 3.9-1.4 8.52.75 11.54 4.03 2.21 2.41 3.1 6.6.43 9.4-3.16 3.32-8.6 1.2-11.8 2.44-1.6.62-3.15 1.94-3.43 3.6-.06.56-.52 5.85.46 6.76 3.47 3.25 2.9-1.37 7.05-4 3.88-2.46 13.33-6.03 13.95-.82.24 2.05.1 7.06.73 7.97.74 1.07.8 1.22.82 1.73.1 2.27-8.23 5.14-8.22 3.12.01-.87.72-5.21 0-7-.7-1.77-4.12 0-5.2 1-3.82 3.54-4.09 4.39-8.38 4.5l-.75.03c-1.5.02-3.03-.4-4.04-1.55-2.87-3.27-1.75-8-1.43-11.91 0 0 .37-2.39 1.7-4.23 2.6-3.62 7.5-5.19 12.12-4.35 1.4.23 2.98-.32 3.2-1.67.32-1.96-4.67-4.61-7.73-4.01-2.85.55-5.58 2-7.6 4.19-1.8 1.97-3.32 5.01-5.58 6.64-2.91 2.1-6.41 2.66-8.93-.4-2.13-2.6-2.87-6.37-1.57-9.1C14.52 22 22.94 19.93 25 18c.63-.6.31-2.44-.55-2.55-1-.12-3.57 2.2-5.45 1.82-2.06-.4-7.2-4.01-6.91-4.27 1.72-1.52.67-.9.91-1 2.17-.98 2.92 2.94 6 3 0 0 6.17-2.2 7-2z" fill="url(#_Linear2)" fill-rule="nonzero"/></g><path d="M33 4c15.45 0 28 12.55 28 28S48.45 60 33 60 5 47.45 5 32 17.55 4 33 4zm0 0c15.45 0 28 12.55 28 28S48.45 60 33 60 5 47.45 5 32 17.55 4 33 4z" fill="#d27878" stroke="#737577" stroke-width="3"/><defs><linearGradient id="_Linear2" x2="1" gradientUnits="userSpaceOnUse" gradientTransform="matrix(38 39 -39 38 13 13)"><stop offset="0" stop-color="#aaccdc"/><stop offset=".49" stop-color="#96bccf"/><stop offset="1" stop-color="#5b8fa8"/></linearGradient></defs></svg>