<svg viewBox="0 0 64 64" xmlns="http://www.w3.org/2000/svg" xmlns:serif="http://www.serif.com/" fill-rule="evenodd" clip-rule="evenodd" stroke-linecap="round" stroke-linejoin="round" stroke-miterlimit="1.5"><g serif:id="HIgh natural floodplain"><circle cx="32.125" cy="31.875" r="28.125" fill="#fff"/><clipPath id="a"><circle cx="32.125" cy="31.875" r="28.125"/></clipPath><g clip-path="url(#a)"><g serif:id="Ground vegetation" fill="#839f36"><path d="M25.125 35.093c.617-.729 1.686-1.169 2.864-1.082 1.775.132 3.128 1.412 3.021 2.857a2.516 2.516 0 0 1-.013.125 6.724 6.724 0 0 1-1.852.112c-1.828-.136-3.356-.95-4.02-2.012z"/><path d="M21.125 35.093c.617-.729 1.686-1.169 2.864-1.082 1.775.132 3.128 1.412 3.021 2.857a2.516 2.516 0 0 1-.013.125 6.724 6.724 0 0 1-1.852.112c-1.828-.136-3.356-.95-4.02-2.012zM4.125 35.093c.617-.729 1.686-1.169 2.864-1.082 1.775.132 3.128 1.412 3.021 2.857a2.516 2.516 0 0 1-.013.125 6.724 6.724 0 0 1-1.852.112c-1.828-.136-3.356-.95-4.02-2.012z"/><path d="M17.125 35.093c.617-.729 1.686-1.169 2.864-1.082 1.775.132 3.128 1.412 3.021 2.857a2.516 2.516 0 0 1-.013.125 6.724 6.724 0 0 1-1.852.112c-1.828-.136-3.356-.95-4.02-2.012z"/><path d="M12.125 35.093c.617-.729 1.686-1.169 2.864-1.082 1.775.132 3.128 1.412 3.021 2.857a2.516 2.516 0 0 1-.013.125 6.724 6.724 0 0 1-1.852.112c-1.828-.136-3.356-.95-4.02-2.012z"/><path d="M8.125 35.093c.617-.729 1.686-1.169 2.864-1.082 1.775.132 3.128 1.412 3.021 2.857a2.516 2.516 0 0 1-.013.125 6.724 6.724 0 0 1-1.852.112c-1.828-.136-3.356-.95-4.02-2.012z"/></g><g fill="#a17d4b"><path d="M32.594 22.608l-4.831-1.289-4.638 17.393L27.956 40l4.638-17.392z"/><path d="M47.887 14.285l-1.43-2.47-16.662 9.647 1.43 2.469 16.662-9.646z"/><path d="M29.125 5.066h-2.107L27.419 24h3.706l-2-18.934zM19.166 22.435l-1.308 1.651 7.967 6.164 2.3-2.904-8.959-4.911zM44.356 30.757l-.094-2.105-15.157.933.165 3.701 15.086-2.529z"/><path d="M19.453 14.643l-.328.8L28.549 19l.576-1.407-9.672-2.95zM40.589 16.857l-.591 1.275 7.473 5.338.592-1.274-7.474-5.339zM44.518 13.765l-.591 1.275 4.135 2.954.592-1.275-4.136-2.954zM38.101 11.524l-1.65-.174-.762 7.065 1.649.174.763-7.065zM42.878 11.896l-1.197-.066-1.044 3.903 1.197.066 1.044-3.903z"/></g><path d="M26.265 6.262c.29-.756.921-1.451 1.795-1.875 1.601-.776 3.414-.348 4.046.955.018.039.036.077.052.115a6.496 6.496 0 0 1-.716.553c1.152-.086 2.211.399 2.664 1.332.018.039.036.077.052.115a6.742 6.742 0 0 1-1.711 1.104c.331.247.59.57.745.96.016.039.03.079.044.118a6.73 6.73 0 0 1-1.616.913 6.46 6.46 0 0 1-2.531.479c.081.143.149.29.202.44 1.3-.692 2.706-.626 3.333.227.021.029.041.058.06.088a7.934 7.934 0 0 1-1.323 1.231c1.014-.099 1.964.243 2.507.943.063-.204.144-.406.245-.606.118-.236.257-.454.411-.651-.721-.57-1.227-1.251-1.438-1.938.497-.346 1.139-.532 1.827-.524-.731-1.171-.718-2.581.124-3.43.03-.03.06-.059.092-.086a6.735 6.735 0 0 1 1.48 1.118c.669.663 1.161 1.412 1.456 2.151a2.245 2.245 0 0 1 .552-1.304 6.728 6.728 0 0 1 1.596.947c.411.325.77.683 1.073 1.058.412-.475.957-.784 1.573-.834l.126-.006a6.922 6.922 0 0 1 .421 2.384c.3-.112.603-.183.901-.217-.237-1.05-.17-2.042.184-2.78.945.131 1.89.798 2.447 1.839.059.112.113.224.16.338.479-.96 1.155-1.684 1.893-2.033.652.699.963 1.812.738 2.972a3.732 3.732 0 0 1-.816 1.72c1.173-.695 2.414-.945 3.376-.707.064.952-.397 2.013-1.303 2.77a3.9 3.9 0 0 1-.589.407c.057.192.092.387.103.581.867.291 1.572.758 2.003 1.33-.279.394-.68.725-1.16.958a2.262 2.262 0 0 1 1.019 1.159 6.955 6.955 0 0 1-2.814 1.404c1.472.574 2.358 1.947 2.017 3.229-.011.04-.023.081-.036.12a6.704 6.704 0 0 1-1.841-.233 6.645 6.645 0 0 1-1.914-.84c.086.316.147.63.184.937.555.321.998.721 1.286 1.168-.349.425-.85.756-1.437.947-.094.303-.221.58-.379.82a2.96 2.96 0 0 1-1.112-.603c.298.401.507.822.61 1.239-.648.399-1.51.534-2.386.346.412.531.682 1.096.776 1.642-.661.345-1.511.423-2.356.19.134.346.212.69.229 1.02-.893.338-2.041.204-3.029-.443l-.041-.027a6.65 6.65 0 0 1-.935.682c.035.689-.071 1.319-.313 1.825-.63-.101-1.259-.448-1.769-.987-.09.02-.18.037-.269.053.214.656.274 1.296.17 1.853-.947.119-2.032-.28-2.841-1.142-.723-.771-1.063-1.74-.998-2.608a3.99 3.99 0 0 1-.158-.16c-1.218-1.297-1.348-3.155-.292-4.147.031-.029.063-.057.095-.083.226.135.45.29.668.462a2.885 2.885 0 0 1 .025-.806c-.04.02-.081.039-.123.057-.039.016-.078.032-.117.046a5.69 5.69 0 0 1-.216-.283 7.13 7.13 0 0 1-1.286.577c.137.151.254.322.346.511.018.039.036.077.052.115-.437.39-.958.742-1.546 1.027-1.649.799-3.379.862-4.487.276.038-.213.103-.424.194-.629-.837.069-1.604-.059-2.194-.371.168-.94.872-1.858 1.935-2.373.976-.473 2.032-.499 2.85-.151a3.84 3.84 0 0 1 1.15-.849 3.715 3.715 0 0 1 1.929-.375c-.253-.944-.28-1.862-.101-2.629l-.049-.015a6.886 6.886 0 0 1-1.079.463c.137.151.254.322.346.511.018.039.036.077.052.115-.437.39-.958.742-1.546 1.027-1.288.624-2.625.799-3.677.566.064.092.121.19.171.292.018.039.036.077.052.115-.437.39-.958.742-1.546 1.027a7.057 7.057 0 0 1-1.134.433 2.209 2.209 0 0 1 .618.607c-.35.469-.79.917-1.31 1.314-1.456 1.112-3.139 1.519-4.341 1.166-.015-.616.191-1.267.59-1.843-1.007.688-2.09 1.008-2.989.895-.152-.811.076-1.748.665-2.541-1.159.586-2.352.757-3.266.489-.019-.808.34-1.677 1.02-2.359a3.702 3.702 0 0 1-1.218-1.665 3.772 3.772 0 0 1-.225-1.736 3.816 3.816 0 0 1-.775-1.264c-.623-1.667-.027-3.432 1.33-3.939a1.67 1.67 0 0 1 .119-.041 6.77 6.77 0 0 1 .877 1.635c.226.605.361 1.211.409 1.789.228.368.428.774.591 1.211.056.149.106.298.151.446.912-.227 2.018.022 2.921.75.15.121.288.25.414.386a3.47 3.47 0 0 1 .42-1.217c.154.035.307.085.457.149a3.769 3.769 0 0 1-.439-.629 3.37 3.37 0 0 1-1.104-.157c.006-.593.217-1.212.607-1.76.003-.249.031-.492.084-.723-1.289-.037-2.41-.45-3.084-1.116.059-.116.127-.229.204-.338a3.768 3.768 0 0 1-.957-1.446c-.623-1.667-.027-3.432 1.33-3.939a1.67 1.67 0 0 1 .119-.041 6.77 6.77 0 0 1 .877 1.635c.327.874.462 1.752.424 2.541.174-.054.354-.096.54-.126.828-.133 1.624.004 2.259.336a3.91 3.91 0 0 1-.203-.543c-.051.1-.105.195-.165.285-.92-.255-1.767-1.042-2.181-2.148-.623-1.667-.027-3.432 1.33-3.939A1.67 1.67 0 0 1 19.696 8a6.77 6.77 0 0 1 .877 1.635c.446 1.191.534 2.389.316 3.36.817-.16 1.77.025 2.605.58.728.484 1.232 1.159 1.461 1.865l.105-.053c.806-.391 1.665-.476 2.4-.299.038-.017.077-.033.117-.047l.01-.004a7.006 7.006 0 0 1-1.136-.292c-1.593-.554-2.793-1.599-3.261-2.696-.826-.316-1.565-1.059-1.943-2.069-.623-1.667-.027-3.432 1.33-3.939A1.67 1.67 0 0 1 22.696 6a6.77 6.77 0 0 1 .877 1.635c.513 1.372.553 2.751.197 3.785a3.397 3.397 0 0 1 1.242-.177c-.449-.46-.769-.968-.926-1.478.612-.426 1.444-.61 2.311-.487-1.183-.647-2.023-1.575-2.311-2.513.58-.404 1.36-.591 2.179-.503zm9.367 23.904c.046.13.086.259.12.387.088-.053.179-.102.273-.149v-.082a3.415 3.415 0 0 1-.393-.156zm2.335-1.396a7.201 7.201 0 0 1 .562.965c.039-.062.08-.124.124-.185a2.888 2.888 0 0 1-.094-.471 3.52 3.52 0 0 1-.592-.309zm3.133-7.262a6.962 6.962 0 0 1-2.691 1.428 2.202 2.202 0 0 1-.14 1.178 6.742 6.742 0 0 1-1.818-.369 6.652 6.652 0 0 1-1.808-.951c.293.878.251 1.775-.068 2.486.284.194.563.418.83.67.265-.247.553-.449.854-.602a2.274 2.274 0 0 1 .778-1.421 6.71 6.71 0 0 1 1.24.966c.114-.945.622-1.747 1.436-2.094.039-.017.078-.032.117-.046.369.455.694.992.951 1.593.38.891.553 1.795.538 2.609.223.069.448.151.671.247a2.653 2.653 0 0 1-.258-.895 2.585 2.585 0 0 1-.102-.081c-.032-.028-.064-.056-.094-.085l.083-.176c-.798-1.016-.991-2.29-.537-3.233a4.088 4.088 0 0 1 .018-1.224zm-20.732 4.454l-.008.009a.6.6 0 0 0 .026-.015l-.006-.008-.012.014zm2.997-8.09a7.25 7.25 0 0 1-1.362.949c.015.903-.186 1.714-.575 2.307a2.594 2.594 0 0 1-.314-.109c.256.293.476.639.642 1.028.19.444.29.899.309 1.338 1.103-.533 2.306-.495 3.153.007.031-.093.067-.185.107-.276a3.436 3.436 0 0 1-1.2-.356c.108-.604.437-1.198.94-1.683a3.415 3.415 0 0 1-.809-.252c-.681.397-1.382.606-2.015.595-.275-.915-.062-2.051.653-2.991.154-.202.322-.383.501-.544l-.03-.013zm-7.366 3.815c.014.357-.005.701-.056 1.024a3.57 3.57 0 0 1 .539-.141 5.375 5.375 0 0 1-.483-.883zm30.588.16a6.55 6.55 0 0 1-.862.24c.042.14.079.279.111.418a2.182 2.182 0 0 1 .86-.505l.006.008c.048-.022.097-.043.147-.063a3.014 3.014 0 0 1-.262-.098zm-4.242-2.774a6.98 6.98 0 0 1-.733.411 6.648 6.648 0 0 1-2.073.624c.691.187 1.264.61 1.567 1.234l.018.039c.158-.755.535-1.403 1.048-1.832.042-.161.1-.32.173-.476zm-4.801.867a7.048 7.048 0 0 1-.932.544c-.063.03-.126.06-.189.088.058.026.116.052.172.08a3.884 3.884 0 0 1 1.419-.585 3.406 3.406 0 0 1-.47-.127zm9.881-.919l-.097.063c.102.024.201.053.298.087a3.087 3.087 0 0 1-.201-.15zm-13.716-4.199a6.927 6.927 0 0 1-1.097.662c-1.288.624-2.625.799-3.677.566.064.092.121.19.171.292.018.039.036.077.052.115a6.372 6.372 0 0 1-.504.405 6.7 6.7 0 0 1 .312 1.399c.042.019.083.038.123.059.642-.285 1.429-.368 2.23-.189.31-.705.918-1.345 1.741-1.744.27-.131.546-.227.821-.291-.14-.389-.2-.824-.172-1.274zm13.111 1.916a6.596 6.596 0 0 1-.463.327c.044.009.088.019.131.03l.001-.019c.187-.056.38-.104.58-.143a6.323 6.323 0 0 1-.249-.195zM36.068 15.3c-.311.293-.64.537-.974.723.379.045.736.155 1.048.325.293-.134.593-.228.891-.284a5.719 5.719 0 0 1-.965-.764zm-7.167-1.054a5.401 5.401 0 0 1-.467.103 2.168 2.168 0 0 1-.165.765 6.578 6.578 0 0 1-.529-.053c.035.048.07.098.103.148.132.052.257.113.375.183.134-.407.367-.799.683-1.146zm16.43.367c-.91.393-1.833.566-2.652.532l-.002.004-.004.006c.146.067.287.139.422.215.812-.384 1.676-.46 2.411-.27a3.166 3.166 0 0 1-.175-.487zM29.146 7.002a6.034 6.034 0 0 1-.817.128c.134.112.258.232.37.358.131-.172.28-.335.447-.486z" fill="#839f36"/><g serif:id="Branches" fill="#a17d4b"><path d="M8 23h5v18H8z"/><path d="M25.632 11.018L23.614 9 10 22.614l2.018 2.018 13.614-13.614z"/><path d="M7.409 11.598l-3.001.804 3.591 13.402L11 25 7.409 11.598zM19.243 15.384L19 16.767 27.597 20l.243-1.384-8.597-3.232zM22.243 11.384L22 12.767l4.757 1.789.243-1.384-4.757-1.788zM15.465 10.872l-1.639.256 1.084 7.023 1.638-.256-1.083-7.023zM20.176 10l-1.173.244L19 14.285l1.173-.245.003-4.04z"/></g><path d="M30.125 36c0 3.312 10.306 6 23 6 3.193 0 6.235-.17 9-.477V62h-57V36h25z" fill="#f4d8b3"/><path d="M61.125 37c0 .788.672 1.429 1.5 1.429.175 0 .344-.029.5-.082v8.469a75.55 75.55 0 0 1-5.304.184c-15.286 0-27.696-4.481-27.696-10h1c0 .788.672 1.429 1.5 1.429s1.5-.641 1.5-1.429c0 .788.672 1.429 1.5 1.429s1.5-.641 1.5-1.429c0 .788.672 1.429 1.5 1.429s1.5-.641 1.5-1.429c0 .788.672 1.429 1.5 1.429s1.5-.641 1.5-1.429c0 .788.672 1.429 1.5 1.429s1.5-.641 1.5-1.429c0 .788.672 1.429 1.5 1.429s1.5-.641 1.5-1.429c0 .788.672 1.429 1.5 1.429s1.5-.641 1.5-1.429c0 .788.672 1.429 1.5 1.429s1.5-.641 1.5-1.429c0 .788.672 1.429 1.5 1.429s1.5-.641 1.5-1.429c0 .788.672 1.429 1.5 1.429s1.5-.641 1.5-1.429z" fill="url(#_Linear2)"/></g><path d="M32 4c15.454 0 28 12.546 28 28S47.454 60 32 60 4 47.454 4 32 16.546 4 32 4zm0 0c15.454 0 28 12.546 28 28S47.454 60 32 60 4 47.454 4 32 16.546 4 32 4z" fill="#d27878" stroke="#737577" stroke-width="3"/></g><defs><linearGradient id="_Linear2" x2="1" gradientUnits="userSpaceOnUse" gradientTransform="matrix(33 0 0 10 30.125 42)"><stop offset="0" stop-color="#638493"/><stop offset=".49" stop-color="#537b8c"/><stop offset="1" stop-color="#266178"/></linearGradient></defs></svg>